/* XPM */
static char *_e3de301d3e641c9ca50970c7876df86sNYDHUGDdpp2HHNJ[] = {
/* columns rows colors chars-per-pixel */
"60 60 178 2 ",
"   c #24393E",
".  c #243D42",
"X  c #283D42",
"o  c #274045",
"O  c #284145",
"+  c #274249",
"@  c #2B464B",
"#  c #2C4A4D",
"$  c #32464C",
"%  c #314B4E",
"&  c #2D4B50",
"*  c #334D53",
"=  c #3A4F55",
"-  c #355355",
";  c #3A5355",
":  c #355459",
">  c #3A555A",
",  c #37585D",
"<  c #3D5A5D",
"1  c #365C61",
"2  c #3C5D63",
"3  c #3C6165",
"4  c #3C6269",
"5  c #40565C",
"6  c #425B5D",
"7  c #435E62",
"8  c #4A5F64",
"9  c #405E68",
"0  c #446265",
"q  c #4A6365",
"w  c #44646A",
"e  c #4B666B",
"r  c #466A6C",
"t  c #4D6A6D",
"y  c #51656B",
"u  c #536C6E",
"i  c #4B6771",
"p  c #456B73",
"a  c #4C6C72",
"s  c #4D6F78",
"d  c #536E72",
"f  c #586D70",
"g  c #526E79",
"h  c #4D7275",
"j  c #4E747A",
"k  c #4E7A7D",
"l  c #547375",
"z  c #5A7475",
"x  c #587877",
"c  c #53757A",
"v  c #5A767B",
"b  c #557A7D",
"n  c #5C7B7D",
"m  c #61767A",
"M  c #627B7D",
"N  c #60807F",
"B  c #567780",
"V  c #567C82",
"C  c #5C7D82",
"Z  c #627D81",
"A  c #687D82",
"S  c #5D8285",
"D  c #5E848A",
"F  c #5F888B",
"G  c #638385",
"H  c #6A8486",
"J  c #608887",
"K  c #64868A",
"L  c #6B868A",
"P  c #64898D",
"I  c #6C8B8D",
"U  c #72868B",
"Y  c #728B8D",
"T  c #6C8790",
"R  c #668C91",
"E  c #6C8D92",
"W  c #728E92",
"Q  c #679092",
"!  c #6C9294",
"~  c #6D959A",
"^  c #739295",
"/  c #799495",
"(  c #749896",
")  c #73959A",
"_  c #7A969A",
"`  c #759A9C",
"'  c #7B9A9D",
"]  c #769DA1",
"[  c #7C9DA1",
"{  c #76A0A4",
"}  c #7DA2A4",
"|  c #7EA4A9",
" . c #809397",
".. c #81969B",
"X. c #819C9D",
"o. c #80A39F",
"O. c #829EA1",
"+. c #83A3A5",
"@. c #89A3A5",
"#. c #86A9A5",
"$. c #89A9A6",
"%. c #84A5A9",
"&. c #8AA6AA",
"*. c #85AAAC",
"=. c #8BABAD",
"-. c #91ABAD",
";. c #8EB0AF",
":. c #90B0AF",
">. c #86A7B0",
",. c #86ABB2",
"<. c #8CAEB2",
"1. c #92AEB2",
"2. c #8DB1B3",
"3. c #8EB3B9",
"4. c #93B3B5",
"5. c #99B4B5",
"6. c #9CB9B7",
"7. c #94B6B9",
"8. c #9AB6BA",
"9. c #96B9BB",
"0. c #9BBBBD",
"q. c #A2BCBE",
"w. c #97BBC1",
"e. c #9DBDC1",
"r. c #A2BEC1",
"t. c #9EC1C3",
"y. c #9FC2C8",
"u. c #A3C3C5",
"i. c #A8C4C7",
"p. c #A9C4C5",
"a. c #A6C8C7",
"s. c #A2C3C8",
"d. c #A0C1C8",
"f. c #A5C2C9",
"g. c #A5C7C9",
"h. c #A5C5C9",
"j. c #A5C6C9",
"k. c #A9C7CA",
"l. c #A8C7CC",
"z. c #AAC6C9",
"x. c #A6C8CA",
"c. c #A5C8CA",
"v. c #A6C9CD",
"b. c #A6C8CA",
"n. c #A9C8CB",
"m. c #A8CACB",
"M. c #AACACD",
"N. c #ACCBCD",
"B. c #ABCDCE",
"V. c #AFCDCF",
"C. c #ACCACC",
"Z. c #B2CBCE",
"A. c #ADCBD0",
"S. c #ADCFD1",
"D. c #ADCDD1",
"F. c #B3CED2",
"G. c #B8CDD2",
"H. c #ADD0D2",
"J. c #B2D2D1",
"K. c #B4D1D7",
"L. c #B5D3D5",
"P. c #B4D2D4",
"I. c #B9D3D5",
"U. c #B8D8D7",
"Y. c #B4D3D8",
"T. c #B6D6D9",
"R. c #BBD6D9",
"E. c #B7D9DB",
"W. c #BAD9DA",
"Q. c #BDD9DC",
"!. c #C2DBDD",
"~. c #C4DEE1",
"^. c #C6E1E2",
"/. c #C9E3E5",
"(. c #CEE7E9",
"). c #D1E6EB",
"_. c #D2ECEE",
"`. c #D7F0F4",
/* pixels */
"I 4.c.2.9.c.7.c.S.t.s.g.A.A.r.+.s.4.7.*.4.<.I g.C.m.L.L.f.A.E _ 0.*.G =.r.1.e.W ` [ b R ] ] ` b b ` P D n l * e i B K w ",
"! 0.m.9.t.s.c.y.t.s.s.s.g.u.e.' t.%.%.%.e.4.I s.C.m.m.Y.A.l.W [ 9.' b <.f.e.8.T ^ [ j b J ] | C j ] ` ~ D K > i i j C p ",
"L 5.t.t.e.c.g.s.e.g.s.C.N.k.r.^ } +.4.4.9.=.E 0.C.B.S.c.u.S.I [ t.[ K l.e.e.9.P P | ! { } | ] V p ~ P k S _ 1 e 2 s C p ",
"N 5.N.g.B.g.g.s.m.c.e.u.m.N.0.L ` 2.2.4.9.+.( s.t.g.m.S.c.m.K E 2.%.K e.9.s.c.! P ` R | | ` ~ D w S D S ! ! : a 2 p V p ",
"L L ' ' 4.0.4.0.g.N.F.C.L.Q.i.I t.t.e.9.u.9.^ J.W.J.W.Q.k.P.' +.2.} I s.e.7.e.K ! } F Q *.} ~ D s ` ~ ! ! I : v w i a 1 ",
"G l t u t 0 e t n C G Z I ^ I l n Z G L W I n _ X.-.+.+.' _ n ' ' G S 0.7.+.=.G ` ] ` ~ ` ` } C c ) ~ ] P E 2 9 2 i c i ",
"G ' s.4.O.I =.1.4.=.O.' 5.=.+.O.( _ ' ' O.+.@.+.' n W _ G L W &.=.I n =.' %.8.G _ ' [ +.+.%.=.C C ` ) [ ^ E 7 l d n v e ",
"G _ 4.=.+.^ 8.0.g.9.+.+.Q.R.N.J.L.Q.Q.P.!.P.G.Q.G.@.z.z.0.k.C.C.L.0.G &.+.%.1.K l K I G n v C w e C l s d 0 . 9 2 > * + ",
"G +.%.=.} K 2.s.9.t.<.=.J.S.J.F.N.F.F.N.F.L.F.P.r.O.k.r.r.r.N.k.r.4.L 4.+.8.4.C t w t a : b K g c g & 2 0 2 < < < # > @ ",
"K } 9.5.=.K t.0.4.c.4.<.C.P.S.S.N.F.u.N.I.C.Q.L.r.' P.N.r.s.u.0.5.4.L 5.&.+.[ K n I ' _ w T T R ) ] i [ [ ' I I P K _ c ",
"K *.u.9.4.` S.e.s.u.e.+.e.T.S.m.F.F.S.Y.L.P.J.R.u.' N.0.r.g.g.0.z.0.G 1.1.=.+.x w I ' E w ` ! ] ] ] 2 [ ^ S J h h K I 2 ",
"h S ` %.I ` B.4.e.k.0.=.s.S.C.g.k.T.L.J.P.P.J.C.u.[ g.e.g.k.u.u.P.6.L +.=.e.t.! n [ ' [ 0 } ~ ~ ] ~ c O.^ S P r l K n & ",
"w n G S w ( C.0.N.C.4.+.g.C.C.N.0.k.S.m.L.N.C.F.0._ i.0.k.u.k.N.I.6.L 9.%.%.C.' E ' +.' w [ ,.[ ] R d ^ I G h b E x l > ",
"=.<.9.e.` K %.=.u.4.=.( 8.z.N.q.0.u.u.Y.I.k.N.P.z.+.k.8.i.Z.N.i.!.q.L C.8.<.8.n d I [ E 0 ,.3.,.] E a ' ^ E G G C W W 6 ",
"+.=.=.=.W 0 n K I I z e q M z m d d z m z z m z z q u M M M f z m u ; < < Z e e f z l e 2 *.3.| ] *.# 5 5 - > - * % = . ",
"*.<.<.2.^ ^ C.u.0.u.0.4.0.q.Y p.q.q.i.p.5._ Z.p.p.p.i.Z.I.Y W @./ W O./ X./.Q.F.F.G.Z.F.G +.,.3.,.+.e @.W Z n x d % t u ",
"| *.<.=.` ^ u.=.4.=.5.9.i.u.W C.C.Z.P.I.q.@.^.!.P.g.C.N.I.O.O.4.=.+.4.' _ /.Q.L.G.G.F.B.C [ %.,.%.` t %.' E G n l - c n ",
"{ Q ] +.L I u.^ +.+.+.=.g.0.Z q.5.4.g.C.C.+.Q.R.J.7.5.5.k.' +.4.=.=.<.[ _ _.L.L.I.G.m.H.T +.w.,.*.` 0 ' ` ! x C l * h j ",
"*.! ` } I I 0.4.7.9.} } u.0.G k.u.z.C.g.u.X.!.I.C.U.P.g.L._ +.<.%.,.4._ _ /.N.z.Z.G.L.Q.W O.<.3.,.` w ^ ` ! C K c * c V ",
"` Q ( } L I 0.=.4.=.=.0.u.5.I C.i.C.9.r.5.X./.!.!.^.Q.k.~.O.' *.' %.&._ _ ).R.R.G.G.m.m.T e.e.w.w.| d [ ' ! E P b : C S ",
"| 2.} *.L Y u.:.4.4.=.=.5.4.Y u.0.9.;.q.4.@.(.!.^.!.I.!.`.O.O.=.+.+.O.^ _ /.R.R.R.L.N.T._ %.w.7.7.| i %.^ ) E P Z 2 P P ",
"9.4.5.9.I ^ q.8.u.0.4.g.P.4.Y C.u.9.a.C.0.-.~.I.Q.^._.^.(.+._ =.+.[ [ W O.!.R.G.L.R.C.P.^ [ 2.<.7.+.a _ E ` E ^ E w I J ",
"e t z u 6 f H H L H L O._ A U Z.0.4.c.Y.g.=.!.!.!./.!.Z.R.&.' +.} [ ' W ' ~.i.k.C.C.u.P.^ } ` *.e.*.d W ! ! K ( G 2 P J ",
"@.=.4.@.Y Y ..H W O.' &.O.n H C.0.9.5.u.9.-._.(._.!.~././.5.+.0.5.=.+.^ &._.N.N.L.L.Y.L.' <.<.7.g.4.l +.+.} ` ` G 0 ) Q ",
"L.R.W.Q.i.C.i.X.=.B.c.u.C.5._ i.u.u.g.u.r.' 8.-.@.-.....@.n z I G l f 7 u L Y L H W _ ^ a C v v v t $ u t 7 t l 7 - E T ",
"t.Q.W.C.Z.P.C.( =.t.u.e.0.9.( 0.4.u.C.Z.u.I @.-.@.^ / X._ _ X.' _ _ L v ..Y A M Z Y v v Z v Z < e 0 > 5 7 0 2 2 > & T ) ",
"F.R.I.I.!.I.R.O.' g.u.e.r.4.Y k.g.0.g.k.9.' C.q.1.0.&.=.1.8.0.8.u.F.@.Y @.q.W Y _ ^ L ' 4.O.u.^ G T T _ +.) ! E S 2 R ~ ",
"I.G.R.!.!.Z.~.X.' g.0.s.C.1._ C.9.C.Z.C.k.+.u.4._ 8.1.=.' =.5.0.+.i.X.L ' &.L Z ' I C I _ ' =.l V P W ^ E ~ P ~ V 2 ~ ~ ",
"L.R.~.R.~.G.!.+.1.S.7.0.u.4.Y i.8.0.u.z.0._ g.9.O.4.N.u.+.7.r.J.=.q./ Y 1.+.L I =.<.W n K G E v c ` [ _ ) ] ! ! G s | ~ ",
"Q.~.!.I.~.F.R.=.=.0.0.+.0.5.^ R.N.u.8.q.0.' C.t.&.u.0.+.' 2.%.&.&.0./ H ' =.H L ' +.W Z ' I _ d c } ' ^ [ ! I E G w } ] ",
"P.Q.Q.P.Q.Z.R.+.=.4.2.4.+.4.^ Z.k.N.8.q.0._ c.t.=.1.' +.=.<.=.4.&.q.Y z / =.W M ' +.W l I I _ d n ^ X._ +.' ^ ( L 7 L E ",
"N.Q.R.L.R.N.Q.4.+.5.<.9.=.+.^ u.5.q.8.r.r.^ s.9.=.1.=.e.4.5.7.k.&.r. .U -.-.A / 1.8.W ; < 7 - < - - % ; ; < < < * O * @ ",
"i.P.R.I.R.R.F.=.^ =.4.-.4._ ^ k.5.q.4.0.&.n -.=.@.+.X.-.1.1.@.@.W &.U M ..Y v W =.[ L Z +.' ) ' I C 7 I E C K E ^ _ Z @ ",
"m n u x x t x G G u M Z 0 x L _ _ _ L L z M u 6 e f q z z z f q 7 e 8 f e f e ^ =.9.n c E [ | ) ! K , c ) ) S E ) ^ ' < ",
"n n ' ' ` n ) ` =.G ^ 9.0.s.4.9.0.0.8.5.4.i.8.^ 1.L.N.k.Z.O.-.0.=.+.^ +.' 4.Z ' 4.2.G a P | %.] ` J 4 a b E D S ~ K ' 7 ",
"n l 2.=.*.` ) | 4.n ( u.c.c.g.u.e.0.=.=.s.0.0.I +.0.u.C.Y.( +.%.+.+.+.&.%.2.l ( +.*.K 0 ~ | *.| } b : c b S S h ! K I 7 ",
"K r ' %.,.%.<.[ 4.! [ u.s.t.t.t.9.9.e.u.e.9.9._ =.g.r.g.C.^ +.=.*.+.5.9.4.%.h ( <.%.L a ) } } ` ! E w E K b D S D G Z < ",
"C l <.` 2.7.%.*.t.` ' m.u.t.e.t.7.0.s.u.e.u.4.` =.E.c.s.m.^ =.=.%.} =.=.} ( h ( } _ c d ' [ %.) ` G 9 _ S w K E K K Z - ",
"K n %.` } 3.%.%.7.! ' g.9.e.e.e.0.9.t.e.0.t.e.) =.T.Y.S.P.) 2.2.4.4.5.1.=.%.n I ` [ W t O.=.[ [ [ Z e ^ v l ! ) E I G > ",
"t n =.` ` | *.%.9.I ' u.0.9.9.e.t.9.s.9.e.7.9._ +.c.g.l.A.C a b c l l e t d - 0 e t t - t a i e e - o 7 > & & 0 0 e 7 . ",
"n K 9.=.+.*.=.*.t.E +.P.N.c.c.g.B.m.P.g.7.u.C.' O.s.9.s.s.n K ^ K K G G < ' &.+.O.+.&.1.C 0 I C I L H f < n c 0 2 : # ; ",
"( t I K _ _ E K ( l n ' _ ^ K I n l L L C C I l [ g.u.e.m.G +.<.&.9.8.1.l 4.=.5.0.u.r.r.[ G %.^ =.=.O.^ 0 ' [ ! P C v G ",
"_ e L W _ ' W l d l q < q z Z M G n n I I I ^ K _ 4.9.k.m.K [ =.} <.&.O.l +.' ` =.=.4.s.+.v ` ! <.} [ K a +.K ! ! C c n ",
"W G J.u.s.0.8.W 5.4.Z.@.M 4.q.4.5.&.W g.4.4.0.^ +.=.7.e.C.n L ' +.' ( _ d 4.} | 9.4.2.9.' x } ] | ` [ E 0 ) P R R c a s ",
"n x u.4.4.2.' K 4.=.0.^ I =.[ =.4.+.n r.4.*.e.^ +.s.e.2.e.C G ' 2.[ ` %.n 4.0.t.=.2.4.u.+.G } ` } R ! E 0 ) ~ P P j h c ",
"G G t.` } =.7.I <.1.4.' n +.+.[ =.=.n 0.7.=.=.I =.m.e.7.<.b P E | ] 2.[ l 9.y.2.=.=.%.4.^ n [ ` R P ) P w S B P S h h h ",
"L t ' ` [ ,.9.G +.9.9.I Z &.' ^ } } n 0.*.*.7.` } t.2.*.t.V E ] } ` } =.c 9.9.=.[ =.+.<.O.G ' ! R ! ! E 1 c b S C h h a ",
"G t 5.=.=.=.=.G 1.u.<.I l ^ _ ' ` ` S e.2.' 7.} <.7.7.w.t.b D R | ` *.*.n t.t.9.<.7.=.7.O.t S K S n _ C 0 P E b C l l a ",
"l x =.=.=.+.=.L 4.<.<.^ t G ^ ' ` S t +.5.<.%.` *.7.4.7.9.C K P } [ *.=.G B.g.5.4.<.<.e.' # - < : * > 0 0 < > & + . + . ",
"n l -.0.4.4.-.L %.2.7.T v _ ^ ' 2.K w I K ' +.I K ' ` [ +.h ^ I ` ^ ' ^ l ' O.+.[ ^ E _ I < n x n G C G ^ G 0 I G n l w ",
"- - u z x n f z 9.9.<.T 6 v t x l t < 0 t z q l n q a t 0 > > 0 0 < % 7 < < 6 > l t 0 t < 2 v n P S S K K S 2 P E E K G ",
"Y _ f z X.+._ H 4.9.s._ L 1.&.8.=.+.1.8.N.4.G ' =.+.+.+.4.Z n ' O.' z H ' ' _ v <.[ +.w.Z < G K R F R P C S 4 ! R J V S ",
"( X.H Y =.@.-.G 7.e.7.^ A =.%.=.=.2.2.5.8.1.L ' =.' E ' +.n n +.( I t n I ( L l =.} >.<.P 2 b D P F R R S V 3 ~ P D V D ",
"x t 6 ^ -.=.q.G [ ` 2.E W 4.2.<.=.<.<.t.u.9.G ' %.} +.[ =.n K +.G I x L ^ ` I a ` ` ] %.E 2 S S R F R R F B 2 F c V C D ",
"h x t _ +.=.4.I ) *.=.K ^ 0.9.9.<.<.g.c.s.e.W &.=.' +.+.=.G I ^ I I e K ` ! K a %.| [ K C w S C F R R D F c 2 R S S K V ",
"J P z ^ 4.+.&.Z *.2.<.K ^ e.0.9.2.9.s.A.B.e.L _ =.[ +.} 4.n E } I I z L *.` K l *.*.} R 4 1 S D R R R S S c 4 P S b c s ",
"} 9.z ^ #.o.+.x *.| 2.K ) 9.2.2.*.3.9.y.g.s.C E =.' ' } *.h K ( K K x K ` ` P h *.} ` } c 3 F D D D D b S V 1 D j h j V ",
"! 2.M Y $.:.$.l ' +.e.I ' 7.4.7.2.9.s.A.c.k.K _ 0.=.%.=.+.l G ` ( ( v ( *.] ! c 2.| } *.S w J S P K ! S J n r %._ ! I S ",
"S ! u L @.+.W u Y I ' v W _ I I _ E _ ' ^ / 0 f M G L G u - > t e q 6 ' <.*.+.> a t 7 u 7 > q - > < e < 0 > > n z 0 > < ",
"| ` q 6 u e q - < 6 t 7 t e < l 0 < > d A A A M v Y X.@.X./ z 7 y U y / <.+.O.d G n ; q m z Z A * = 5 ; ; * 5 = $ X .   "
};
