/* XPM */
static char *_30cc892973f4923cf4cf3a262cc3fa4ux5owe0Oo1BLbQg8[] = {
/* columns rows colors chars-per-pixel */
"64 64 199 2 ",
"   c #050201",
".  c #0A0C09",
"X  c #0D0903",
"o  c #15120E",
"O  c #191814",
"+  c #110C06",
"@  c #231E18",
"#  c #23221E",
"$  c #2D271E",
"%  c #30281C",
"&  c #262523",
"*  c #2B2622",
"=  c #2C2A25",
"-  c #2D2B2B",
";  c #2B2728",
":  c #312D2A",
">  c #342D26",
",  c #33312E",
"<  c #3A342D",
"1  c #353533",
"2  c #393631",
"3  c #3D3A35",
"4  c #3C3C3A",
"5  c #373936",
"6  c #443C35",
"7  c #433E3A",
"8  c #4A3D34",
"9  c #433C2C",
"0  c #3F403B",
"q  c #45423D",
"w  c #4A433D",
"e  c #4A4136",
"r  c #52483D",
"t  c #3E3E40",
"y  c #433F40",
"u  c #444443",
"i  c #494642",
"p  c #4D4945",
"a  c #4C4B4A",
"s  c #484847",
"d  c #514741",
"f  c #534C46",
"g  c #524E4A",
"h  c #4F504B",
"j  c #53514D",
"k  c #59534C",
"l  c #585141",
"z  c #4F4E53",
"x  c #534F50",
"c  c #555453",
"v  c #5A5652",
"b  c #5C5955",
"n  c #5D5C5A",
"m  c #555658",
"M  c #62584F",
"N  c #625B54",
"B  c #625E5A",
"V  c #685F5A",
"C  c #605750",
"Z  c #5F605B",
"A  c #65625D",
"S  c #6A635C",
"D  c #676050",
"F  c #5D5E60",
"G  c #5F6160",
"H  c #646462",
"J  c #6A6662",
"K  c #6C6A66",
"L  c #6D6C6B",
"P  c #686768",
"I  c #726B65",
"U  c #726E6B",
"Y  c #756C67",
"T  c #6E706D",
"R  c #73716D",
"E  c #7A736D",
"W  c #797163",
"Q  c #6E6F71",
"!  c #757472",
"~  c #797672",
"^  c #767875",
"/  c #7C7976",
"(  c #767678",
")  c #7B7779",
"_  c #7C7C7B",
"`  c #77787A",
"'  c #80776C",
"]  c #837C75",
"[  c #827E7B",
"{  c #807773",
"}  c #7F807B",
"|  c #84817E",
" . c #8B837C",
".. c #8E867B",
"X. c #91857D",
"o. c #92887F",
"O. c #7E7E81",
"+. c #827F81",
"@. c #7F8180",
"#. c #848482",
"$. c #8A8683",
"%. c #878884",
"&. c #8C8A86",
"*. c #868689",
"=. c #8D8C8A",
"-. c #898889",
";. c #938B85",
":. c #998D85",
">. c #928E8A",
",. c #998F8A",
"<. c #918781",
"1. c #8E908E",
"2. c #94918E",
"3. c #9B938C",
"4. c #9A9087",
"5. c #8E8E90",
"6. c #918F91",
"7. c #8F9191",
"8. c #949492",
"9. c #9A9692",
"0. c #969895",
"q. c #9C9995",
"w. c #969799",
"e. c #999798",
"r. c #9D9C9A",
"t. c #979998",
"y. c #A0958D",
"u. c #A39A8E",
"i. c #A19692",
"p. c #A39B95",
"a. c #A99D94",
"s. c #A29D9A",
"d. c #A99F9B",
"f. c #A09798",
"g. c #9FA19E",
"h. c #A4A19D",
"j. c #ABA39C",
"k. c #A9A196",
"l. c #B4AA9E",
"z. c #B0A69D",
"x. c #9C9CA0",
"c. c #A19FA3",
"v. c #9FA0A4",
"b. c #A4A3A2",
"n. c #AAA6A2",
"m. c #ACAAA5",
"M. c #AAA7A8",
"N. c #ADACAA",
"B. c #A5A6AA",
"V. c #B1A6A4",
"C. c #B3ABA4",
"Z. c #B9AEA4",
"A. c #B2ADAA",
"S. c #B8AFAA",
"D. c #AFB1AE",
"F. c #BBB1A5",
"G. c #B5B1AD",
"H. c #BBB3AB",
"J. c #BEB8AE",
"K. c #ACADB1",
"L. c #B0AFB4",
"P. c #B5B3B2",
"I. c #BAB5B2",
"U. c #BCB9B4",
"Y. c #B5B6BB",
"T. c #BCBCBB",
"R. c #B9B7B8",
"E. c #C1B6AB",
"W. c #C2B9AD",
"Q. c #C3BCB3",
"!. c #C9BEB4",
"~. c #C1BDBA",
"^. c #C1B6B2",
"/. c #BFC0BB",
"(. c #C4C2BD",
"). c #CDC6BC",
"_. c #CAC1B6",
"`. c #BEBFC2",
"'. c #C4C4C4",
"]. c #C9C6C1",
"[. c #CDCAC5",
"{. c #CDCDC9",
"}. c #C7C8C3",
"|. c #D4CCC2",
" X c #D1CEC9",
".X c #D7D0C5",
"XX c #D4D2CD",
"oX c #DAD4CB",
"OX c #D9D1C4",
"+X c #DAD6D2",
"@X c #DCDAD5",
"#X c #DFDED9",
"$X c #E2DEDA",
"%X c #E0DBD7",
"&X c #E0D8CB",
"*X c #E1E2DD",
"=X c #E9E6E1",
"-X c #E9E7E2",
";X c #F1EEE9",
/* pixels */
"8.8.0.1.%.0./ >.] p.3.<.:.;.X.;.4.k.m.K G.'.T.P.`.Y.v.8.#.L / | N ~ &.[ &.m.n.C.9.p.n.3.G.A n.U.m.b.| P.U.=.~ Y s.U.~.n.q.[ >.9.",
"=.%.#.#.} L v q.:.:.i.p.X.X.4. .] E / A M.r.8.x.B.Y.x.` ! #.2./ Y &.j.m.q.3.3.3.j.k.q.k.G.B h.N.h.2.G.n.A.U.8.9.#.8.r.s.G.&.$.;.",
"G.m.2.&.| v , ] V.j.i.y.a.a.4.4.d...K p -.-.6.w.K.Y.B.8.-.| #./ S ;.m.k.;.2.h. .&.3.9.m.2.6 j 3 & , %.N.T.G.A.n.>.9.2.$.s.J | U.",
"j a 3 7 q >   @ d f r e r 8 8 M M k 7 : ^ =.b.b.x.x.r.M.t./ #.0.A ~ C.m.q.q.&.S E 9.n.h./  .m.9.n.| | N.N.9.A.9.s.s.s.s.A.i : g ",
"] R Y  .;.3.] E N > r S S ' .. .3...E A =.8.x.B.x.B.B.r.8.%.q.h.A 2 $.q.s.9.| s.&.3 q &.| %.$.n.m.%.=.A.m.N.h.>.s.q.9.q.s.p i Y ",
"S.p.d.Q.H.!.^.H.).4.j.!.!.W.l.z.V.j.s.J | b.b.c.b.K.b.r.0.0.0.2.R = K b v p 5 [ ~ c q g p n.m.s.n.0.L m.G.n.P.G.&.9.m.P.s.~ 9.~.",
":.;. .i.3.p.j.Z.3.o.l.W.W.l.u.|.y.j.G.A U M.8.*.-.-.*.t.r.%.&.&./ i %./ | K p _ ! b.m.b.K 2.h.r.N.2.q #.(.r.n.q.m.9.$.| B K 2.9.",
":.d.;.,.p.V.z.H.E.E y.E.F.F.z.Z.W.j.n.b J n.r.L.8.w.8.t.8.| &.2.2.j | 2.m.R g | r.b./ h.! K / R _ _ L b %.[ U >.R B p 3   7 >.q.",
"3.3.3.p.y.j.j.Z.H.;.l.F.E.Z.F.l.C.^.H.] @ #.c.6.r.x.b.8.$.2./ [ ! : %.N.h._ H _ 2.0.h.r.n.2.=._ %.%.2.%.m.H U [ 9.q.[ B [ U ;.2.",
"j.S.C.C.j.H.H.).C.' 4._._.E.l.l.j.l.G.~ : 2 a u z 1 - K n B A 2 = 2 a R _ u g m.r.N.9.0.t.b.8.r.0.r.r.%.r._ Y 9.2.2.&.[ [ p J 2.",
"V N V I S N d S N 6 ] F.Z.u.l.E.a.F.^.&.[ =.6.( +._ c 8.>.$.] R 8.8.#._ b.%.s t.B.B.r.B.B.'.N.-.2.b.m.r.#.b , ! R J n ~ ~ q i Y ",
"S N N S I E f N ] M 4.H.!.j.F.y.j.C.p.J ] ~.P.N.x.c.#.b.s.G.3.G.#.=.N.M.b.t.5 n 8._ r.8.8.P.'.-.=.s.h.n.2./ b K B _ Y K ~ 2.[ V ",
"n.m.h.$.$.p.E E ] S ..Q.!.E.F.y.V.j.m.I [ P.6.B.b.O.H t.2.I.k.9.b.M.t.P.b.8.v a v a H a a v _ r.=.b.b.r.>.%.n.| >.#.[ s.h.h.>.s.",
"0.0.r.2.>.&.A | ] E ] ).Z.Z.a.j.Z.a.H.V $.G.n.B.N.=.4 >.m.n.G.n.h.N.B.P.b.=.v 8.8.t.-.=.8.^ H }.R.A.r.h.q.! n.&.| >.>.&.$.n.q.>.",
"r.0.m.m.0./ 3 J  .E N p.V.!.Z.Z.E.j.,.7 j >.R.M.b.r.y [ I.m.I.(.'.P.Y.B.T.P.s _ x.8.*.8.x._ 4 #.%.r.n.r./ 5 [ I.s.2.9.9.9.m.s.q.",
"1 h K n K [ w v S N e < f d V C N V r 7 O , B H [ n : g Y ] R b c n s 1 t z 4 v _ n ! H K n a v n n , O 7 i p j v g b g w j p p ",
": ~ 9. .<.3.;.y.o...' Y ~  .Y p $ S ;.3.2.3.~ / ! 8.h./ U H a : ! ~ _ | _ %.9.! %.H ; v ^ #.%.e.r.c.J A I.C.9.,.....] ] [ >.K A ",
"] 9.C.p.:.:.;.k.p.<.3.3.R _ q.| ~ p.;.] [ 2.$.>.9.n.s./ 9.s.8.%.s.G.0.2.r.-.#.>.=.%.H t.b.t.$.=.=.&.J ] V.9.;.;.;.y. .;.$.:.2.$.",
"R ~ j.p.:.p.:.X.y.p.3.9.3.=.%.K B 3.$.&.2.s.9.>.| =.9.$.&.>.-.K 8.r.8.8.2.%.=.0.h.=.b #.8.t.8.t.8.b.U [ C.p.<.i.o.y.] ,.;.&.q.| ",
"! b s.j.[ 3.d.H.i.S.;.&.h.r.2.! p 3.<.:.>.>.2.$.q.[ 2.9.&.2.t.j %.r.r.8.=.2.r.>.8.^ 4 b c a 7 4 p : : >.n.9.,.;.y.3. .:.4.3.d.| ",
"+.- U G.m.p.;.j.U.G.m.n.2.-.8.! i 3.:.3.>.>.9.:.=.&.q.9.&.&.0.v _ B.=.^ 8.=.#.8.=.$.U s.>.$.$.9.>.q.U $.C.H.d.d.i.,.;...:.p.d.9.",
"n.4 7 H H v 7 i i : & 4 H L H b q  .;.9.p.s.9.2.$.h.9.$.9.2.8.L r.b.=.=.0.2.8.r.=._ J b.r.9.q.n.s.A.s.p.9.S.^.;.,.3.j.3.p.d.9.q.",
"U P _ _ U ^ [ #.| L a q %.M.-.r.K 3.3.3.2.9.&.9.r.=.J v Y >.n.A b.7.1.8.| _ =._ =.K v n.V.s.9.9.n.d.U J { V U ;.V E Y S [ E I K ",
"_ _ #._ / #.2.8.B.P.{.t.8.T.R.T.R p.n.j.p.s.;.h.r.$.q.$.q v 0.4 _ 0.8.1.0.0.0.=.q.! n n.n.f.p.V.n.I.;.N K I { N S Y w 7 E I ~ Y ",
"8.P #.-._ L _ t.r.8.8.P H b.e.| 7 k k p i q b >.9.>.h.h.q.7 b a 1 q , b K Z / L J U ~ S.d.p.p.V.d.V.<.N U.i.n.n.p.n.C.E i.s.V.n.",
"=.K %.=.t.8.#.Q 5.r.=.n - ^ n n B A N V Y J B J / K p g $.| %.r.! L H ! _ R L A B b V S.V.9.;.p.d.C.d.N g p.m.9.,.;.:.J i.,.9.p.",
"_ H %.-.8.8.=.O.#.7.r.=._ @XT. XH.H.H.H.I.G.m.n.9.A.>.! >.A.=.8.r.2.0.0.9.0.&.>.q.| J j.s.>.>.d.C.p.i.p.;.E s.q.>.=.>.J 9.,.p.j.",
"0.R 2.2.%._ *.8.=.O.8._ $.~.s.S.S.H.^.H.n.h.n.m.~.q.[ q.n.q.#.0.2.=.2.>.>.2.9.b.>.$.S q.d.s.q.9.i.j...<.Q.] 9.>.>.2.;.g $.9.d.i.",
"s.Y #.%.#._ O.-.*.#.e./ ~ S.n.Q.C.n.m.V.j.h.h.p.s.h._ / h.h.m.r.r.s.9.q.q.p.n.j.>.&.b 9.n.h.s.i.;.l.:.I H.H.;.9.s.9.$.g >.d.j.:.",
"9.Y #.| | #.-.*.( #.$._ b S.j.j.n.d.p.p.d.s.h.m.s.I.~ L I.$.%.h.2.2.$.3.n.A.S.s.s.$.p >.n.2.2.p.3.y.;.N d.d.s.s.>.>.>.V :.;.3.3.",
"&.J %.2.=.%.-.7.6.8.=.$.k i.V.j.i.p.i.p.q.>.2.A.N.~.J 2 h.G.b.n.s.9.9.9.n.U.A.n.s.;.p 9.~.m.s.p.z.Z.3.w  .:.~.A.q.s.N.] n.p.j.V.",
"p # v %.r.=.-.8.r.#._ L * 7 ;.C.h.m.m.G.I.3.[ 9.8.| g * A ! K [ A.s.m.$.[ 2./ $.q.| # c / / ! K Y W I , j | v %.$.$.[ g &.s.i.] ",
"[ / K R ! R L a 4 s a L _ v g R H b q q s 4 v n H #.b.| #.[ _ %.a = : a a a ! n P *.=.a H H n a u p c a - & L L %.( P a c , 7 L ",
"=.0.=.=.=.0.b.0.a B t.b.M.2.[ _ _ #.H a =.M.m.2.>.| =.8.N.N.b.M.n v 8._ 8.t.@.b.8.w.r.w.=.-.*.O.-._ _ =.#.L r.8.8.%._ #.5.L ^ r.",
"=.=.#.=.=.$.8.r.N.| r.L ! | #./ _ _ ^ A 8.R ! h.h.r.9.#.~ 8.b.A.-._ #.L _ _ 7.%.1._ *.r._ Q _ ! *.` ^ ^ _ _ r._ -.-._ L #.#.%.=.",
"8.=._ ~ _ | #.$.~ L r.#.^ U / _ _ R K 4 =.g.9.2.=.h.N.s.[ 9.s.s.K ! D.g.1.0.%._ 8.%.8.7.*.! 5._ #.8.r.-.L P r.B.t.=.8.t.-.H L B.",
"H v 4 1 v _ / L ! _ _ _ #._ ~ L ^ / _ 1 K 2.r._ B.r.9.n.=.$./ L u ^ ^ ! T L G Q L ^ _ ( O.Q ! ( n a a v s ; a P v u u n v 5 - a ",
"/ #.2.%.K s c 8.u R _ _ R R _ | ^ ! -.P n 5 c K 1 u a c s a B A s _ n #.^ c P u a n m P P F 5 H #.H H ! -._ _ ! #._ L L ^ 8.#.H ",
"h.#.-.m.G.#.R N.#.! _ R L ! _ ! #./ H n =.%.[ K v 2.m.q.$.[ 9.0.n n b.b._ P } _ _ _ _ =.#.*.c 5._ #.9.-.2.8.0.=.2.=.%.>._ #.=.h.",
"=.%.%.#.| R J r.| a $.%.#._ =.8._ =.c 4 R _ | _ =.r.8.>.q.[ >.8.A K 0.=.8.n #.%.#.! -.^ _ #.H 8.r.>.2.#.0.8.2.%.#.#._ #._ 2.=.%.",
"0.2.r.9.8.8.- v ~ a a H s 4 4 c a n R a 5 j R j [ =.$.8.$.=.#.2._ L r.#.2.0.=._ -.%.L *.%.%.c 8.| L 8.n.N.N.0.L 0.-.2.8.8.2.$.2.",
"B H L L R ^ n _ ! -./ >.b.2.b.2.=.%.8.%._ _ _ s _ =.=.8.>.r.8.9.s 0 ^ H R / | | } ! _ K P ! v H ^ b H ! J ^ L v K H L L J H n H ",
"U ^ / | #._ =.=./ -.%.! r.b.8.>.#._ =.%._ _ =._ %.r.s.r.9.h.q.9.R H h.=.2.0.h.N.#.! m.%.| =.8.$.9.s.A.s.p a A [ K J ~ ~ R Y J ! ",
"=.>.#.0.r.%._ / =.#.=./ 2.r._ 9.8._ #.-.8.=.#.A %.r.s.9.8.8.8.9.R A s.2.2.&.=.0.| K G.-.! P ! _ 2.$.[ >.J q.q.9.&.&.q.q.q.q.9.s.",
"2.2.[ 8.r.8.H =.-.8._ 0.$.#./ | 2._ #.#.8.>.#.n | -.>.>.=.#.>.h.! A h.s.m.h.r.s.| K B.=.#._ / t.&.2.2.q.B 9.s.s.| [ &.&.=.>.$.=.",
"2.8.=.0.0.=.a 2.2.9.=.t._ 0.R _ #.#.=.#.=.=.>._ >.2.9.2.2.| 8.A.#.R N.m.U.G.n.h.2._ b.#.#.=.! >.#.$.| $.v 9.h.h.h.r.s.q.9.q.>.2.",
"=.#.=.8.>.[ a _ -.#.2.#.#.m.n ^ t.2.8.=.r.8._ c %.=.8.=.9.>.b.I.2.| P.n.N.m.h.r.R b 0.%.>.r.%.9.2.&.&.2.J q.n.A.G.A.A.b.s.s.9.r.",
"h.%.8.0.b.r.%.t.b.P.r.b.~.b.c c A n H n P n P H n H ! R 6.r.R.'.0.&.(.m.N.G.P.U.K i m.r.t.2._ %.#./ $.q.! 8.h.A.(.~.(.I.A.G.A.R.",
"u = & b ^ -.L 4 a g v U ! x ; P 8.8.b.t.5.8.w.8.%._ 8.^ & c L =.H 3 p j v K ~ b # g 2.q.&.3.9.2./ 0./ >.v 2 v ~ $.J i p b v J ~ ",
"0._ =./.r.s.H o ! &._ J _ b.) J *.5.r.8.5.w.8.-.%.w.! P ( `.t.8.%.X g $./ ~ / 2.2.K ~ 2.9.4.>.9.2./ >.[ O | ].>.n.J o J | / [ | ",
"m.2.#.P.r.h./ %.P.n.s.b.s.s.&.8.b.B.8.%.%.8.8.-._ 8.v c _ `.x.r.2.R ].I.2.n.h.9.n.[ &.n.s.$.| 9.| | | i k $.N.q.9.>.[ (.G.h.q.3.",
"0.%.#.q._ 2.2.q.b.>.>.9.9.9.$.L r.m.r.r.N.B.8.2.! ! ! =.%.-.6.8.2.$.3.9.h.2.>.9.&.R | q.n.A.h.3.2.~ A >./ [ 9.&.q.| h.2.&.h.q.9.",
"%.0.b c 2.! n >.s.q.s.9.>.d.>.p A L n K #.L B H J q A %.$.H / Y A &.m.&.>.q.q.9.2.J A R ~ ~ A b J A k g h.Y ~ / R A 9.h.9.2.| >.",
"r.9.n / XXU.s.[ h.9.s.s.2.4.&.g g H a J q.9.h.~.~.n.I.~.$XXX X(.G.J 9.h.h.n.&.;.q.b J s.A.q.2.n.[.m.G.U.[.;X{.(.).p.K h.n.A.n.9.",
"r.(.j j (.XXI.J 3.>.;.$.p.C.n.f ~ n.2.j.oX[.].+Xn.U.[.~. X$XQ.G.+XK >.3.&.2.4.G.n.v v q.{.XX].{.@X2.XX[.U. X@XA. X~.R &.| $.9.2.",
"/ K o _ XXU.h.A ~ ~ | | ] K I < p &.~  .~.(. X%X~.+X$X[.G.=X[.[.h.~ Y Y | $./ K E q 2 p R n.[.@X X(.+X#XG.].-X X~.9.K R %.| / ~ ",
"A R [ p p 3 f f < 7 b N N I E E o   X + > < 6 p N N v J q j f w q j 2 q v v B J J $.K R g q 3 q j b J K J i b g 3 q j = j b b J ",
"I.h.h.| N.H.G.d.s.q.C.).U.j.H.!.> R N j g 3 p * * E [ ] E U &.U.N.I.m.>.h.[ q.G.n.A.n.m.R 2.9.~ K [ q.q./ R $.m.I.(.h.s.2.G.N.n.",
"&.| 9.Y $.p.p.n.p.i.j._.J.F.).H.w >.G.h.2.&.~ ~ >.;X=X(.{.~.[. X X~.N.3.s.A R 2.q.&.2.h.A q.G.G.N.9.| R J &./ $.| [ $.2.m.| s.3.",
"9.&.9.B [ U.H.J.!.Q.H.|.!.J.oX^.p 9.9.N./ v Y c $.=X=X#X+X{.@X(.+X+X[.(.n.R K q.h.9.>.2.j Y A / A K J A R h.2.[ 9.| J / h.q.9.9.",
"q.9.:.p I [..X[.!.F.C.oX).l.|..Xi =.h.U./ K 2.n v G.P.@X@XXXXX{.+X.X{.XXU./ K h.~ &.3.9.~ A.n.n.U.{.(.U. X X#XXXU.[.G.Y q.n.s.h.",
"9.m.n.b N j.U.).j.k.u.!.OX|.&X.Xj H N.{.0.} R j c XX/.}.@X*X}.XX$XA.~. X].b v A.h.9.h.9.k $.I.(.@X[.A.G. XG.XX=X(. XXXJ 9.| &.9.",
"b B v 3 2 p q 7 < < % % e r 9 % u s j 8.t.H L s 4 D.N.1.8.b.b.(.m.g 2 g 3.B , q J b B B 2 j q.I.U.~.(. XXXN.m. XG.q.Y A A Y A E ",
"/ / | 3.4.E k k ] ..] W W D l I J 5 O O j H n c # # o . .   . O # i i # 2 A g q 7 b g q g i q = # 2 i v n v : i 3 p v J p p K Y "
};
