/* XPM */
static char *c04bb00bbcd146cf9dba982ecb1d68b9__1_1735922317[] = {
/* columns rows colors chars-per-pixel */
"64 64 256 2 ",
"   c #000A1C",
".  c #09161D",
"X  c #0C1417",
"o  c #070D24",
"O  c #031423",
"+  c #031B24",
"@  c #041C2C",
"#  c #0C1C2C",
"$  c #0B1726",
"%  c #121C25",
"&  c #141C2B",
"*  c #181929",
"=  c #031C33",
"-  c #0B1D34",
";  c #0A1B38",
":  c #131D32",
">  c #171B36",
",  c #140F33",
"<  c #0C222D",
"1  c #092429",
"2  c #13222D",
"3  c #19222C",
"4  c #142529",
"5  c #032233",
"6  c #0C2334",
"7  c #04243C",
"8  c #0B243B",
"9  c #0C2B3C",
"0  c #082A38",
"q  c #132333",
"w  c #1A2434",
"e  c #132A35",
"r  c #13243B",
"t  c #1A243C",
"y  c #142B3C",
"u  c #1A2B3C",
"i  c #1A2A35",
"p  c #0A323B",
"a  c #14323D",
"s  c #1A353C",
"d  c #21293B",
"f  c #202028",
"g  c #464437",
"h  c #0B2B44",
"j  c #082B45",
"k  c #132C43",
"l  c #1B2C43",
"z  c #162946",
"x  c #0C3345",
"c  c #0C334A",
"v  c #093747",
"b  c #143344",
"n  c #1B3344",
"m  c #14344B",
"M  c #1B344B",
"N  c #133B4B",
"B  c #1C3B4D",
"V  c #183A45",
"C  c #0D3752",
"Z  c #1C3452",
"A  c #133B53",
"S  c #1C3C53",
"D  c #163957",
"F  c #132F52",
"G  c #23354C",
"H  c #233C4C",
"J  c #243544",
"K  c #233C53",
"L  c #263A58",
"P  c #292F45",
"I  c #123E61",
"U  c #473C42",
"Y  c #18424A",
"T  c #1B4254",
"R  c #15435B",
"E  c #1C435B",
"W  c #1C4A5B",
"Q  c #164857",
"!  c #114B59",
"~  c #234355",
"^  c #22445B",
"/  c #234B5D",
"(  c #294759",
")  c #33475A",
"_  c #26565C",
"`  c #2B474E",
"'  c #1B4563",
"]  c #1C4B63",
"[  c #154965",
"{  c #1B5364",
"}  c #1B536A",
"|  c #175768",
" . c #1C5672",
".. c #195B76",
"X. c #0D4F6A",
"o. c #234562",
"O. c #234B64",
"+. c #2B4C63",
"@. c #244C6B",
"#. c #2B4C6B",
"$. c #284564",
"%. c #334B68",
"&. c #235364",
"*. c #2B5365",
"=. c #24536B",
"-. c #2B536C",
";. c #2A5A6C",
":. c #245A6A",
">. c #32546B",
",. c #39566A",
"<. c #284D71",
"1. c #255273",
"2. c #2B5574",
"3. c #255C73",
"4. c #2B5B74",
"5. c #245D7B",
"6. c #2B5C7A",
"7. c #2A5579",
"8. c #335573",
"9. c #335C73",
"0. c #345C7B",
"q. c #3A5A77",
"w. c #1A6479",
"e. c #196673",
"r. c #28636D",
"t. c #24637C",
"y. c #2C637D",
"u. c #296778",
"i. c #33637C",
"p. c #366679",
"a. c #316B77",
"s. c #505C6C",
"d. c #44687E",
"f. c #68615E",
"g. c #A36230",
"h. c #CF631B",
"j. c #946643",
"k. c #D06E41",
"l. c #2A5E82",
"z. c #345C80",
"x. c #1B6985",
"c. c #17728A",
"v. c #147791",
"b. c #246483",
"n. c #2C6483",
"m. c #2B6B84",
"M. c #2D6C8B",
"N. c #246A87",
"B. c #336483",
"V. c #336B83",
"C. c #346B8B",
"Z. c #3B6C8B",
"A. c #3A6885",
"S. c #2C738C",
"D. c #287789",
"F. c #33728C",
"G. c #3A738C",
"H. c #377788",
"J. c #376D93",
"K. c #2B7591",
"L. c #287996",
"P. c #347493",
"I. c #3B7493",
"U. c #347C94",
"Y. c #3C7B94",
"T. c #3B7C9C",
"R. c #37799A",
"E. c #2B6F92",
"W. c #397DA4",
"Q. c #337DAC",
"!. c #125582",
"~. c #436C8C",
"^. c #446985",
"/. c #45768A",
"(. c #447493",
"). c #447B95",
"_. c #497998",
"`. c #547A97",
"'. c #4F718A",
"]. c #497DA3",
"[. c #547EA3",
"{. c #64728C",
"}. c #2A869A",
"|. c #3B839B",
" X c #378699",
".X c #328C94",
"XX c #1B98B4",
"oX c #1A90A7",
"OX c #2A89A7",
"+X c #348BA4",
"@X c #3C8AA4",
"#X c #3C8BAB",
"$X c #3787A7",
"%X c #2893AA",
"&X c #3796A9",
"*X c #388CB2",
"=X c #299AB3",
"-X c #389AB7",
";X c #29A2B9",
":X c #38A6B9",
">X c #35A9B1",
",X c #1498A8",
"<X c #43839C",
"1X c #49869B",
"2X c #57849C",
"3X c #4384A2",
"4X c #448BA3",
"5X c #488AA8",
"6X c #5887A7",
"7X c #4695AA",
"8X c #5794A9",
"9X c #4799B6",
"0X c #5699B6",
"qX c #4C8BB3",
"wX c #699AB8",
"eX c #6992AB",
"rX c #46A6BA",
"tX c #54A4B7",
"yX c #49ACB4",
"uX c #69AABA",
"iX c #658398",
"pX c #2BA9C2",
"aX c #39A9C3",
"sX c #2CB8C5",
"dX c #37B8C8",
"fX c #32B4D4",
"gX c #2DA0C2",
"hX c #529EC4",
"jX c #48A9C5",
"kX c #56A8C6",
"lX c #46B6C8",
"zX c #48B9D5",
"xX c #56B9D4",
"cX c #55AECF",
"vX c #66B6D3",
"bX c #71AFCB",
"nX c #5BBFE1",
"mX c #37C6D6",
"MX c #36CDD7",
"NX c #38E6E5",
"BX c #35DBE4",
"VX c #48C6D7",
"CX c #54C5DA",
"ZX c #4ECDD5",
"AX c #6FC4DA",
"SX c #58D7E7",
"DX c #50D2E5",
"FX c #6CD4EC",
"GX c #59F7FA",
"HX c #53E8F2",
"JX c #63EBF1",
"KX c #84BCD2",
"LX c #8FD1ED",
"PX c #85E6FB",
"IX c #A3D5EF",
"UX c #CCE9FF",
/* pixels */
"i y B l J J M A m D B T o.[ C Z 9 - l H r.0X9XqX).5X|.@X3X3X7X}.b q f t <XaXaX9XrX:X:X:XD.! b 6 ( 9.4.i.4.;.r.5.7.1.5.*.a 6 >.(.",
"u w & 3 e q e y V y 9 @ * % e n W @.E 5 -.8XR.)._.R.F.P.I.P.K.U.e.N + *.tX>X-XrX-X9X-XL...R y u 9XtXjX9XhX9X9XqX$X#XR.6.N S ~.P.",
"=.m 6 +.I.$X@X<XOX$XOX}.Z 9 F.9XqXrXkX&.>.G.t.p.p.A.p.V.a.V.i.V...' 5 ( p.b.i.r.m.w.} { v 5 p j $X5X#X#X4X@XW.R.F.b...R M ,.^.A.",
"#.H u ,.T.Q.L.R. X$X%X>X| W 5X9X9X-X5X[ i._.C.~.V.C.B.G.m.V.m.....' t l k k k b q i 8 m T E @.R ^ K z r 9 6 6 n i 8 8 h r ) H B ",
"M G J ) #.@.-.2.q.#.@.[ c ^ q.5.:.=.*.m / O.E ~ o.$.$.L T ~ T R Q 9 + $ - y < & % b H.7X9X0X5X5X<XG.a.r.W V 3 & : ,.+.-.#.#.#.D ",
"a B y & # % 4 % 1 6 2 . q # & & 4 d w & 3 : : # # $ $ + 4 *   5 8 E r.G.|.&X&Xt.0 2X8XR.R.I.Z./.J.P.R.U.S.;.l * +.'.V.m.m.B.z.z.",
"@X5X<XC.6.4.i.9.S.<X XyXrXD.W o ,.6X2X2X2X_.Z.'./.^.d.9.V O -.7X9XjXdXdXaX;X=X&X[ Y./.~.~.^./.G.~.Z.V.t.w.} m t './.6.;.6.0.1.7.",
"|.Y._.I.<XT.T.3X].<X#X:X*X-Xw.# iX0X4X6XiX6X6X2X1X`.6X8X+.r 6XrX&X$X$X+X$X#XR.OX] 4.G.G.G.G.C.B.t.1.-.@.] I h l A.0.8.7.0.7.0.4.",
"0.8.7.2.7.0.2.2.1.<.#.=.e.x.] < `.eX6X8X1X8X6X2X6X<X1X.XO.A H.).T.|.T.|.<X|.R.F.D A ,.#.R S m m c F h u : + 2 r z r u u M M S H ",
"# # < < # & & & 2 y q q $ , # 1 Q p.,.( ( ( %.' D S S B z - / ^ $.^ T R Q c A h e e + + b r q u % 3 # n >.A.1X[.;.H e & * * 3 * ",
"6.;.] ] E B m b e % % B &./.7X7XG.7 # 1 N *.} ! ! { ! ! { / @ # & $ w q q r i < 6 > ( eX8X_.F...H % %.wXeX6X0X6XV.p.9.+.~ M n u ",
"@XW.P.I.@XU.P.R.U.v ^ qX:X9X&XOXL.l.; W vXxXjXjXjXVXmXdXmX&X= +.`.`.`.6X6X`.6XG.S O A.KX0X$XW.N.=.9 Z.0X].6X6X/.i.6.4.r.4.;.&.H ",
"<.7.l.l.M.M.M.E.B.j i.7XOXK.N.N.e.w.j =.-X}.}.L.}.S.x.b.w...; ,.I._.2X6X_.(.I.).S 8 9._.b.1.1.9.T < /.5X`.^.A.r.>.+./ &.:.-.) H ",
"l l M M M ~ D m c e _ Q A M k j p 5 , 9 j r 0 k 6 5 8 > 6 5 6 1 = p x p p 0 = r p a a 5 0 6 # # O e ` d t l > 9 y u l l r k k y ",
"y < q & 2 2 % d M r u 9 N ' { r.u.}..X}.p - :.| w.t.F.K. X XyX7X>XyXu.o > A .X-X:XrXrX&X&X|.G.6.0.] & X q l w t t 3 * & : i w 4 ",
"7X@XU.n.4.A 5 p.9X9X9X9X-XaXaXlXjXlXdXsXN r lXCXCXVXCXVXVXDXMXVXVXdX.X5 d.KXCXcXfXjX:X:X:X-X&X=X+X}./ * 1X5Xi.0.6.4.*.:.O.( M w ",
"#X$XE.M.C.@.z /.Q._.|.W.#XW. X$X<X}.%XU.v 8 p.c.D.H.D.c.D.U.}.D.c.e./ b KXbX0X&X&X*X5XL. XS.S.K.N.u.B c wXQ.R.J.E.M.m.M.C.B.=.B ",
"V.n.t.w.w.O.y ( 1.*.9.} :.+.+.R c D c 9 @ + y 0 p p v v m c x m F 9 r - _.5XZ.m.y.7.} { R S Z h j 5 % e r.W ' T ^ K V V M G 8 # ",
"c N m j j k 6 6 p k ; = q & & @ W ;.*.;.r._ W W Y W Q Y V Y 0 * # 2 % s A c m n N B 5 < w & a r.6.=./ / W A S N c 5 4 4 > # +.'.",
": # k #.V.|.&X:X7XrXL.I 6 &   ) SXSXSXHXJXJXSXJXSXJXSXSXZXZX>XX.Q > ` CXSXVXZXVXVXrXt.c l ; Y.FXVXVXzXVXVXjX-X-X9X{ 6 * : ^.0X4X",
"9 *.G.4X7X#X*XqXjXaX=Xv.{ 4 % eXyXlXmXVXdXmXVXZXDXDXNXNXNXNXNXe.| D tXDXMXmXpX:X;XoX}.w.A F vXdX-X;X;X;X=X=X=XgX%Xu.G * s.8X<XH.",
"o.q.G.C.C.K.K.P.L.U.c.v.| 1 ) uX9X7XrX:X>XmXsXsXxXCXDXNXNXBXNX,X{ [ AX:X=X=X%X#X}. Xw.| T E bXjXrX:XaX:X*XOXOXOXOXb.M n 1XG._.(.",
"S S ^ ^ +.Q ! { } T [ ! v O i d.I.<X@X+X&X:X>X:XxXcXdXsXMXMXBX,Xv t.kX+X$XOXOXL.L.x.e...A #.wX9X&X+X+XOX XK.K.V.m.t.h 8.6XJ.~.^.",
"> * q & > t : * 6 j ! { a.a.W 6 # 1 y s B V Y V p V A v Y ! e.| + G x v j 8 9 x b c j 5 @ 8 #.R R / T A D A v V n 0 e %.+.o.z k ",
"H G n 9 6 f f 9.yXlXCXSXSXSXSXmXw.{ J 1 % .   ` _ ^ Y Y Q E a V h . 4 ` ;.) Y n k w . L iX1Xr.:.p 2 % + # 6 r : 2 6 a T A n 4 f ",
"i.p.8.q.$.q K 3X3X$X&X&X:XdXmX>X;XOXU.W w . _ PXJXJXHXGXGXHXHXDXDX{ s.UXIXFXvXhXR.C l KXLXAXAXCX Xj k q.d.^.a./.`.1X5X8X1X^.B 6 ",
"u.i.9.0./ u H H.~.Z.G.G.P. X X}..X}.OXu.u $ KXFXSXmXmXmXfXfXXX,Xv.j /.IXAXvXkXkX}.p d.IXbXwXuX7XD.h '.bX0XwX8XT.).G.F.V.p.9.B b ",
"i.4.6.} Q b ) d.H.H.H.H.F.G. X X%XoXoX}.v B KXaX-XOX$XOXv.!.!.! C = Y /.A.y.N...N % {.2X;.-.>.^ Q r '.bX0X0X_.Z.C.Z.G.i.p.i.E ^ ",
"~ N A M M 8 l _ *.;.i.i.A.F.S.L.c.c.w.X.5 @ x j j j j v v 8 1 ! Y Y Q &./ T p X u B _ Y Y v 0 6 *   ) 1XC.8.#.*./ +.( *.*.^ c E ",
"* u t q y t P w w q i l J M b h 9 9 9 Y :.e.V.%.N Z s 1 % # uXJXGXGXGXGXGXGX}.J AXFXSXFXCXCXlX-X&X.XD.X.c 8 # q # i < & e 6 6 M ",
"M (.5X7X&X#X5Xa.( B a y 2 2 3 % M { .XCXSXJXSXCXtX X3.r   iXPXHXZXDXMXMXmXXXc.r.FXaXpXsX;XpXfXsXdXsXmX>X>X}.{ , ^.eX6X(.(.`.).B.",
") z.G.).$X$XW.P.R.M.y.-.B r w q 0.8XrXjXjXjXaX:XlXaXK.5 ,.LXxXtXkXkXjX%X}.*Xc.! aXpXXXXX=X-XOXOXoXoX%XXX%XoXw.F 6XwX(.Z.(.A.B.2.",
"L %.>.-.3.y.y.n.t.b.l.t.} M > G 0.H. XU.F.@X XY.N.D.| h IXLX9XkXjXrX-X#X+XOXX.$ S ..x.w.t.N.x.!.w.b...X.| ..X.z A.p.=.O.@.O.L S ",
"J ( +.=.2.3.=.=.1.7.<.=.` 4 * 4 6 6 # - @ @ @ 5 & O   ^ `.(.I.M.C.N.....| R @ e % % 1 5 ~ R C c h h 7 5 ; 7 7 + h k i 2 & 2 q e ",
"# i w q q i r y q r 8 e 6 p ,.~._.1XG.H.Y.i.O.b X ` `.t.I k O - 8 M k h 0 3 P ( ~ u $ -.vXjX:XjX>X&X+X}.M.N.OX+X7X..5 . & t n N ",
"8.>.#.^ L E ^ / | { [ S t 9.5XkXkXcXcXvXcXVXlXc.O 8XPXPXLXvX7Xn.v # t B r.H. X0XI.>.> `.cX-XOXL.v.OX-X-XgX-X-XOXL.b.S < d s.^.~.",
"F.G.C.C.Z.R.<X|.$X}.c...m >.F.T.6X0X7X0XkX9X+Xb.. 1XvXxXcXAXFX0Xy.r J *.i.|.&X9X$XR 7 wXW.....x. ...X.X.X. .' ' v m q $ q ~ E Y ",
"6.6.6.0.6.y.y.m.t.x.c.t.K r G Z G M A R R R [ I 6 N v = 5 x 9 F C # . e > u p j j 5 + ( h 5 9 5 z 8 5 9 p 6 + v e.t.m.P.U.D.N.c.",
"o.$.o.o.' O.@.1.n.N.5.] p . * # q O . * . y H.yXZXVXlXyX7XD.D.H.D..X.Xr.O.* e uX9XjX-X&X|.|.U.U.L.D.m.B.W V @ i.xXzXaX-XgX-X&X#X",
"q & q e q r y n v h ; h {  X4X%XU.}.u.h # 1XFXZXZXVXDXSXSXHXHXHXSXVXVXfX-Xc ^.FXjXlXzXjXlXlXVXlXzX:X-X#X..x O A.].E. . .1.} D R ",
"S M y r k z : q % 9 y.9XCXlX:XsXpX%X}.N o ~ E ] } 8.9.2.;.a.N.u.D.x.F.m.e.= s.I.R [ ' R Q W [ ' D S A v R c 9 *...j b 7 h k y 2 ",
"C.Z.A.V.V.i.T 6 V ^.8X@XF.S.L.c.v.w.R 9 J n y - O # + # < = , - $ q @ @ % 3 l ; 6 = ; - 1 6 : * t $ # #.7XjX9X9X$X&X|. X4XV.9 d ",
"n.l.B.n.N.M.-.u 9.i.5.n.m.b.K.c.| m F wXuXbXwX<XA.a.[ + 4 / %.&... ...2.; 1XvX0X2X1X^.9.*.-.,.,._ + i B.<X@X5X*X*XqX$X}.E...j L ",
"E K K / ] W M * : M l m b N A N @ A 0XxXCXxXnXSXCXzXlXE % n ' #...1.r.E o &.&X5X.X0X0X4X`.~.p.a.) % w l B B M F M ; r 6 8 8 q % ",
"q w e t r ; r n S k 9 b h k & * H 6XrXcXjXkXcXjXjXaX=XX.+ / n.#.{ } W N p 9 5 - h z 8 m F F Z m C k k 8 : . i H b n H l K / 9.p.",
"u i # q G $.i.1X3X3X3XT.U.).o.z 5XjXjXcXhXjXjXjXjXjXXXX.= tXFXxXCXCXzXlXlX-X+Xv.e.9 q /.<X7X4X4X5X1X|.A.S r iXbX7X8X7X@X4X5X@X4X",
"K y 2 J q.(.I.F.Y.).T.R.U.4X{ 0 <X#X#X5XqX*X+X&X%X}.L.[ l ).*X*X*X9XjXjXdXpXsXsX:X:.6 #.3.l.n.M.M.M.V.y.D Z wXW.F.S.S.m.3.t.y.b.",
"D r w d T ] 6.z.n.B.z.C.l.5.c # l Z A [ R $.<.1.} 1.X.; X p =.A.Y.Y.<XL.D.D.E.x.x.R - M 1.1.1. . .1.] ' F S eXR.C.l.7.3.i.6.=.} ",
"J G K ~ G M B k c 9 y r l 6 = h n t w % 6 # # % 1 < M =.1.c 9 0 y D c N N v j r 6 # , $ q y h b c M z r = k ,.L E E D L S S M k ",
").1X1X5X1X(.Z.6.z w w M S / a.8X8X).d.%.$.G > > P %.|.CXxXkXC.#.n > l * $ ^.0XtXlX:X:X-X X../ G % + l r.8XA.b 3 q 3 % & w 3 3 3 ",
"Z.C.6.B.n.V.V.6.D k l ^.1X5X8X7X4X7X1X).~.V.~ $ %.i.4X&X=X9X9XT.V.p.*.a # bXjXOX%X=XpXpXpXdXaXc.> +.uXbX0X6X_.A.9.0.0.d.^.8.+.( ",
"q.0.0.0.0.0.n.t.| c V A.(.G._.(.`.).G.<X4X1X_ # *.V.4X#X#XOX+X$XR.].F.Q d [.L.P.K.L.L.L.L.L.+X..b iXwX6X~.(.[.[._.].[.].(.~.A.0.",
"<.7.4.7.3.2. ...3.S l z.C.Z.~.C.C.C.C.C.P.Y.] r a.8X3X].W.*XOX+X@X4X#X{ r d.{ / #.R o.$.^ N N b n iX6X`.].].`./.(.(.~.A.A.q.q.#.",
"T ^ S Z Z G M S j r t >.9.2.>.<.@.2.2.O.=.=.m ; z S O.] =.5.r.-.&.] | c o : = & 6 2 e 6 0 k 9 - - ,.0.#.%.8.q.r.q.q.0.0.q.8.o.k ",
": e w * : & : r N V 9 9 9 9 8 h 9 9 , r 9 = 8 ) ] j k 8 6 ; # + B ' | e.a.U.t.W n 2 3 ( / #.0.M.4.K r & : e i t u u u l n J u q ",
"l G ( ( %.*.;.p.#X7X7X+X*X&X&X*X&Xm.j ( p.Z.Y.7XjX9X7X}.a.^ # ) bXvXcXvXyXkXrX0XU.E l d.^.(.6X#X&X7X4XG.-.S K d d w w i u u d P ",
"M %.d.B.B.B.C.Z.N.S.M.M.C.S.S.K.L.C.F #./.Y.5X3X@X6X6XqX5Xr.% ^.hX_.R.P.N.m.N.S.w.S J {.`.T.)._.G.J.(.).P.B.8.@.i e P ) g.g ,.,.",
"q M L o.*.*.#.=.1.4.3.6.7.1.} ' ! T - # 6 y M ^ E O.t.2.@.N - O.7.8.-.] ] o.^ A N 6   y V m S K K A K n D K G n d U g k.k.g.) O.",
"l l z > 8 r t l n n m M n z z l r S / :.r.;.N m 8 w # ; F C @.z k k r k y t t q Z 9.*.E S r > : - 8 w * l y u l n g h.h.h.B 2 9 ",
"/.A.p.-.T a e q d u u a y w * d 2.4XyXkXrX+X+X}.] 4 1 /.tX:XrXS.@.D S T c k i n V.tXrX>XrX&X+X.X|.3.0 a H././.I.A.j.h.g.f.s.N 3 ",
"3.5.t.3.[ B u q G ) ( +.*.~ y H i.H.N.M.n.l.n.x.5.q u (._.R.L.|.4XI.Z.t.} W h T Y.qX5X#X*X-X&X*X$XK.c B A.y.y.n.j.h.g.9.0.f.Z k ",
"<.<.@.@.@.o.G i L #.#.1.1.O.k L G.V.t.n.B.B.w.w.x.D t p.P.J.E.M.x.b.t.x.y.=.9 >.P.3XT.I.J.J.P.I.P.C.l s 8.7.8.1.g.j.6...1.X.~ y ",
"$.O.O.] [ ' M e %.%.#.1.} #.m K ~.z.z.5.5.n. .3.w.{ q -.C.m.F.C.N.b.l...3.D 8 ) _._.C.C.G.V.C.M.K.V.n s o.3.-.} I !.+.&.] E s a ",
"F S E E A F l i H B S E A H e u 1.] ] E D D A o.^ v t t ' =.e.!...5.5.} c V u H l.C.C.C.H.p.V.C.B.#.w w F @.^ <.O.o.W K Z n n * "
};
