/* XPM */
static char *_0d7de01e82d4fe4d4f08773502437c6m0hM4xcp7ghWeloZ[] = {
/* columns rows colors chars-per-pixel */
"64 64 250 2 ",
"   c #FEFEFE",
".  c white",
"X  c #FDFDFD",
"o  c #F8F8F8",
"O  c gray99",
"+  c #DFDFDF",
"@  c #D5D5D5",
"#  c gray95",
"$  c #EEEEEE",
"%  c #F4F4F4",
"&  c gray97",
"*  c #F9F9F9",
"=  c gray98",
"-  c #FBFBFB",
";  c #F6F6F6",
":  c gray96",
">  c #ECECEC",
",  c #505050",
"<  c #252525",
"1  c #898989",
"2  c gray90",
"3  c #F3F3F3",
"4  c #BBBBBB",
"5  c gray4",
"6  c black",
"7  c #070707",
"8  c gray46",
"9  c gray91",
"0  c #C8C8C8",
"q  c #B4B4B4",
"w  c #E9E9E9",
"e  c gray94",
"r  c gray60",
"t  c #8B8B8B",
"y  c #EFEFEF",
"u  c #727272",
"i  c #1D1D1D",
"p  c gray6",
"a  c #A7A7A7",
"s  c #F1F1F1",
"d  c #8E8E8E",
"f  c #151515",
"g  c #979797",
"h  c gray88",
"j  c #868686",
"k  c #222222",
"l  c #202020",
"z  c gray69",
"x  c gray92",
"c  c #040404",
"v  c #111111",
"b  c #555555",
"n  c gray56",
"m  c gray68",
"M  c #A0A0A0",
"N  c #717171",
"B  c gray32",
"V  c #4E4E4E",
"C  c gray17",
"Z  c #010101",
"A  c #5A5A5A",
"S  c gray80",
"D  c #838383",
"F  c gray9",
"G  c #676767",
"H  c gray13",
"J  c #181818",
"K  c gray7",
"L  c gray2",
"P  c #1E1E1E",
"I  c #7E7E7E",
"U  c gray40",
"Y  c #9B9B9B",
"T  c #E1E1E1",
"R  c #313131",
"E  c #ACACAC",
"W  c gray27",
"Q  c gray21",
"!  c #131313",
"~  c #434343",
"^  c gray76",
"/  c #EAEAEA",
"(  c gray93",
")  c #3F3F3F",
"_  c #373737",
"`  c gray72",
"'  c #A2A2A2",
"]  c #2F2F2F",
"[  c #353535",
"{  c #515151",
"}  c gray28",
"|  c #090909",
" . c #494949",
".. c #4B4B4B",
"X. c #CBCBCB",
"o. c LightGray",
"O. c #BCBCBC",
"+. c #414141",
"@. c #AEAEAE",
"#. c #6F6F6F",
"$. c #2C2C2C",
"%. c gray49",
"&. c #E2E2E2",
"*. c #484848",
"=. c #767676",
"-. c #DADADA",
";. c #E7E7E7",
":. c #4C4C4C",
">. c #C1C1C1",
",. c gray89",
"<. c gainsboro",
"1. c gray47",
"2. c gray62",
"3. c gray82",
"4. c #323232",
"5. c #929292",
"6. c #CDCDCD",
"7. c DimGray",
"8. c #606060",
"9. c gray22",
"0. c gray",
"q. c #C6C6C6",
"w. c gray25",
"e. c #C3C3C3",
"r. c #161616",
"t. c gray23",
"y. c gray83",
"u. c #808080",
"i. c #020202",
"p. c #626262",
"a. c gray87",
"s. c #7C7C7C",
"d. c gray37",
"f. c #C5C5C5",
"g. c #3C3C3C",
"h. c #818181",
"j. c #565656",
"k. c gray10",
"l. c gray19",
"z. c gray35",
"x. c #6C6C6C",
"c. c gray48",
"v. c #0B0B0B",
"b. c #6A6A6A",
"n. c #444444",
"m. c #6D6D6D",
"M. c #747474",
"N. c gray39",
"B. c gray1",
"V. c gray34",
"C. c gray67",
"Z. c gray24",
"A. c #C0C0C0",
"S. c #1B1B1B",
"D. c #191919",
"F. c #909090",
"G. c gray81",
"H. c gray43",
"J. c gray8",
"K. c #343434",
"L. c #101010",
"P. c #B9B9B9",
"I. c #A5A5A5",
"U. c #797979",
"Y. c #8D8D8D",
"T. c #5B5B5B",
"R. c #393939",
"E. c #888888",
"W. c gray36",
"Q. c #7B7B7B",
"!. c gray86",
"~. c #AAAAAA",
"^. c #686868",
"/. c gray16",
"(. c gray84",
"). c #585858",
"_. c gray52",
"`. c #535353",
"'. c #A9A9A9",
"]. c #848484",
"[. c gray12",
"{. c gray18",
"}. c gray26",
"|. c #2D2D2D",
" X c #464646",
".X c gray66",
"XX c gray79",
"oX c #B6B6B6",
"OX c #777777",
"+X c gray71",
"@X c gray77",
"#X c gray58",
"$X c gray61",
"%X c #B2B2B2",
"&X c #E6E6E6",
"*X c gray38",
"=X c #3A3A3A",
"-X c gray59",
";X c #DDDDDD",
":X c gray42",
">X c gray20",
",X c #656565",
"<X c gray74",
"1X c gray31",
"2X c gray85",
"3X c #F9F8F9",
"4X c #939393",
"5X c #5D5D5D",
"6X c gray53",
"7X c gray30",
"8X c #646464",
"9X c gray73",
"0X c gray45",
"qX c #D8D8D8",
"wX c gray29",
"eX c #B7B7B7",
"rX c gray15",
"tX c #989898",
"yX c gray57",
"uX c gray50",
"iX c #B1B1B1",
"pX c #E4E4E4",
"aX c #A4A4A4",
"sX c #D7D7D7",
"dX c gray70",
"fX c #D2D2D2",
"gX c #0E0E0E",
"hX c gray78",
"jX c #9F9F9F",
"kX c gray55",
"lX c gray75",
"zX c #232323",
"xX c #CECECE",
"cX c #CACACA",
"vX c #9A9A9A",
"bX c gray33",
"nX c gray5",
"mX c gray3",
"MX c gray51",
"NX c #272727",
"BX c gray54",
"VX c #959595",
"CX c gray44",
"ZX c #060606",
"AX c gray63",
"SX c #D0D0D0",
"DX c gray14",
"FX c gray11",
"GX c gray64",
"HX c #9D9D9D",
/* pixels */
"  .   X X X .   X o     O X + @ # $ % & # * X * X O X .       . . X * X . = * & - X = ; % : - o O O - = O X X X .   O O = -   X ",
"= o O   X   .   .   . .   > , < 1 2 & = - ; = ; - O O = X X = * & = -   O O O * O   O = X & * 3 & = : : O . O 3 X X - -   =   O ",
"= * o X .   X X . . X X . 4 5 6 7 8 9 o * : ; X       - O . : 0 q w = O   O   = o & = * : * * * * O O O = X O 3 e - X -   O = = ",
"X   - * & = X X * = O   . r 6 6 6 5 t y -   - - O X   O O @ u i p a # o = * O   O - O - s o & = O = = *       * ; * - O . - X X ",
"O   = * - O - O X X     . d 6 6 6 6 f g > - X X = 3 : h j k 6 6 l z x = X - * =   .   O - - * &     X % - -   =   X o $ % % ; X ",
"O -   O O   O o ; X O & & t 6 6 f c 6 v b n m M N B V C Z 6 6 6 A S 3 o * - - X   X X O = - X X . - o & ; : & O   . . X * = y % ",
"  O .   .   . O o = -     D 6 F G H 6 6 J K L 6 P I U L 6 6 6 f Y T - . X X O * = s ; X - X X = . X & X   - X . . . . . .   X O ",
"X % = * . O O   X   - & * U 6 R E W 6 6 Q v 6 6 ! D R Z 6 6 6 ~ ^ / X   X O - * : ; ( *   - * o .   O O = o O X & O . . X X - : ",
"& - O ; - . X O X X O - y ) 6 _ ` ' _ ] [ 6 6 6 6 { } 6 | c 6 U @ # O O O - X   - & > $ * O   = X   - = O X O O & ( 3 * * ; = - ",
"X - O - o   X         . #  .6 ..X.w o.O.+.6 6 6 6 [ @.#.#.$.Z %.&.- = X * =     - & # ; = o X * - & O = * O & * O = & : ; o * X ",
"O - * - ; = X - X X X   e *.! =.-.o & ;.:.6 6 6 6 ] >.,.<.1.f 2.w *   O - o & % & = & o X : ; O X = X X = X O - O = = O X .   o ",
"- - % = * O X O   X O - 3.4.5.6.-.5.7.8.! 6 6 6 6 9.0.&.& q.4.@.> O     = ; = - X - - o O = * - O - o . O & & 3 O   O : & ;   = ",
"- X   . X X - X O .   . @.w.q.e., 6 6 6 6 6 6 6 6 r.t.B y.&.) g ( = = X X O = * X     = ; * X & = = X . X ; - o & * - O O 3 : O ",
"O O . .   O X - % 3 - . u.b ^ 9.6 v 4.| i.6 6 6 6 6 6 6 p.a.A s.w o & X X = =   . . - O = & O O ; *   X X   - = = o - = o o o o ",
"o # * .   O X O X O X o d.u f.g.6 J h.j.~ 6 6 6 6 k.! l.r.s.z.x.2 * o O   - X . . O =     % o O = & % # - * X O X X   = - ; X - ",
"* o - . .   X   = = O * A u.&.x.6 6 _ c.j.6 6 6 v.1.U b.7 < n.m.,.& = =   -   = % = y - O * - O O 3 O O = ; o - -   . * % * & - ",
"= 3 ; . . .   = O & & O M.N.,.n 6 6 6 B.L 6 6 6 7 t.w.f 6 V.W c.2 o o - . ; s o * - & ; - * o - X & : X O = O * o : ; - - X -   ",
"X * y ; .   . O - X   O C.Z.3.A.S.6 6 6 6 6 6 6 6 6 6 6 D.F.Z.=.6./ : O . . o - O o   .     O O o o = X   - O X o o = o o = O . ",
"    * 3 O . X = ; o = X + t.' G.H.J.6 6 6 P 4.K.! 6 6 L.8 P.Z.J.l Z.8.%.I.3.y & - & X . . O o o O *   - = X . X   X o * * = o - ",
"X = o = X . . O X X O X & 8.U.>.Y.G ! 6 6 K.A A < 6 i U.>.T f.d } ! T.z.w.R.B E.q.( * X . - - & % : = - * : O & = . X X * O * ; ",
"- - 3 % = O   = o o & - : W.Q.!.~.^.k 6 6 6 L c 6 6 /.A g / : $ (.).z.S 3.z _.`.[ ).'.!.# * o - - ; % o - & * # # .     O   .   ",
"O = = * ; % # - o o & * h g.Y o.' ].n.] [.{.}.l.P |. XU .X,.o - & XXn.oXx # > + q u _ z.0.e = O O X O = = o * O / : o ; * .   . ",
"= o * * * ; = o * *   . 0.9.P.+ 3.OXC.A.+XP.XX@XoXO.A.#X4 > o * 3 # $X%Xs O & # ( &X@X*X=X+X$ X & # = = *   X O & s = X O . * - ",
"= ;   * O   X O * O   . -X:.G.# $ (.;Xw $ / : : # e e y ;.3 = * 3 % $ &X# o * : & - ; ,.OXg.XX% = ; o ; O . X & =   - -   . O = ",
"- e s % : % = - X   . . N :X!.% X : $ ; & = . . . - * O = o ; X . = * o o - O O X   O : ;X`.7.&X& : o : e o - O : *   : O . - * ",
"O = = - - & : y o : . = z.u.,.o X - O * & e -   X -   - o * o : = .   = O .   s o X - ; = A.>Xq s o = o ; % & % ; 3 = % & .   O ",
"X e 3 e o * * o : w 3 ; b I 2 & : : * o = o * X   . . = * o X * ; . . = # X . = & o * O - # G ,X&X; o * O X = o o ; ; * 3 & & = ",
"  O * & = ; O O   o 3 = 8 W.-.( ; - % = = = . * y # O O * - .   % e o o ( # . - % O & e o = <X4.O.% = X = o ; : = * # * ; * ; & ",
"; # ; o - X O O X O 3 % E 9.e.# = - * - O ; X & & & # * & : 3 = * 3 # * o / 3 - o -   X * & ( 1Xc.> - = X & ; % = & - - * * = - ",
"$ # * - : &   O * & ; % 2X_ .X> * = o O * e 3 o & ; 3 ; = = y : - - - O - * # * O & 3 * = % o F.Z.@ ; O . = * = o * - O O * % o ",
"X = # o : $ 3X. X o - & > W 4X9 $ = y e ; # x o = * X   = & = - % o *   = o # O X - : o = ; = !.R.I.( o   O * - X O = :   & O X ",
"; * % e X * * .   O - * : 5X=.,.% ; ; % # % # e ; s - . = o - X o & o : * * : =     o o o ; % : x.,Xh y : = 3 # & * - & & - % ; ",
"& & o y $ y y . . * O = - 6X7Xo.% & ; & # : : % o : % ; - - & $ +X> # : - O : ; O   = 3 - - ; : a g.6.; X * o * ; o o * ; o o % ",
"s & # 3 o = &Xe & % = * ; ^ >XoXs * = ; 3 % ; o * # ; & * .   o.*.G.3 O   X & y x O - * - O - = (.=X' ;.; O = s * X O - o X X O ",
"* & : O X * ; w > e : & & ( 8XN.&.: : : & ; & % - ; -   ; * O 0./.9X3   ; = O = o o o = X X ; o % 8.0XT : o = % $ o o - * X 3 O ",
"X - X * : & & o * - - O X ; ^ 4.C.( : : : = # & o o x * & 3 X @.l q # X ; ; o o X & % : O X 3 : O r *.qX3 & - X = * - O o * : - ",
"x % % & : = o ; 3 O : ; O ; ;.8 wXy.s ; % & & * * = e e * o o OXR 4 x - - o : & ^ O.3 s $ o - ; & ^ 4.eXs e o O - ; : - = O e ; ",
"- O o & * O O X * ; o % = * * o._ n ;.# : : & & s 3 * o * ; S rXU.@ &X: O X s -XW.<X/ * * o O - & &Xw.tX$ o & - * = O O # : ; % ",
": X 3 ; *   X - * o X - ; : 3 # yX=XS : - * ; s = = = s & & uX>XiXpX    pXaX{ 1XoX!.w ; - o ; . X & N.H.pXo o o o * * = & : = - ",
"9 ( ; = o   = 3 * o X : y : % 3 T } I 2 = ; - % * O o : * & 7Xz.y.&.q.OX>XC #.>.T s o % o ; *   = - yX1XsX& o % X - * ; = s o ; ",
": 3 * o ( O O O O & -   & : ; y # aX9.^ # ; - * =   O & o pX|.U.C.z.l 4.=.dXy.w & = O = = ; - X X . q +.S > = o ; & * = = = - * ",
"3 o - . = X O O * # ( = * o = & * w , I T w M ;.= = % * & A.k ^.P R.1 +XfX&X3 O - * # & o y * . X . ^ ) XXs & & o * = ; - = ; O ",
"# y / 3 X O s : : o y e & & * : = * r } (.y.) eX9 : = & = 2.gXr.[ E y.9 s = X . X * 3 # o o = O % & hXW @Xy * = o o = % : - = O ",
"O o % $ =   - - = = X ; - = - s % & G.K.eX2X=XjX9 s & ; ; c.6 v kX6.T % X   . X o = = X * X O : % * @X+.0 3 * O = $ % o e O = * ",
"& = o : : * - & - % o * y = * : s y pX+.Y.y.g.Y 2 3 # % e V 6 B lX2 : & & O - % : & s & o y # ; - - ` ) X.e = O   - X - y ( *   ",
": o = s s e O * - & e o y 9 % : & % & x.U X.Z.-X9 : & = <.rXzX2.!.% % > ; O = o 3 ; o & = * O = = . ' } xX% O X o s e * & = ; X ",
"X = ; ; o y * ; * O ; & o ( ; o ; s * $X} e.=X1 2 & *   iX! c.S w O = * X   O o 3 % = & = o o   & . _.A @ % o * = - * O   = X   ",
"& - * & 3 o * 3 3 * * = % % : & * % : cX9.'.=Xd T # O e.4.Q P.<.pXx - * - O - = = ; # o O o 3 # & o d.1.h & * % = X = & & * X X ",
"= X O * & > : o = = * o o o % # $ o * &Xn.8 |.vX/ ;.' < 6 m.@ ; O : - ; / 9 s . X O O O * X X : 3 &X..Y.2 : % = o O - = = = - = ",
"# % 3 * O = = - X - o s ; X O : & & = % I i /.d h.1Xv.6 B.bX9X%   O * o * & $ ; X o 3 & o & 3 o - : :X7.&.& = = = 3 o & O O - - ",
"* ; 3 x ; * - * * X = O # o   & = ( : # +X5 J.J 6 6 6 6 6 Z S.G f.> s & ; 3 3 * * 3 ; O - & ; * # o Y  .qX; O * = = & e y * O O ",
"; ; & # # o = = ( & o O * ( * . X * - O oXv.6 6 6 6 6 6 6 6 6 6 C iXs = - * # * X * o   o o = = = pXW.{ (.: - & * o o : % : & - ",
"o 3 ; - * * : = 3 : % ; & ( 9 * O   O - jXi.6 6 6 6 5 nXmXL B.i.6 g.o.: o * : w & o e x 3 * = X 2 V 6 W.qX> ; = O - O O X X 3 # ",
"O o # ; ; : ; : O o ; * ; ; $ & * 3 : O MX6 6 6 6 NXMXr 4XBXu.=.I VXo.# % : - 3 & = ; o ; = - / N.6 6 1Xo.y o - o ; = * = .   - ",
"O X : 3 * - O * o % O * o - o s & o w yXk 6 6 6 6 d.0 &Xx pXpXqX<.pX9 % O X X - - O o # - O e CXB.6 6 V y.: - ; & # = * ( : O * ",
"- = - - - * . X O 3 = - * e ; s # = z | 6 6 6 6 6 z.y.y ; : 3 3 ; o * * - : # o : * % o * ;Xx.ZX6 6 6 ,X-.* X = ; e $ o * % : & ",
"- * : e = = = o - # #     * * - : = ' i.6 6 6 6 6 l ~.,.#   X O O ; ; o o & O X * s ,.9X1./.6 6 6 6 ! VX,.O X O & * o o o ; = = ",
"X = o % % / ; & * * = O o * = O * * ,.#.L.6 6 6 6 6 H j.I AXP.cX!.pX<.SXA.P.%XjX].d.l.nX6 6 6 6 6 L 8.^ w   X : = * = X * % %   ",
"= X = & o : ; = o o 3 : % - - X - o = g gX6 6 6 6 6 6 6 6 B.v.r.DX|.rXk.L.v.ZXi.6 6 6 6 6 6 6 6 K p.+X+ w x 3 & O - o   * o ; : ",
"; : = - O o ; - o = : o s > % 3 # $ 9Xk.6 6 6 6 6 6 6 6 6 6 6 6 6 6 6 6 6 6 6 6 6 6 6 6 6 6 v ~ Y.A.&.% o # o * - = % X - = o % ",
"o ; ; O O o ; O - - O * * o = - & 3 ,X6 6 6 6 6 6 6 6 6 6 6 6 6 6 6 6 6 6 6 6 6 6 6 6 nXC T.-XlXy.9 : & = o = & & o e & o y o ; ",
"* X 3 % O O O O = % : O ; $ / - O 3 I 6 6 6 6 B.FX5 6 6 6 6 6 6 6 6 6 6 6 6 c v rXW x.5.+XhX-.x % o & * O & : o 3 - * y = = % 3 ",
"X O - *   = - : ; o -   X * 3 # X : @ N ) n.1Xm.GX5.8.g.rXk.K v J.S.DX>XwXN.s.$XoXf.sX,.> e ;.$ e ; & O - o o % e & % & - = = = ",
"O - * &Xs *   o - & > = O = = &   = w @ S ^ xXqX+ &.(.xX4 C.HXY vXM C.O.XXfXfX2X/ ;.s - & = = o s = = o - = : & & = = * - = - X "
};
