/* XPM */
static char *_614001e3cc442839e72135ef977257181Lg9GDiU0k67Zke[] = {
/* columns rows colors chars-per-pixel */
"64 64 256 2 ",
"   c #372419",
".  c #5B3619",
"X  c #542E13",
"o  c #663A19",
"O  c #763C18",
"+  c #69360D",
"@  c #583A28",
"#  c #51392F",
"$  c #663B25",
"%  c #653D33",
"&  c #69431C",
"*  c #78481C",
"=  c #774712",
"-  c #594334",
";  c #5A4227",
":  c #694627",
">  c #784926",
",  c #7D5323",
"<  c #79542A",
"1  c #684B38",
"2  c #764B37",
"3  c #795736",
"4  c #6C5238",
"5  c #5E451C",
"6  c #564C46",
"7  c #665748",
"8  c #775945",
"9  c #6D554E",
"0  c #796957",
"q  c #716552",
"w  c #6B6967",
"e  c #7A7267",
"r  c #7C7D7B",
"t  c #777874",
"y  c #766D67",
"u  c #84491B",
"i  c #87531B",
"p  c #935211",
"a  c #B76C18",
"s  c #BA7419",
"d  c #B4680B",
"f  c #854B26",
"g  c #845324",
"h  c #89572A",
"j  c #965928",
"k  c #885837",
"l  c #965B34",
"z  c #884B30",
"x  c #A25D2C",
"c  c #8D6539",
"v  c #996637",
"b  c #986B33",
"n  c #A56529",
"m  c #A66737",
"M  c #A97539",
"N  c #B67539",
"B  c #B6712B",
"V  c #985E0F",
"C  c #CA7608",
"Z  c #D77A0A",
"A  c #C87818",
"S  c #D67D15",
"D  c #C26E0B",
"F  c #E27C09",
"G  c #C77B27",
"H  c #C47638",
"J  c #CB7630",
"K  c #975C44",
"L  c #875645",
"P  c #886545",
"I  c #986846",
"U  c #997648",
"Y  c #866957",
"T  c #877458",
"R  c #957759",
"E  c #956B53",
"W  c #A76A46",
"Q  c #A77747",
"!  c #B87746",
"~  c #A77957",
"^  c #B07050",
"/  c #887967",
"(  c #937B67",
")  c #847B72",
"_  c #8A736D",
"`  c #A97C66",
"'  c #C77A46",
"]  c #C47951",
"[  c #CC7647",
"{  c #913F27",
"}  c #7F817A",
"|  c #B8843B",
" . c #DB810D",
".. c #CC811B",
"X. c #D78219",
"o. c #EA850A",
"O. c #F38D13",
"+. c #ED8F15",
"@. c #CA862A",
"#. c #D88625",
"$. c #D58D38",
"%. c #EC962B",
"&. c #EB952C",
"*. c #FBA21A",
"=. c #B58546",
"-. c #B88757",
";. c #AE8A54",
":. c #8B826B",
">. c #97846A",
",. c #83837D",
"<. c #8B8679",
"1. c #938B7B",
"2. c #978876",
"3. c #9A917D",
"4. c #8C917F",
"5. c #A58A6B",
"6. c #B78B66",
"7. c #A68D77",
"8. c #A89478",
"9. c #B59878",
"0. c #B2936C",
"q. c #B5A378",
"w. c #C98949",
"e. c #D4884B",
"r. c #C78856",
"t. c #C7995B",
"y. c #D89859",
"u. c #D0914C",
"i. c #E59A4C",
"p. c #C79765",
"a. c #C8966F",
"s. c #CCA465",
"d. c #C9A47A",
"f. c #D9A56B",
"g. c #E6A559",
"h. c #7B7F80",
"j. c #847F83",
"k. c #7F8384",
"l. c #848583",
"z. c #8B8B84",
"x. c #8D8D8A",
"c. c #878785",
"v. c #948E85",
"b. c #8E9188",
"n. c #93938C",
"m. c #9B9A8D",
"M. c #999586",
"N. c #959592",
"B. c #9A9B94",
"V. c #9C9D9A",
"C. c #969996",
"Z. c #8D9194",
"A. c #A39C8C",
"S. c #A79786",
"D. c #B39D83",
"F. c #A29B91",
"G. c #AC958C",
"H. c #9FA198",
"J. c #B8A487",
"K. c #A3A194",
"L. c #A3A49D",
"P. c #ABAA9C",
"I. c #AAA697",
"U. c #B6AA98",
"Y. c #BAB39E",
"T. c #AEA68C",
"R. c #9A9CA3",
"E. c #A5A5A2",
"W. c #ABABA4",
"Q. c #ADADA9",
"!. c #A7A8A5",
"~. c #B2ADA5",
"^. c #AFB1A9",
"/. c #B4B2A4",
"(. c #B2B2AC",
"). c #BCBAAC",
"_. c #BAB7A7",
"`. c #AEB5B3",
"'. c #B5B5B3",
"]. c #BABBB4",
"[. c #BDBDB9",
"{. c #B7B9B4",
"}. c #AFADB1",
"|. c #A3A0A2",
" X c #D4B98D",
".X c #C6B597",
"XX c #D5BB97",
"oX c #C8AF8D",
"OX c #C3BCAB",
"+X c #C5BAA4",
"@X c #C2BEB3",
"#X c #D4BDA3",
"$X c #E5BA97",
"%X c #BEC1B8",
"&X c #DAC39A",
"*X c #EBCA99",
"=X c #F2CC99",
"-X c #CBC2AC",
";X c #D7C6A7",
":X c #CAC5B3",
">X c #C3C4BD",
",X c #CBCABD",
"<X c #C8C7B7",
"1X c #D2CDBB",
"2X c #D8CBB4",
"3X c #DBD4BC",
"4X c #D7D1BA",
"5X c #DDD1AC",
"6X c #E5CBA6",
"7X c #F5D4A8",
"8X c #E6D6B9",
"9X c #EDD4B2",
"0X c #F7E2BD",
"qX c #CACBC4",
"wX c #C8C9C5",
"eX c #D3CCC4",
"rX c #CCD2C6",
"tX c #DBD5C1",
"yX c #D3D3CD",
"uX c #D9D7C7",
"iX c #DBDBD4",
"pX c #DDDDDA",
"aX c #D7D6D4",
"sX c #CECFD3",
"dX c #E7DCC6",
"fX c #E9DAD1",
"gX c #DEE2D8",
"hX c #DDE3CE",
"jX c #ECE3CC",
"kX c #E7E3CB",
"lX c #F5E7CA",
"zX c #E3E4DB",
"xX c #EAE7D7",
"cX c #F2EBD5",
"vX c #F3ECDB",
"bX c #F9ECD5",
"nX c #F5F2DD",
"mX c #FBF3DA",
"MX c #DBE1E3",
"NX c #ECECE2",
"BX c #E6E8E3",
"VX c #EBF2E8",
"CX c #F3F3E4",
"ZX c #FBF5E2",
"AX c #FDFAE4",
"SX c #F3F4EB",
"DX c #FDFCEC",
"FX c #F8FAEB",
"GX c #F5F4F3",
"HX c #FDFDF4",
"JX c #F6FEFD",
"KX c #FDFDFC",
"LX c #F8F9F3",
"PX c #F1F0EF",
"IX c #E7DAE1",
"UX c #BDBCC1",
/* pixels */
"T / :.:.>.>.>.5.5.8.9.J.T..XJ.oXoX X X XXX6X;X8X8X5X9X7X7X9X9X8X8XlX8X8XlXlXjXjXxXvXjXdXdXdXaXMXhXaXqXwXwXwXwXUX{.'.Q.(.'.W.E.L.",
"/ / :.( >.>.>.5.5.8.9.J.U..XoXXXoX XXXXXXX;X8X;XlXdX9X7X7X9X0X0XbXlXjXdXbXdXcXvXcXvXjXdXdXjXxXzXpXyXqXyXyXqXwX>X%X^.Q.(.!.E.!.V.",
":.<.:.>.>.5.5.5.8.8.J.J..X.X.XXXXXXX;X&X5X6X8X8XjXjX9X0X0X0XlXlXbXvXvXZXmXZXvXZXmXZXvXcXcXcXxXzXBXpXyXaXyX,X<XOX@XQ.Q.}.Q.!.!.R.",
"<.1.2.>.5.5.5.7.8.9.J.J..X.X.X&XXXXX6X5X;X8X8X8XcXcXdXlXlXbXbXbXmXZXDXxXnXZXvXZXZXCXCXCXvXxXxXNXBXzXpXpXyXyXuX1X3X4X1X:X1XOXK.P.",
",.<.2.>.5.5.5.7.8.D.9.0.oXXX;X;X;X;X;X8X9X8XlX8XnXnXbXmXmXmXbXmXmXAXZXvXDXDXnXAXHXSXSXVXNXxXNXVXzXzXgXaXyXaXzXzXsXpXpXaXpXwXE.B.",
":.<.2.2.7.7.7.8.8.D.0.5.J.#X;X;XXX;X9.J.lX8XlXlXnXnXnXnXmXmXcXZXAXDXCXHXAXnX4XfXHXLXLXSXCXFXVXgXNXgXgXzXyXyXBXNXV.h.V.sXiX[.H.P.",
":.2.1.3.S.8.8.9.D.J.0.;.9.XX-X2X6X9X8.5.lXjXlXbXDXDXDXZXAXZXnXAXHXHXHXKXHXDXHXHXKXHXHXDXZXAXDXSXNXzXzXzXaXuXxXxXBXaXBXpXaXwXV.w ",
":.2.1.M.M.8.8.9.9.d.6.6.d.;X#X4X6XXXJ.D.;X2X;X3X1XuXtXtXkXtXuXdXaXpXpXBXqXaXzXaXpXyXeXtX2X2XxXSXVXBXzXgXeX1X3X:X2X-X-X+X+XY._ 1 ",
"( 2.3.3.T.G.D.D.9.oXp.-.d.&X;X5X8X;.d d C.m.t Q.t n.N.z.!.,.!.N.N.E.c.!.l.V.V.x.!.x.!.n.d d &XLXNXzXzXzXzXwXwXqX).%X`.Q.`.Z.q I ",
":.2.3.0 e / / J.1X#Xa.-.d.;X2XtX2XU d B B.L.N.}.z.L.L.B.'.n.'.V.E.(.V.'.N.E.Q.V.'.C.}.M.a d &XJXBXBXzXzXgXwXqXyXE.].'.U.F.w ( b ",
"2.2.3./ / e T J.-XXXd.p.d.;X;X8X+Xb A a } ,.t c.w l.r t N.t x.r l.x.t N.t c.z.t n.r z.y a d &XKXCXVXBXzXpXwXqXqX].wX{.@X) e G.T ",
"2.1.1.M.K.I.+XU.oXoX XoX;X5X9X9XS.b A a z.n.t |.t N.x.l.V.l.V.x.x.V.l.!.r N.N.z.H.l.N.e s d &XJXCXNXxXgXzXaXaXyX<X%X`.e Y ( 0 ( ",
"v.1.6 7 ) 7 0 U.fXdXdX3XkXjXjXdXM.M C s L.Q.x.'.z.E.!.V.'.V.'.E.!.].V.[.N.(.Q.L.].C.}.b.A d 6XLXCXVXxXgXzXpXpXaXyX_.q 2 ~ M M I ",
"1.1.1.<.m.v.S..X,XOX;XXX9XdXjXkXS.M C s c.z.t n.t c.x.l.V.,.B.z.x.B.,.V.r x.n.,.B.k.x.y A D &XKXCXCXxXgXzXaXaXaXsX( c ~ m m M b ",
"M.M.m.1.P.P.A.+X:X.X&X X&X;X8X8XA.M C G l.c.n.{.N.z.z.l.V.r B.z.x.B.l.V.} b.n.,.N.l.l.w A A XXKXNXNXzXgXzXaXgXgXqXR =.=.-.I I I ",
"1.A.M.q q q e U.2X.X;X;X2X2X8X0XK.=.C G L.W.qXHXyX(.E.V.[.B.{.!.!.].V.%XC.(.Q.L.[.C.W.m.A C 6XKXFXCXxXzXxXgXzXpX/.k B m M =.Q ^ ",
"1.A.K.K.I.Y..X.X-X+X#X;X2XdXdXlXI.M S s v.v.].LX,Xx.N.x.!.x.!.n.B.!.x.Q.l.L.V.x.W.l.B.,.A C *XKXJXCXxXCXNXNXBXW./ G.d.-.;.U , 8 ",
"M.A.K.I.U.Y.+X+X-X-X;X;X8XdXjXbXP.=.S s F.K.,XFXaX!.L.l.N.t C.z.x.n.r n.r c.x.r x.t l.w G C *XKXLXJXGXVXBX'.y 0 / v.( 7.F.S.0 e ",
"3.M.A.I.Y._.+XOX:X-X;X2X8XdXjXbXI.=.Z @.vXCXFXCXFXHXKX[.].L.>X!.Q.[.!.wXV.(.^.!.].V.Q.z.#.C *XKXHXSXHXiX>.3 I Q ~ E P 4 6 6 4 - ",
"3.M.A.I._.OXOX:X:X-X;X2X8XjXjXmXY.;.Z s xXCXFXDXHXHXSX(.'.B.'.!.L.].V.[.n.Q.!.B.(.x.L.1.A C =XKXDXHXtXT ^ y.y.r.[ M m Q % % k I ",
"A.A.I.U.).OXOX-X:X:X2X2XdXjXcXmX/.;.S a iXBXiXVXiXSXNXB.n.} B.c.b.B.} N.r z.v.t n.t ,.y S Z *XKXJXKXU.;.y.e.] Q m ! M m L L l c ",
"A.I.I./.).OXOX-X,X:X2X3XdXxXcXmX).-.S p N.n.r L.n.L.W.V.%X!.[.(.(.[.!.wXL.Q.Q.L.].V.!.1.#.Z *XKXJXZX9.r.e.e.m ^ ! Q M m ` I l c ",
"m.I.P./.).OX-X-X1X2X3X8XdXxXbXAX).-.C V C.E.x.W.l.!.{.!.%X!.>X(.Q.>X!.wXB.(.W.L.[.C.(.M.#.Z =XKXKX8XM y.e.! m ! v l l k P E l z ",
"m.P././.OX-X-X-X1X4X8X8XkXcXnXAX%Xt.C V t t w ,.w r x.z.L.c.H.N.(.].N.L.z.(.(.z.N.t ,.y #. .=XKXJX2X6.p.a.` ~ a.p.6.` 8 _ 8 $ : ",
"m.P.~._._.:X:X:XtX4X3X8XkXlXAXAX%Xp.C V Z.R.c.!.} E.!.L.qXL.>X).LXHXqX%X/.LXKX(.'.C.L.v.X.Z 7XKXJX#X6.7.Y Y Y G.<X( R T Y ~ k 6 ",
"M.L.P._.).:X:X:X1XtX8X8XjXmXAXAX).s.o.@.C.E.x.^.,.(.].^.qX(.qX].VXKXeX>X`.KXHX@X[.H.{.m.X.o.*XKXHXa.' ! ^ ! ! W _.I N ! ! N , - ",
"B.P.~.).OX:X:X:XtXuX3X8XjXmXAXDX:Xt.o.#.b.n.z.L.<.A.I.P.[.!.'.Q.GXJXqX~.!.CXlX'.!.b.c.) X.Z 7XJXfX6.' W ^ ! W ` U.I W I W l : 1 ",
"K.W./.).).<X:X,X1XtX3XkXbXAXnXDX,Xt.o.%.xXCXGXGXvXvXcXvXHXGXLXLXJXLXKXKXlX*.*.lXKXrXB.1.#.Z 7XLXOX^ [ ] ] ! l 6.J.M M c W v k g ",
"K.W./.).).<X<XeX1XtX4X3XjXAXCXDXrXt.o.&.nXHXKXKXZXDXDXHXKXKXKXKXKXJXJXJXlX*.*.lXKXrX(.F.&.o.=XKX2X^ [ ] W ^ l ` 7.m N M H x z f ",
"K.W./.].:X<X<XeXtXdXtX3XkXDXAXDX>Xs.O.%.ZXHXSXLXxXcXxXCXKXLXGXKXJXHXHXJXlX*.*.lXKX,Xm.,.X.o.7XHXa.] y.r.r.] ] 6.0 3 3 3 < : 4 k ",
"L.W.W.).>X,X,XeX1XtXdXxXcXDXCXFX>Xs.o.%.AXHX].W.M.K.~.zXKXaX[.].GXKXLXKXpXI.S.gXKXrXn.<.&.O.=X@XT.XX6XoXq.0.0.q.R 9 # # # 7 Y ` ",
"K.L.L./.).<X,XeXtX:X1XkXkXZXCXHXrXs.O.%.ZXDX{.^.B.W.{.zXKXpXqXwXPXJXJXKXIX{.`.IXKXyX{.F.&.o.p.) P E K I v ] [ m x K W m k k v K ",
"B.L.I.1.A.-X,X,XuX1X-XtXdXAXDXHX,Xs.o.%.AXHX(.L.,.L.W.aXKXaXW.%XGXKXKXLXzX!.L.aXJXqXR.4.X.+.' E I I I K I ^ W m I l l k z m m v ",
"P.K.P._.I.A.).<XuXuXtXjX1XnXDXHXrXs.o.%.AXHXL.c.B.qXaXGXKXBXpXqX%XwXpXKXpXn.z.gXKXxXsX1X%.+.N E ^ I I K z z k z v N m l k j l v ",
"K./.I./.OX_.@X<XrXuXkXdX1XkXDXHX<Xt.O.%.CXHX].[.[.KXKXKXKXLXKXLXwXqXaXLXzX>X(.pXJXLXKXAX%.O.H ~ ^ ^ ` W E K K I W W j l W v x b ",
"m.m.I.A.A.OX<X:XrXuXuX:X1XuXCXDX,Xs.O.%.ZXHX[.^.Q.KXKXKXKXKXKXLX[.[.aXKXBX].!.gXJXHXHXbX+.O.H ~ H H H H H N N B h n j z l j h f ",
"v.,.A././._.U./.qXtXtX1X:XkXAXCX,Xs.o.%.DXHXyX[.'.wXqX>XaX>X'.W.L.B.qXKXaXN.b.aXHXAXHXmX%.+.f.9X7X6X*X7X$XoX0.R _ 1 @ % Y ` ~ U ",
"<.1.) 1.K.K.P._.,XuXkXcX_.dXjX-X'.s.O.%.ZXHXKXKXpXW.!.B.>Xc.w w %X[.gXHXzX[.^.aXKXDXHXcX%.X.y. X4X+XS.7.7.( q 9 <.8 1 1 7 8 8 8 ",
") 1.M.M.1.A.OXY.P.OX4XjXY.3XdX-X(.t.o.%.nXHXHXKXpXL.W.!.yXz.w w wX>XzXKXBX>XQ.gXLXDXJXnX%.o.i.y.y.' ' e.[ [ ! x k W W m l m n j ",
"1.<.1.<.1.A.A.A.Y._.OX+XY.+X2X8X).t.o.%.CXHXHXKXBX!.^.z.C.z.V.B.L.n.(.BX[.N.,.aXKXDXSXZX%.o.i.i.w.r.w.H H H ! m k m n m m j h k ",
"<.M.v.:.M.M.P.Y.U.U.4X-XY.2X:XY.M.=.O.%.nXDXHXDXKXKXKX>XW.>XKXGX%X{.B.(.B.W.L.iXHXDXFXlX&.o.&.g.f.-.! ! W m m v l m m m j j l l ",
") <.M.K.K.M.A.:X:X-X1XdXY.4XtXtX<.=.+.&.CXHXFXHXHXKXKX%X[.qXGXSX>X%XH.wXL.(.L.zXKXFXHXcX%.+.&.i.f.r.n m m f f f W l l j l v l g ",
"1.M.M.A.I.U.M.M./.uX1XjX+XdXkXvX).=.o.&.hXxXNXHXHXLXLXQ.n.'.KXGX'.!.c.V.z.z.x.wXSXxXHXdX&.+.$.y.a.^ z z L k k E 9.k z $ $ . @ % ",
"<.1.M.m.A.I.P.).%X,XuX3X_.jXZX).t M +...4.v.yXHXHXHXHX(.B.'.KXKXGXGX'.L.n.H.x.c.m.P.DXlX&.S w.a.8.T.S.J.G.( 0.9.1.9 #   # / :.T ",
"M.v.1.M.I.F.I.P.(.,X<XtXA.4XU.:.:.=.+...B.F.yXHXDXFXHX>X(.wXKXKXKXKXwX>XL.[.L.n.Q./.DXdX&.X.u.a.t.~ ~ -.r.r.w.' W v I ~ E L 2 L ",
") z.M.v.M.m./.~.P.@X,X:X+XS.( 7.K.-.o...b.l.].DXFXHXFXW.z.W.KXGXKXLX].!.c.n.z.} c.E.JXjX#. .$.f.i.e.H u.w.M | m m v v l v c c b ",
"z.z.v.M.M.F._.<X1X@X@XeX_.J.oXoXM.M F #.wXyXQ.B.L.HXFXK.n.c.!.L.NXKXVXgXzXNXzXb.l.H.VXjX&. .$.u.e.N N N ! ! N m n n j h I E > > ",
",.,.m.~.W.~.I./.).:X%XuXU..X Xa.M.M o.#.NXLXW.m.H.FXFX).(.b.!.!.CXHXHXHXHXHXHX].H./.VXdX#.S $.r.W ^ ! N ! ! N m m m h h P ` > h ",
"l.z.B.!.^.].{.W.).:X<XY.<.Y.d.d.R M X.#.hXNXR.c.m.CXFXP.B.,.N.B.GXFXFXHXDXFXVXI.l.L.VXdX#.X.B M j 2 > u f * O f * > & $ 8 R : < ",
"v.v.z.m.M.W././.{.,XE.- 2..Xf.r.E M Z #.dXxXN.e z.SXCXb.r w c.t L.{.C.L./.FXNX-X_._.xXdX#...M ( 5.) 8.7.8.8..X9.9.8.( 8 _ ( # @ ",
"1.M.m.K.m.P./.).%X3.# 1 0 :.P U 8 b X.#.iXxXQ.B.L.NXNX{.'.C.Q.n.4.L.j.E.B.cXjXbXnXuXzXtX#...t.XXoX.XJ.9.0.0.5.;./ 7 1 @ @ - # # ",
"c.b.B.m.H.B./.(.A.4 1.8.>.T 3 3 : i S @.uXgX!.b.n.gXxXP.C.z.L.} l.Z.,.n.C.VXcXdXfX3XuX1X#.A G G e.r.b n n M M N : & > l * o o . ",
"t r x.v.P.K.K.n.# < T.( O f j m > V  .#.4XuX'.L.Q.zXNXn.r c.{.W.~.!.5.B 0.BXxX2X2X2XuX4X@.A $.i.$.r.y.u.y.u.t.B > j j x j j > > ",
"6 6 6 # - - - # > j 0 Y u { l j o i S @.,XpXpXgXxXkXhXP.K./.vXnXZXPXf.o.i.xXMXjXpXaXsX1X#.C @.u.@.! w.w.w.| =.M l j x p j i > * ",
"  @ 4 . o & & > j p T 2.u z > h $ u A @.rXfXiXiXgXgXgX!.R.`.VXBXgXPXf.Z i.zXMXhXgXiXyX2X#.C @.e.u.Q =.u.t.=.M w.I g x j i = g > ",
"X o I * g i p j l p R G.O > f u o i Z A .XoX X X X&XXX5.R 5.7XXX&X;Xi.F u.XXXXXX X XoXU.G A G J N o h j m b M x U v M M m m l j ",
"X o k o + + O + u > :.U.f = O u % = A C A D C Z Z Z Z Z  . .Z  .Z Z S X.X.S Z C Z C A s D A g     1 : 1 7 2 % @ 8 T E P U R R R ",
") e ) ) 2.:./ S.D.OX/.I.5.0.G.oX3 i s s A ....A A A ..#.#....... .X.X.X.X.X.X.A A A A A A s =.-   3 k > o & o & X o o O > > 2 3 ",
"e e e ) <.v.M.<.S.( T Y k R T.8.= p a a a A s G A A A A A A A A A @.A A A A s B B a s a a a =.I > m N m j i u * > * u f h g * & ",
"7 / 9 0 T 8 8 3 4 < u > O < 7.Q : & 5 & & , : 7 , , , , , h h g h , g h g , < . 1 : o . . o < P P ! ' N j p j z g g u u h h , o ",
"7 / 0 q q @ : : 2 < f 2 $ 1 3.Q + & & : * * & q * * , , , g h g g g , g h , o X # : + $ $ o l l 7 > u j j j j u = u u O + O > : ",
"7 7 q @ @ : : X > 3 + @ 2 2 / ~ * & o $ & = : Y , * , , * * g g = , , * g < : 8 6 ; . X X : v k : g n N M n B n n n j j h g h l ",
"4 1 1 X : > X X + : * o + > M.~ X X o $ o . ; e < o o > * * * * i * g g = + & : #   . & & v v c ;.-.y.t.p.-.r.-.Q Q Q M Q b c c ",
"4 4 4 8 4 1 1 @ . ; * : f k K.J.U c c c I P T 2.k : : c I c h * > < : : P 4 X # w #   - . $ . - ) 2.7.8.I.T.D.2.7.8.5.( R R P 3 "
};
