/* XPM */
static char *_6bd3b668bcb48cde1e58cea1f3e19f3LkgL1RjUNMeMaons[] = {
/* columns rows colors chars-per-pixel */
"50 50 140 2 ",
"   c #3F362D",
".  c #3F3830",
"X  c #4D463D",
"o  c #555146",
"O  c #56534C",
"+  c #59554C",
"@  c #5F5B4D",
"#  c #595752",
"$  c #5C5B54",
"%  c #5F5E59",
"&  c #625E55",
"*  c #615E58",
"=  c #656156",
"-  c #686055",
";  c #65635B",
":  c #6A665C",
">  c #67695D",
",  c #6B695E",
"<  c #716555",
"1  c #726A5E",
"2  c #786859",
"3  c #656562",
"4  c #6B6761",
"5  c #676862",
"6  c #6D6B64",
"7  c #6E6E6A",
"8  c #716D65",
"9  c #796F66",
"0  c #716F69",
"q  c #6F706B",
"w  c #737066",
"e  c #7E7764",
"r  c #74736C",
"t  c #79756E",
"y  c #7E796D",
"u  c #7C796E",
"i  c gray44",
"p  c #717370",
"a  c #727270",
"s  c #737371",
"d  c #727471",
"f  c #737572",
"g  c #757470",
"h  c #747570",
"j  c #767570",
"k  c #767571",
"l  c #757670",
"z  c #747770",
"x  c #757671",
"c  c #777671",
"v  c #767771",
"b  c #747472",
"n  c #757573",
"m  c #757772",
"M  c #777672",
"N  c #767772",
"B  c gray46",
"V  c #777674",
"C  c #777775",
"Z  c #777777",
"A  c #767571",
"S  c #787570",
"D  c #7B7670",
"F  c #7A7770",
"G  c #787772",
"H  c #787773",
"J  c #7C7771",
"K  c #797772",
"L  c #777873",
"P  c #777A73",
"I  c #777872",
"U  c #787870",
"Y  c #787971",
"T  c #797971",
"R  c #7B7871",
"E  c #797873",
"W  c #7B7B73",
"Q  c #7D7872",
"!  c #7C7972",
"~  c #7D7A73",
"^  c #787974",
"/  c #7A7974",
"(  c #7A7975",
")  c #797A74",
"_  c #797A75",
"`  c #7B7A75",
"'  c #7A7B75",
"]  c #787876",
"[  c #797876",
"{  c #7A7B76",
"}  c #7C7B76",
"|  c #7B7C74",
" . c #7C7D75",
".. c #7D7C77",
"X. c #7E7E76",
"o. c #7A7A74",
"O. c #797778",
"+. c #797979",
"@. c #7B7B79",
"#. c #7E7D78",
"$. c #7D7E78",
"%. c #7F7E79",
"&. c #7E7F79",
"*. c #7C7C7A",
"=. c #7D7D7A",
"-. c #827763",
";. c #897D6F",
":. c #827C70",
">. c #837F73",
",. c #847C71",
"<. c #877D71",
"1. c #817D75",
"2. c #827E7B",
"3. c #817F7A",
"4. c #7F807A",
"5. c #7E807B",
"6. c #848074",
"7. c #868275",
"8. c #888171",
"9. c #888075",
"0. c #898176",
"q. c #898377",
"w. c #8D8475",
"e. c #8A8275",
"r. c #81807B",
"t. c #83807B",
"y. c #83827E",
"u. c #84837E",
"i. c #81827D",
"p. c #8D8578",
"a. c #8A847B",
"s. c #928A7B",
"d. c #7F8180",
"f. c #848582",
"g. c #898480",
"h. c #898681",
"j. c #8A8782",
"k. c #878884",
"l. c #898B86",
"z. c #868789",
/* pixels */
"6 4 6 w 8 u 8 8 8 w w w 4 8 4 4 8 , X > 4 0 6 6 4 6 4 6 8 8 u 6 8 8 w r r 4 8 8 8 8 , X : 4 r 4 4 6 ",
"! t ' j w 8 6 r w r r r r r 8 w r 4 O w r r r w r J F ' U w 8 4 r w j r j r w 8 0 r 4 O 0 r r j r U ",
"r r r U r 2.6 r r w r r H 7 r r r , O w r r r r r r u U U r t.4 r r w r j F 7 r w r 4 + w r r r r U ",
"j r r r U j 4 w r r r r w q w w 6 6 O w r F r r r U r u r U U 4 w j r w j r 0 w r 6 6 O w r F j j U ",
"r j &.r j w ; r w r r j w ! r r 6 6 O w j j r j r r j 4.r j r ; r r r r j w ' r w 7 6 + w j r r j U ",
"} r ' r 0  .6 j C j r F 0 8 8 w 0 6 + r r r F j r ' r ' r 7  .6 j j r r t q 8 4 w w 6 + r r r F r U ",
"&.U r  .0 8 4 u r ! r ; 2 1 & ; y y : t r ! F r h.&.' j  .8 8 4 t r U w : 2 8 & ; y y : r r U F r h.",
"r r s r 7 7 7 7 7 j r 4 8 w r 0 6 r 0 r j r r ' 8 r r r r 6 7 7 7 r j q 4 8 w w 0 6 r 0 r r w r ' r ",
"' 7 r s q 7 7 j 7 s q w @ r 8 ! j r F j U U r ' r ' 7 s s r 7 7 j 7 s r w + r 0 U j r j j F F r ' j ",
"j 7 d r j ' 7 7 L r 6 r 8 8 t 0 r F ' r j r r j r ' 7 j s C C r 7 j r 7 0 8 8 r 0 j F F r j r r j j ",
"s 7 C d r +.r j j 7 6 ; 8 6 w 6 r U j F j U j r r s 7 j j r j r j j 8 6 ; 8 6 0 6 r U j F j ' r r U ",
"&.7 ' r 7 6 6 0 5 7 7 0 9 0 r U j U &.} j ' r.0 U +.w I r 7 6 6 w > 6 7 r 9 0 r t j U ' { j ' r.0 u.",
"e 8.w.& 8 o : e y >.,.q.;.r y ! & 4 & 4 + * % > 0 e q.p.@ 8 o , e y 6.>.q.,.r y U & 4 - 4 + * % : 8 ",
" .w w r 6 > r w I w r r r 2.j U r r & 4 r F j F j  .w r r 6 > r w U w w r r 2.j U r r & 6 r j j F U ",
"r t.0 r 8 8 w r r r I r U r r r r w & U w r r r r r 1.r r 8 0 w r r r U r U r j r r w & U 0 r j r U ",
"j 8 r F 8 6 6 r r Y r w w r r r r j & H r r r w r r 8 r t 6 0 6 r r U r w w r r r r j & H j j r w j ",
"r 6 r 0 8 4 > 4 j j r r r r U r r ' $ 6 r 0 r &.' r 6 r 8 8 6 > 6 j j r r r r ' r j ' & 7 r w j ' &.",
"w r w r 6 6 > r j ' U r r ' ' r r w = 7 0 w j r r r r r 8 6 6 > r F ' ' j j U ' j j w & 7 w r F r r ",
"8 y ! r r 4 8 0 0 r.4 7 F ' 2.5 r &.. r U 4 7 F 4 0 J ! r r 4 8 w r r.w w F ' r.7 w  .  r H 6 7 F 6 ",
"r U t F w 8 6 7 7 r 0 r $ &.j ' { 7 w 6 j j r r 6 t ! t t w 6 6 7 7 r w r # ' { ' { j ' w j r r r w ",
"r w 0 r 7 w r U F F F j ; r C s C j { I +.r H 7 6 r F 0 r 8 r s U U I U j ; r +.+.&.&.r.&.f.' r.j 6 ",
"6 U F F r H ' j s U U ' O &.' j &.r ' j ' ' ' ' r 8 F t ' w F U j j j U ' # 5.r.&.r.+.*.k.t.r.f.&.r ",
"t r r 0 j r ' 0 F r j U % { ' r j ' 5.j { ' r j r t w r 0 r r ' 0 j s F U % +.r.{ *.&.z.*.k.5.{ j r ",
"8 0 r w j ' r &.u.r r 6 * r &.k.L &.r j &.r r r 7 8 0 r r j U r &.u.r r 7 % r r.z.4.k.' ' f.r r r w ",
"! U F r j r j U k.&.{ ' : f.r 4.4.&.4.u ' U r. .1.u ! U r j j j I f.} +.{ ; f.U 4.4.&.t.u '  .f. .t.",
"4 8 8 r w y 8 8 0 w r w 6 0 4 8 8 > X : 4 r 6 8 4 4 4 8 9 0 t 8 6 0 w w w 6 8 6 8 8 4 X : 4 w 6 4 4 ",
"U t ' j w 8 4 r r j r j r r 8 8 r 4 O r r r r w r U t ' F w 8 4 r r j r j r w 8 8 r 4 O w r r u w U ",
"r U r U r 2.6 r j w w j F 7 r r r , O w r r r r r r U U r r 2.4 U r w r j I 7 r r r , + r r r r r U ",
"j r U r U j 6 w r r r r r q w w 6 6 O w j F j s r j r U r U F 6 w r r r r r 0 w w 6 6 O w r F r r j ",
"r j 4.r j w * r 0 r r j r u r w 6 6 + w j j j F r r j 4.r j r = r r r r j r U r w 6 6 + 7 F j j U U ",
"' r ' r r  .6 j j j r r 0 6 8 w 0 6 + r r r F F r ' r ' r 0 { 6 j C r r r 0 6 6 w w 6 + j r r U j F ",
" .F s } 8 6 4 t r F w ; < 4 + & u t : t 0 F t w a.&.j r  .8 6 , r w F 8 ; < 8 + = y t : r 0 F t r h.",
"r r s r 7 7 7 7 r j r 4 8 w w 0 8 r w r j r r U 8 r d s r r r 7 r d d j 6 8 w w w 8 r 0 r I r r } w ",
"' 7 r s 7 7 7 d q s q w + w r U j r F r ' j r { r ' 7 r r r r j r 0 r w 6 + r 8 ! r w U j U I r ' j ",
"j 7 s q C C 7 7 j r 6 r 8 w r r r r r j r r r j r L 7 r r r r r r r r 7 r 8 8 t 0 j j j r r j r j j ",
"s 7 O.m r +.r j j 6 6 ; , 6 r 8 r U r r r r j j r s r j w F r r F ' 0 7 > , 6 w 6 r U j ' j j j r j ",
"&.6 ' j 7 6 6 w 5 6 7 0 8 8 r ! j U F ' r r r.0 2.+.7 r r 7 6 w r w r 7 0 9 8 r F j U ' ' r ' f.8 a.",
"e 8.s.= y & 1 y >.q.q.p.q.! 8.6.& t 1 r 4 8 r  .r -.8.s.& e & 1 y >.q.q.q.q.y 8.1.= t 8 t 4 6 w y F ",
"1.8 8 w 6 > r w I 0 r r t 1.j U r r & 6 r j j U j  .8 w r 6 > r r r r w r t 1.j U r r & 8 r j j U U ",
"r t.r r 8 8 w r r r U r U r r r r w & U 7 r r r j r 1.w r 8 8 w w r r U r U r j r j w & I 6 r t r ' ",
"F 8 r t 8 0 6 r r U j w w r r r r j * j r r j w r r 0 r t 8 0 6 r r U j w w r r r r j * F j j j w F ",
"r 6 r 8 8 4 > 4 r U r r r r ' w r U $ 7 r r j &.} j 6 r 8 8 6 > 4 j j r r r r ' r j ' & 0 r r j { &.",
"w w r r 4 6 4 r j U U j j ' ' j r w ; 7 0 r j r w r r r w 4 6 4 r F U ' r r ' U F r w & 6 0 r F r r ",
"4 ! t t w ; : 6 6 } 4 ; 6 r  .3 4 ' . r F 4 6 F ; 4 ! t r w ; ; 8 6 &.4 5 4 r  .3 5 U   0 F 6 6 U > ",
"r U t F 8 6 w 7 7 w w r $ { { ' @.j U r j j j r 6 t ! t t 8 6 6 7 7 r w r # ' *.' @.F ' r j r r r w ",
"r r 8 t 0 r r U F F ' j ; r *.+.5.&.r.&.r.' *.j 4 r r 0 r 8 r r ' U j F j ; r *.' d.+.f.&.f.I 5.j 6 ",
"6 } t j r j } j r j U +.# t.r.+.f.+.*.f.r.r.f.&.r 8 F t U w j U r j r U ' # 4.f.&.f.' *.f.r.r.f.&.r ",
"t 0 r 0 j r U r H r j U $ &.r.+.*.4.l.4.k.5.&.j r t 8 r 0 r r } w I r j U $ @.r.+.*.4.k.r.k.5.{ j r ",
"6 w r r j ! w &.f.r r 6 & r r.z.&.k.' ' k.r w r 6 6 0 r r j ' r 2.f.j r 7 * r r.z.&.u.' ' f.s r r 0 ",
" .1.! F } U ' { k.&.&.4.> f.' r.r.4.r.' &.t.f. .2. .1.! F U ' } } f.&.&.2.> f.' f.r.r.u.U &.t.f. .t."
};
