/* XPM */
static char *_61b88f69cce4c19bf2679d7ca69a203CCiaNb1mMLVCx6aU[] = {
/* columns rows colors chars-per-pixel */
"50 50 164 2 ",
"   c #120B05",
".  c #1D1A15",
"X  c #211C15",
"o  c #241E1A",
"O  c #26211C",
"+  c #2A241D",
"@  c #272320",
"#  c #2B2622",
"$  c #2D2924",
"%  c #312C25",
"&  c #332E29",
"*  c #36312C",
"=  c #3A342D",
"-  c #343331",
";  c #3B3631",
":  c #3E3A34",
">  c #423C35",
",  c #433E39",
"<  c #444037",
"1  c #484236",
"2  c #46413C",
"3  c #4A443D",
"4  c #4F483E",
"5  c #454440",
"6  c #4B4641",
"7  c #4E4944",
"8  c #4E4C4A",
"9  c #524C45",
"0  c #534E49",
"q  c #565047",
"w  c #585147",
"e  c #56514B",
"r  c #5A544D",
"t  c #5F584D",
"y  c #565251",
"u  c #5B5551",
"i  c #5E5954",
"p  c #60594E",
"a  c #625C55",
"s  c #635E59",
"d  c #656056",
"f  c #696157",
"g  c #66615B",
"h  c #6A645D",
"j  c #6D685F",
"k  c #70695F",
"l  c #666561",
"z  c #6B6662",
"x  c #6D6964",
"c  c #6F6B68",
"v  c #726C65",
"b  c #736E6A",
"n  c #757167",
"m  c #797167",
"M  c #76716C",
"N  c #7A746D",
"B  c #7D786E",
"V  c #7B7571",
"C  c #7E7973",
"Z  c #7E7A79",
"A  c #807770",
"S  c #827C75",
"D  c #837E79",
"F  c #848077",
"G  c #86817C",
"H  c #8A837D",
"J  c #8E887E",
"K  c #90897F",
"L  c #868080",
"P  c #8B8682",
"I  c #8E8983",
"U  c #928C85",
"Y  c #938E89",
"T  c #969287",
"R  c #999187",
"E  c #96918C",
"W  c #9A948D",
"Q  c #9E988E",
"!  c #979191",
"~  c #9B9691",
"^  c #9E9994",
"/  c #A1998F",
"(  c #A29C95",
")  c #A89F96",
"_  c #A39E99",
"`  c #A89F98",
"'  c #A6A096",
"]  c #A9A097",
"[  c #A6A19B",
"{  c #AAA49D",
"}  c #ADA89E",
"|  c #B0A99F",
" . c #ACA6A1",
".. c #AEA9A3",
"X. c #B3ACA4",
"o. c #B8AFA6",
"O. c #B3ADA9",
"+. c #B7B1A7",
"@. c #BAB1A7",
"#. c #B6B1AB",
"$. c #BAB3A9",
"%. c #B9B2AA",
"&. c #BAB3AB",
"*. c #BAB2A8",
"=. c #BBB5A9",
"-. c #B8B4AB",
";. c #BBB4AA",
":. c #BDB4AB",
">. c #BCB6AA",
",. c #BAB3AD",
"<. c #BCB5AD",
"1. c #BDB6AC",
"2. c #BCB5AF",
"3. c #B9B3AC",
"4. c #BCB8AF",
"5. c #BEB9AE",
"6. c #B9B6B1",
"7. c #BDB6B0",
"8. c #BCB6B1",
"9. c #BDB9B0",
"0. c #BFB8B0",
"q. c #BEB9B3",
"w. c #C0B7AE",
"e. c #C0B7AE",
"r. c #C0B8AD",
"t. c #C2BAAF",
"y. c #C1B9AF",
"u. c #C0B7B1",
"i. c #C3BBB0",
"p. c #C2BBB3",
"a. c #C3BDB1",
"s. c #C3BCB2",
"d. c #C0BBB5",
"f. c #C4BDB5",
"g. c #C6BDB4",
"h. c #C7BEB5",
"j. c #C2BCB5",
"k. c #C5BEB8",
"l. c #C3BEBA",
"z. c #C7C0B6",
"x. c #C5C1B6",
"c. c #C9C1B6",
"v. c #C8C2B6",
"b. c #C6C1BA",
"n. c #C9C2B8",
"m. c #CBC2B9",
"M. c #C9C2BA",
"N. c #CBC2BB",
"B. c #CAC3BB",
"V. c #CDC4BB",
"C. c #CFC6BD",
"Z. c #CEC5BE",
"A. c #CFC6BF",
"S. c #CBC4BC",
"D. c #CFC8BE",
"F. c #D2C8BE",
"G. c #CCC6C1",
"H. c #CECAC4",
"J. c #D3CCC5",
"K. c #D5CEC8",
"L. c #D4CEC9",
"P. c #D9D3CC",
"I. c #DDD6D0",
"U. c #E1DBCF",
/* pixels */
"9 a h p N m % U w.] $.g.V.g.n.C.Y + j D H Q E W a Q X.-.a.-.) X.a 3 i u s g a 6 > s k 4 r d h B v @ ",
"X.r.c.X.r.i.R 9 U :.*.n.g.C.C.C.S , $.g.] [ n.9.J Q X.X.| | :.U h 6.,.L b + e ,.l.X.X.a.a.X.' N & V ",
"n.z.} 1.$.*.' * % f A U ( ( U f + 3 U +.i.1.( } N w I ( ( ] R q 0 ^ ^ E M @ s  .O.1.7.1.,.| +.H , E ",
"w a a k f f w h j a w 9 * 9 w a v r 3 9 f f s e 3 % > 3 * 3 9 % # g M s > & > > u S U b v h u =   = ",
"D j = r ( ..X.-.9.4.} F 2 r n F C i 9 B H D C 9 3 M b M e r ^ U c @ 6 b b i ; u u 6 6 6 9 i * % P Y ",
"d.U 2 v E Y { ^ W W C x g h F D H g 9 N C N M 6 3 a u 7 > 3 G F 6 6 P P ! i & S U P U _ H D 8 M L.n.",
"g : * , 6 7 > 3 g e 0 [ b.G.G.J.z.X.h $ F N E [ q.O.O.~ P b : : 0 3 ; * 9 e r 6 3 9 0 s 9 ; o $ r k ",
"G M 7 : I E G : 9 6 b F I [ ,. .+.+.U 6 H D [ [ _ ..( G D P 6 c O.^ 2 D ,.j.J.( 6 b O.O.b 6 ! Y G U ",
"Z g 7 c ~ [ ^ V $ : : e c P P E { _ g $ a s z b b M g z g 6 * 6 0 * $ x M F N q * a u g u = i V A D ",
": ; : e i e 7 i 6 i , . ; : * 2 , 6 , 2 2 7 9 u 0 , 3 + 2 L  .~ n g * V I ^ ) | -.Y U S 0 # u s v > ",
"2 E [ 0 > u 6 3 s M G _  .D 7 6 P F I E Y W ^ ( ~ ^ Y 7 U  ._ ^ ( S B z.z.-.J.c.c.$.J.J.G.b i b h 3 ",
"_ , 6 3 u C a @ * l C G V l , > u a s e a i u s b Y V @ , 0 e 3 7 % M { z.z.X.V.a.C.g.b.9._ * 6 E 7.",
"7 i x > 0 E E I ^ M b s , O i E ( _ Y E ..X.G N v 9 & a F S P D V 2 * e i v j b B K D H N , ; : 6 V ",
"> j j 9 e U W [ [ _ ~ E ! z y z D P P Y ( ( ( ~ X.H = r M v N S N u * i M x v p j j a + 3 V g g i 0 ",
"+.C.r.( a 3 i h g s u u s z y > % , 6 0 s v P H N 9 % > r B G b u @ y G Y ( ( Q ~ U S > b H L D y * ",
"R R B m f + 3 9 9 u V N N z s 6 % N V G z h g u > : S X.n.J.$.~ D 7 o r g i ; # 9 g N I u 0 G D 8 8 ",
"9 9 r r s b N 9 3 f.G.A.X.w.n.u.Y z Y [ E ~ I V 9 > H B A N h r 3 = F j.-.J.+.3 x G C N , e I [ z # ",
"v k b N S G S 0 3 _ N.f.o.*.F.n._ 0 # y u u u 7 w S B H W N f b p = T n.a.4.z.n O x v W ( W U 6 , - ",
"N S S v h g z i 9 > k H W Y R G s 5 6 & 6  ._ 6 X.I.J.C.K.K.C.i.D.J : h U ^ C g e 9.b.J.J.L.9.H c , ",
"( } ..( ( R E P D & 3 p 9 w w 4 % z L $ i E i ; S U  .u.i.X.X.G H h > r r r g = 9 N U I U N u b 3 3 ",
"e h b x z s g s > 9 ~ U G } | / H u 7 % % # 2 : 3 e 9 9 u s > > + g S S S B S h > : = r = g 0 ; v S ",
"X.{ W E {  .[ E 6 , z a b D D Q ^ H D D u 9 E ^ P U g 3 ~ { $.1.6.{ S a = F D _ ( ^ > i 9 M M u ( U ",
"F H D V D C D M g ; : > 7 r 7 r 9 r r 9 = = e i a h = u D H { ~ { E ~ C g _ ( +.j.O.i s q.i o 2 6 a ",
"9 t s u u u g s i # v L.^ g > e N h b B S N Y U 9 O z # : 0 z b v a 9 o e  .,._ ,._ M % g C e s { [ ",
"W { O. .{ ( _  .P 6 E E H a U b.g.g.J.J.P.J.n.P.O.* i G D i * 0 7 2 > = > M ^ Y V b , u Y ..P , c I ",
"r g r 7 e g z u : 6 G G e u 7.[ { C.n.X.j.n.$.~ P i 7 U _ C u _ { ^ W F M & , z u i 6 7 3 7 6 O ; , ",
"( +.[ Q B + 3 Y g 7 i i > i F C U ( ( Y Y D S C U 2 a V s $ e C M b g g h ; 7 U Y ^ ,.X.P E E M 2 2 ",
"r w r 9 r % R J.H.q.^ h * = > u w 3 r s s r u r 6 v q.l.,.M @ : 9 i e 7 ; % = a u u z i s D D V 2 e ",
"] } ` G A > I 9.} $.C. .M 0 * s x a a r , + u C S U [ ( ( H o r ( 4.P.S.{ a > C H S V g z z 9 3 * ; ",
"B S v N D > 3 R 1.X.] f 6 2 > I W [ ( { H * r M F C Q U C 0 0 R E E U H Y C 2 2 s a G ^  .d.q.Y , g ",
"H U ) ] / R B a w j a a U  .R B 0 N ~ I z 2 g r 3 3 9 9 = X 0 a N [ { { ( a 9 [ _ M 6 , 9 g G M 2 H ",
"] ] C.g.$.n.X.S D * f X.d.X.D D 3 = a : * N { M = z D E _ 6 s D r * r i : : +.S.b.X.r r U 0 $ 0 r 0 ",
"S V E Y S C g a v 0 & 9 a a e w 3 3 + r N r 3 + 9 N Y X.{ r z ( S > U [ g & V E H 0 7 ~ { V * _ { , ",
"& 6 6 2 r e , 7 ; 2 V W +.9.g.X.g.f q z.U.m.} j 0 = : i 6 o + > > 2 +...,.Y ; ; ; ; b b 7 > ; c u ; ",
": P D P ~ ^  .c o c 9... .7.( ( H 3 a ) z.a.' 1.,.L u & ; V E Y v ; S ( ..E N & & 7 N e , e C M F I ",
", G E c s s g i ; & 3 a a r 0 9 = ; s N Q X.r.(  .M._ 6  .L.I.P.b.C + r a r 6 7 6.[ V 2 0 v D D D N ",
"Z u 7 3 9 0 7 & C ^ P > D D 6 9 e & e r i i r i s s 2 ; P U G S v a z a s e + x d.j.G.O._ P u 3 > f ",
"H. .3 3 ..J.6.s u g C : u V u o 0 ^ ,.+.' S N S C s * % * i S B E { M.,.{ ~ 7 a b.l.l.q.6.O.l.S s r.",
"[ H e % s W ^ a i M ; : P ( ^ u g I E P N S S I V S u * D ( X.E G P H v h 6 3 ; ~ b.G.H.d.Y  .r R n.",
"g : : u r $ = $ c b 9 % P D b a $ 6 6 6 9 9 0 6 7 r > > u 0 , 2 2 e 7 2 9 2 @ 2 6 D ^  .q.H e # s b ",
"7 3 ^ 8.v @ 9 M v z I C z D S D V D i $ I X.O.X.l.l.^ & ~ ^ $ 3 { ,.q.[ Y [ a o , r 2 u i 3 : z 7 a ",
"N 7 g 3 r z , E P I ~ Y {  ._ ( D V V = v h x M D P l 9 I P = v j.O.d.q...^ H : U H 2 = & 2 C H v U ",
"6 0 a z D F u e 0 6 6 i u z v z b b 0 * d F N z a u & $ 7 : O e [ ,.,.,.G.^ v & > 0 = z 2 , , # u 0 ",
"* M +.+.q.j.q. ._ D z 2 > o = , u : % Q -.j.X.( P s , V ~ ~ N 9 H W ~ W U b 7 3 g v V I V b V V g e ",
"6 = z c V G V z M i z E _ ~ U Y V h = 9 f r w > * r O.J.G.7.g.f 0 h u e , $ + a V U ^ E _ _ E I V z ",
"E N e * & : : 7 ; O e D P S E ( Y G s 1 t a a w = U ^ H b z e * X 6 e s b v h r 7 3 6 6 2 ; 0 g V D ",
"E Z c 2 u  .6.O.O.I : e a B D } $.] $.4.' a.C._ 3 6 6 6 0 r x r : G ..,.J.H.b.9.^ F u & P z i E  . .",
"g 7 * : G ~ ^ { O.( e H Y _ E ( { ( E ] X.+.X.I ; D ^ _ ,. .X.( D & * e g N N C E C b & 6 r * > % 9 ",
"[ ~ : : M c z i 0 ; @ 6 r 7 7 e u 7 0 s c c z , & V V s i s i e g 6 S } ] U H c s s 6 Z O.] } X.G e ",
"9 g 6 ; g i 6 M P P C P Y ^ ( U > , g V M c l 7 # 2 * i P H V M s > M X.c.c.i.U , s 8 i D U ) ] P : "
};
