/* XPM */
static char *c5508ae8d1994256e370a51972ae48456wHeJAxbyGkl82iL[] = {
/* columns rows colors chars-per-pixel */
"64 64 256 2 ",
"   c #0D0000",
".  c #140300",
"X  c #1A0600",
"o  c #1C0B02",
"O  c #170B04",
"+  c #1D1108",
"@  c #230D02",
"#  c #2B0D01",
"$  c #270A03",
"%  c #251305",
"&  c #2C1203",
"*  c #24130B",
"=  c #2C150A",
"-  c #2C190C",
";  c #28190B",
":  c #331402",
">  c #341905",
",  c #3C1B04",
"<  c #31150B",
"1  c #341B0C",
"2  c #3B1D0C",
"3  c #3B1402",
"4  c #2C1B13",
"5  c #281713",
"6  c #341D13",
"7  c #3A1E12",
"8  c #331A16",
"9  c #330F00",
"0  c #3D210C",
"q  c #39200B",
"w  c #352113",
"e  c #3C2214",
"r  c #35231B",
"t  c #3C241A",
"y  c #3D291B",
"u  c #3B2A1A",
"i  c #2D2018",
"p  c #3C2B23",
"a  c #382822",
"s  c #3C332A",
"d  c #421D0A",
"f  c #471D06",
"g  c #431D14",
"h  c #43220C",
"j  c #4A240C",
"k  c #49260A",
"l  c #58270D",
"z  c #432413",
"x  c #4B2513",
"c  c #452A16",
"v  c #4C2B14",
"b  c #42261B",
"n  c #442A1C",
"m  c #4C2D1B",
"M  c #4A261C",
"N  c #522C13",
"B  c #522E1C",
"V  c #592D17",
"C  c #4C321D",
"Z  c #4D3217",
"A  c #563116",
"S  c #5A3314",
"D  c #54321C",
"F  c #5C351B",
"G  c #5C3A1D",
"H  c #5A3819",
"J  c #59320E",
"K  c #623A1D",
"L  c #633719",
"P  c #612E0D",
"I  c #442C23",
"U  c #4B2D22",
"Y  c #472924",
"T  c #4C3324",
"R  c #4C3429",
"E  c #4D3A2D",
"W  c #443328",
"Q  c #533423",
"!  c #5A3523",
"~  c #563924",
"^  c #5C3B24",
"/  c #52362A",
"(  c #543B2C",
")  c #5C3D2A",
"_  c #4E3B32",
"`  c #533D32",
"'  c #5A3D31",
"]  c #563C38",
"[  c #522F23",
"{  c #633D24",
"}  c #6B3E24",
"|  c #623D2A",
" . c #663A27",
".. c #6B411C",
"X. c #73461D",
"o. c #5E412B",
"O. c #5E4224",
"+. c #544234",
"@. c #5D4333",
"#. c #52423A",
"$. c #5C493C",
"%. c #644225",
"&. c #6B4224",
"*. c #64432C",
"=. c #6B442B",
"-. c #6B492A",
";. c #734323",
":. c #744B2B",
">. c #7B4C2C",
",. c #754927",
"<. c #7C522D",
"1. c #79532D",
"2. c #634433",
"3. c #6A4633",
"4. c #654A34",
"5. c #6C4A33",
"6. c #654A3C",
"7. c #6C4C3B",
"8. c #64473A",
"9. c #734C32",
"0. c #7A4E33",
"q. c #724D3A",
"w. c #784F39",
"e. c #6E523C",
"r. c #685138",
"t. c #745134",
"y. c #7C5334",
"u. c #74533C",
"i. c #7A543A",
"p. c #7C5A3C",
"a. c #795A3A",
"s. c #5D411C",
"d. c #5B4A43",
"f. c #5D504A",
"g. c #654D42",
"h. c #674B42",
"j. c #6C5244",
"k. c #695649",
"l. c #735443",
"z. c #795541",
"x. c #755A44",
"c. c #7C5B44",
"v. c #7B5D4A",
"b. c #73594B",
"n. c #735E51",
"m. c #7A5D52",
"M. c #6B5D54",
"N. c #7D624D",
"B. c #7C6246",
"V. c #796557",
"C. c #76695F",
"Z. c #7B6F66",
"A. c #86562C",
"S. c #825334",
"D. c #835B35",
"F. c #835B3C",
"G. c #885B39",
"H. c #8A5836",
"J. c #8B623C",
"K. c #86613A",
"L. c #96673B",
"P. c #8C602F",
"I. c #835D43",
"U. c #835D4A",
"Y. c #875D47",
"T. c #846244",
"R. c #8B6443",
"E. c #84634C",
"W. c #8B654B",
"Q. c #8C6A4C",
"!. c #8A6946",
"~. c #946A44",
"^. c #936C4B",
"/. c #976947",
"(. c #9B734D",
"). c #987147",
"_. c #836552",
"`. c #856A53",
"'. c #8B6B54",
"]. c #8B6D5A",
"[. c #876958",
"{. c #936D53",
"}. c #976E57",
"|. c #8C725B",
" X c #8C7156",
".X c #947354",
"XX c #9C7454",
"oX c #93745B",
"OX c #9A755B",
"+X c #9B7A5B",
"@X c #987A58",
"#X c #8C724F",
"$X c #A4764B",
"%X c #A37A53",
"&X c #A37D5C",
"*X c #A67954",
"=X c #AA774F",
"-X c #887567",
";X c #957662",
":X c #967B64",
">X c #9B7C63",
",X c #977C6A",
"<X c #8B776D",
"1X c #A27E64",
"2X c #A8835B",
"3X c #B5885C",
"4X c #9C8267",
"5X c #9A8475",
"6X c #A38264",
"7X c #AB8562",
"8X c #A3856B",
"9X c #AC8C6C",
"0X c #A98868",
"qX c #B48C68",
"wX c #B8936D",
"eX c #A48572",
"rX c #A48A73",
"tX c #AC8C72",
"yX c #A68A79",
"uX c #B38D71",
"iX c #AC9279",
"pX c #B49473",
"aX c #B3947A",
"sX c #BC9B7B",
"dX c #B99777",
"fX c #AC906B",
"gX c #BCA47B",
"hX c #9C825F",
"jX c #C5986C",
"kX c #C49C77",
"lX c #C8A27C",
"zX c #D3A87D",
"xX c #C5905E",
"cX c #AB9585",
"vX c #B79B84",
"bX c #AA9487",
"nX c #BEA487",
"mX c #B7A397",
"MX c #AEA19B",
"NX c #B8ACA6",
"BX c #9C9084",
"VX c #C8A788",
"CX c #D3AD8A",
"ZX c #D1A883",
"AX c #CAAB93",
"SX c #CCB197",
"DX c #D7B79A",
"FX c #D1AE93",
"GX c #D6BCA2",
"HX c #C8B2A2",
"JX c #D9C1A5",
"KX c #D9C4B3",
"LX c #E7C8A9",
"PX c #E9CFB5",
"IX c #DEC39E",
"UX c #F2D6C1",
/* pixels */
",X|.[.-X[.g.W % X I Q $ K .X4.iXnXnXx.q y T 2.*.*.@.` d._ d.h.7.].yXmXbXBXbXyX8X;X,X5XV.W % *.0XgXfX) ~ ^.R.G.'.2 y W W ] ] ` T ",
"e.v.e.4.l.8.R y X I 2., K R.O.rXsXtXx.C C C ) ! ^ D t 7 t e m *.l.4.k.C.Z.k.v.>X'.z.x.j.R & %.2XgX4X) ^ {.).<.W.Q E p I ` R ~ ~ ",
"rXrXiX8X;X|.oXN.c n 2.f =.&.& 4XsXwXQ.e.e.7.i.i.0.0.i.p.E.T.Q.{.6X9XtXrXiXaXaXsXsXvXaX8X,X~ ^ 6XpX.X$ ~ I./.S.^.u.v.N._.'.E.T.T.",
"tXaXvXvX9X6X4X|.o.n q.j :. .& >XpXdXE.%.4.4.u.i.y.y.i.R.XXXXXX7XpXsXVXAXVXnXsXaXnXVXlXpX9X~ ^ 4XfX+X$ ~ i.R.~.XXu.e.x.c.U.`.Q.Q.",
":X8X6X@XQ.p.5.o.z ~ 7.x ! | 2 oXuXsX9.0 c n ! ~ { -.:.t.i.R.R.Q..X:X:X8X4X:XeX8XtX6X@X!.t.h %.OX2X2X: D 9.y.R.Q.v m m ! o.2.4.5.",
"c.B.E.I.Q.R.E.B.c @.7.x D ^ 2 '.0XuXp.) @.Q C C x h N K &.:.^.@X4X4XtX8X|.|.N.N.B.T.R.T.t., ! '.@X7X, ! i.9.p.Q.~ @.( Q Q m z c ",
"JXAXsXdXCXCXpXOX~ *.c.D D 2.v z.>X1Xu.) 4.8.2.7.F =.S.G.(./.(.%XwXCXDXIXLXIXJXDXgXwXwXkX+Xj N T.^.&X2.| `.z.c.`.2.2.7.8.@.8.( ( ",
"4X6X1X}.R.^.I.{ , ) z.| *.u.D u.OXoX) : > 1 # h m N V L &.;.;.,.D.(.2X7X0XhX>X8X+X.XK.D.=.: j p.Q.@X3.l.-X_.].N.t 1 e z = 1 n n ",
"_.`.'.U.I.Y.w.x # Q *.^ q.c.^ 3.].E.c : > 1 # $ & < 2 v v F } 9.F.^.XX&X@XOXoX|.'.E.i.9.^ $ , t.T.@X7.2.5X|.b.e.1 > 2 0 e & < e ",
"z z x D &.t.q.! [ 3.i.i.I.>X+X0XvXiX[.E.x.7.( y - @ * - < < > d j j N A ! v z b C ^ =.0.0.A K F.^.&XOXoXeXaXiXrXoX'.c.u.) 2 @ @ ",
"# v  .=.} }  .F  .:.Y.G.S.XXwXCXDXLXLXPXLXAXvX5XC.d.a + * 4 @ @ @ @ 2 e.N.# & / b.E.{.(.(.(.(.(.$X$X*X*X(.dXZXZXCXDXLXDXVXcX_.c ",
"v ! A j 3 3 f f l J L K ..<.G.~.&X0XfXpXdXtX:X_.b.d.W + 4 #.W R R w @.].`.> n / n D &.>.,.;.&.,.,.<.S.,.y.R.^.2X&X&X6X'.OX,X,X].",
"1 2 h j x x B ! } ;.;.<.D.R.(.7X9X9XaXaXaXtX8X[.b.6._ 4 6 $.) 7.j.z 7.`.E.v m [ ! ^ :.F.I.I.p.B.E.Q.Q.!.T.!.#X+X6X+X>X'.:X].b.' ",
"U n C m Q Q 2.w.S.~.*XqXqXqXkXVXDXDXDXSXnXaXvXvXyX].n.R 7 8.*.q.c.D 3.z.E.^ 2.3.z.T.I.0.=.2.4.4.v.[.;X9XvXSXDXDXDXDXSXAXAXmXcX,X",
"r < & $ $ & 9 9 f P ;.J.J.y.t.=.5.t.e.j.b.l.l.U.u.7.6.U e 7.2.q.I.D | c.v.v ^ v A F A N z 7 e e z D *.T. X+X>XQ.p.i.=.4.u.e.7.j.",
"# & 2 z z m D &.J./././.R.a.Y.E.`.E.b.b.n.n.l.7.7.) U = 7 8.| 5.c.A ) e.e.> v x A G { %.Q n T T / 8.q.E.>X8XdXVXsXdXtXOX`.N.7.2 ",
"F K  .&.&.:.0.>.S.J.~.R.p.u.c.;X5XyXBXmXHXmXvXcX5X].j.w 1 2.| 3.u.D ~ 7.6.t 2.v 9.Y.0.u.j.6.' ' ] h.j.v.;X>X6XpXFXLXPXPXGXSXvXcX",
" . .! A H S F =.:.9.9.-.=.%.) 7.m.V.-XZ.V.n.V.V.V.n.k.I 7 8.) q.z.! 8.l.6.t T 2 | { j z I T W Y Y Y _ @.x.`. X8XtXvXvXyXeXiXvXmX",
"& & < < 1 > 2 e c n C m D D m v n I p r ; 4 w r a r a * 4 g.' 8.7.m @.n.` o * * - 2 % % + * 4 4 4 6 r w w c C C E +.+.+.+.$.$.#.",
"e 4 * o o * * X o @ @ : > , h h ) ( % . o o o * 5 * r a +.n.l._.].x.N.5XC.I p u ; o o O O   * 7 7 t < % w e = w o . . . o ; 5 5 ",
"V.n.$.p 4 + + O % y - b Q ^ 5.u.6XeX( % w u I E _ #.#.` +.4.e.c.`.:X:X5X5X5X5X-XV.g._ p 4 o b 5.x.4.n c o.2.C b.i * i r I E +.#.",
"[.n.g.+.s 4 + . * k.r t ) ~ o.[.dXvX4.e n I T T T R U ~ o.t.T.'.:X5X5X5X5X,X[.V.n.k.k.+.p @ ~ ;X+XQ.m m e.4.2.5Xa 5 a W E E E E ",
"mX5X5X<Xk.#.W 4 w C.I I 6.( T iXsXVXE.u.N._.E.v.v.z.z.OX7XqXkXCXLXPXPXUXUXUXHXvXvXiXcXyX<Xn ~ 9X6XpX^ Z E.z.4.vXk.#.k.n.V.V.V.V.",
"n.k.j.6.` ` E r c 5X8.' b.7.c 8XdXCXQ.*.2.2.{ ^ N f f S ;.>.J.~.@X+XoXoX'.[.`.x.x.v.].-X<X( 4.iX0X9Xt.G W..X5.vXb.+.$.+.+.( m 0 ",
",X5X].[.N.6.( > k tXi.| c.q.O.!.pXFXE.z m c D 3.9.t.:.:.<.<.K.~.+X>X@X X XoX4XrX:X|.`.x.6.w 4.aX9X2XK.-.!.XXt.aXj.b T Q ~ 2.z.E.",
"DXGXAXaXtXeX].u.H 6XR.i.i.i.@X0XpXpX8X'.v.u.u.i.{.+XXX&X7X0X9XsXAXGXGXGXJXGXJXJXJXnXSXnXcXb.*.9XpX0X^.1.(.2X<.7XaX4X:XoXu.u.1XuX",
"c.E.'.@X9XOXl.Q D .XR.R.R.y.2XdXdXsX>Xt.4.*.3.G F { K A h , , 0 0 1 e n C 4.x.|.oX6XVXaX,X( 3.6XdXqXQ.a.qXwXD.XX;XN.B.x.q.! %.5.",
"@X@XF.{.dX@Xl.Q m Q.:.G.*XG.J.dXwXlX'.m Q ) u.F F i.W.W.p.i.c.'.:X:X_.`.`.[.:XaX{.OXFXrX;Xm 5.2XwXqXa.D.3XlXA.~.E.~ ~ o.E.| A i.",
"6XXX^.R.T.p.7.n m p.K H.3XL.,.3X2XkX{.c Q ! {  .:.y.R.XX2XwXlXZXDXJXSXSXnXaXaXtX9X6X6XoXB.> ..2X2XqX,.>.$XjXA.R.T.D ~ ~ ~ | %.%.",
"4.*.*.^ G D n < 0 9.L A.3XA.X.%X2XwXB.& : 2 z x j x N G %.-.t.W.oX|.N.x.a.u.e.x.e.4.*.C u o s.3X).3X;...L.3XA.R.3.# 1 0 t n z z ",
". X . o o X * X - 2.A ,.$XA...*X2XqX-.. . . .   .   . o O . . .     . * %   X .           o O.2X(.2X&.P L.3X,.i.( X o X X .     ",
"Z.<X-X-XV.V.k.a 4 ( A ,.).A.J (.2X2XT.Q ( E ` _ ` _ W s a a a a d.f.C.Z.<XC.Z.<X-XZ.Z.C.k.> H &XXX%XK S L.3X} 5.j.+.` $.$.+.$.@.",
"5XmXGXLXGXvX5Xg.6 T N ,.L.;.k Q.*X$X^.T.`.].>X>X|.N.n.d.#.#._ d.<XmXNXNXNXNXMXmXKXKXPXJXnXt.H %X(.XXk N G.$XD | }.+X>X1X9X9X&X+X",
"+.4.t.@XpXE.@.I * ( N ..A.<.: T.%X*X<.N D { 9.9.-.^ m 7 8 t y T @.g.V.C.M.M.g.k.x.oXiX4X@X-.L (.~.).h j G.L.j *.0.0.y.D.J.J.G.G.",
"e.x.a.B.!.p.e.@.8 R D F y.0.$ i.).*Xy.S F V F K { ^ ! m z e c D o.~ @.$.$.g.b.b.c.N.[.`.`.*.H ^.F.~., x y.S.h 7.5.=.&.&.:.<.<.S.",
"|. X+X0X7X6XeX,XR t Q A 9.:.# w.~.2XR.y.I.i.y.y.y.t.9.i.z.t.i.c.E.].oX].].-X,X,XtXaXtXrXAXrX5.R.a.R.: m &.:.x 7.z.p.p.p.D.F.F.S.",
"E.c.I.Q./.R.E.N.I r U ! &.&.: 3.^.2XF.L :.:.>.,.,.,.9.i.c.U.E.'.].;X{.'._.`.`.Q.^.+X1X>X6XQ.*.T.D.R.: z {  .U 2.^  .:.1.1.y.0.:.",
"5.u.t.:.,.&.G ~ 7 8 m | } } : *.XX7X1., N D S F F F { ^ ~ ^  .=.5.3.&.3.*.5.q.9.F.y.i.i.*.A F T.S.^.m h !  ./ ' m x N A H L K K ",
"z 2 2 x N j x Q t 7 D &.;.;.f 5.^.2X=.: 1 & # & @ @ @ # : j F K -.y.F.F.=.! D v l =.=.F | D A F.y.W.{ v F =.) ( M g d d f d 3 3 ",
"' Q m B B B B Q 7 7 ! >.A.S.x | Q.+X*.0 e = 6 4 * * 4 6 e ! 0.F./.XX%X1XoXI.z.q.i.w.=.| 3.B N i.F.i.! ! G t.) ( Y Y M M m B m x ",
"v m m B B v U e o = x ,.A.S.j m p.'.D & = ; * 4 4 5 4 4 e z x V  .} }  .%.~ ~ ) *.*.~ T ( & d i.9.5.D ^ F =.m U 7 < = = 0 c c z ",
": : 1 7 7 2 e e 0 D K H.L.L.:.%.I.{.2.M C I t 6 * o * = 6 7 : , x d x m e 1 2 2 2 z b e t 2 ! I.F.y.p.9.i.T.3.4.) n n C C z : & ",
"7 b I I U Q ^ } J.$X=XxXjXkXlXlXsXtXsXAXvXeXeX[.@.I 4 @ = n 7 M Q < e T r * r a Y / / R ( ! :.J.L.*XjXZXCXCXFXFXVXFXDXVXsX>Xj.R ",
"< 6 8 r b z j L A.A.A.A.H.G.J.R.c.t.u.x.c.z.l.' / W r @ 4 ` T 8.v.2 y +.W * 5 * < 7 7 e 0 2 D ,.>.D.G.F.F.W.{.oXoXOX.XE.c.7.' R ",
"@ $ # = 8 < & m j S K L x x v v M ) 2.Q T T n b y w ; O ; $.` 8.c.h ( j.` * X o $ $ & & # 1 x x x N B F x j B ^ 7.) m z z 7 7 8 ",
"8.6.8./ Y b b Q =.p.Y.I.| U 2.l.b.v.;XyXiXcXvXcXyX<XC._ w ` ( 2.l.h Q j.h.$.6.j.4.3.*.) D ~ 3.3.7.l.q.! ^ u.U.c.'.;X,X5XeXyX5X<X",
"$.@.3.| ! D ^ 9.F.~.^.XXE.7.l.v.E.`.OX8X8XtXtXeX,X].V.( y @.) | t.h ~ v.h.' 8.7.u.i.9.9.i.i.F.F.W.W..XI.I..X^.^.OX8X9X8X6X6X5X,X",
"y q h d d j N A L P ..&.9.3.%.o.%.{ { %.{ %.{ ! ~ ) ( 2 z 4.| ) x.0 ^ U.l.2 z 2 h h j j N A K L F K =.y.p.a.:.:.:.:.:.:.=.^ ) o.",
"( @.z z z z m N N F :.G.XX9XsXdXuX&X{.OX8X4X'.c.x.N.V.e m t.3.%.B.h B ].`.B C n 0 0 h , , h v A &.F.OXuXlXZXCXVXkXzXZXVX9X{.`.'.",
"w 6.1 1 z z n Q ! A V L &.S.F.F.y.p.W.'.E.'.I.-.%.Q e X D c.5.=.a.h m oX>X: & 1 = 2 e 2 z T Q D B F } t.K.!.XX2X3X3X*X%X^.p.=.{ ",
"T g.b 2 & 2 7 n D D  .9.F.R.^.+X9X9XdXsXdXqX*X*X%XI.2.: B Y.=. .0.x x Y.eXx 2 w r = ; < r a Y [ ~ | q.W.&X7XpXlXzXlXjX*X%X2X7XXX",
"n g.7 < = = 7 e e 0 x D } :.y.K.!.Q.Q.Q.XXXXJ.H.F. .~ : M U.|  .9.N V q.{.z - r 4 * * * 5 4 8 8 7 m ! q.I.Q.XX2XqXjXjX).D.~.R.,.",
"w d.4 * @ - w 1 2 z v D } 0.G.F.I.c.c.4.q.z.I.y.D z t = 2 2.^ ^ G v 5.| q.z - ; + O @ * 5 4 8 < 2 v B ^ 5.p.Q.XX&X7XqX9X&XF.F V ",
"- $.% % % @ o @ @ 1 2 d j N K %.! m n t 1 # , : & 1 8 = z =.G G %.N =.5.5.h & % % @ o X X o @ & t e 2 2 v x x m v A m x x , # 3 ",
"vXiX;X_.8.W % o X % = # < & $ 2 j x @ . o o - 1 6 e T Q %.y.S./.%X7XdXCXZXlXsXsXiX4Xx.n @ . @ t b 7 $ @ > % @ & . X o @ % ; 1 e ",
"sX4X'.c.7.( I 4 o 6 r @ 8 n e *.p.T.c ; 4 i 4 - w = 1 D &.,.S.A.G.%XqXkXzXZXlXpXfX4X`.4.y @ 1 8.@.R 8 6 w - - r * 6 4 5 4 ; ; % ",
"N._.~ ! T t 6 * o r W @ 7 b & u.~.^.D & % % % % = 1 > d D :.0.>.1.J.(.*X%X^.T.i.t.5.~ n 1 @ v p.:.{ < 7 e < t t 7 % @ @ @ % % ; ",
"x._.7.8.8.@.E p @ 4 ` < 7 c & p.~.~.%.c / ( ( ( / T U ~ | =. .{ L J K 1.F.y.9.3.*.*.*.( b @ A R.~.:.: t I e b Y b n W R R R E W ",
"rXiX,X;X].b.g.+.4 ; ` 1 n ) : p./.J.t.B m B ~ Q / T ' b.[.|.;X8XrXOX>XiXvXaXiXiX8X;X].v.@.& %.~.%XK.: I +.I I Y / Y t t n T Q T ",
"u.c.t.t.l.v.v.b.y 7 @.1 Q *.3 p.$XL.^.I.U.q.! v h z 2 2 e n ~ %.3.3.5.5.5.t.l.x.u.a.v.v.8.: -.).2X^.: I $.E R ` m._._.j.~ m z h ",
"iXvXsXsXdXvXeX|.T n ' < ) 3.3 t.=XL.~.Q.{.&X&XI.p.u.i.T.`.Q.+XpXkXwXwXkXlXkXsXVXVXFXSXvX].0 ;.).%X(.< I g./ U 2._.`..X6X1X^.Y.W.",
"T.@X.X&XT.%.! C 2 n ' # ) q.d 9.).=X&.f k l J S L L L K { ^ t.!.XX&XXX^.J.J.!.(.qX2Xc.o.m # X.$X).%Xn R 7.Q ^ q.d k k j S K } K ",
"6XpX+XfX&Xp.u.2.& n ' $ ! U.j t.$X*XG 2 j f N } } } ;.9.*.T U ( t.p.F.R.%XqXjXkXjXkXXX=.m # ..$XL.&XQ n o.G 9.i., d h j } 0.S.S.",
"a.a.9.t.0.&. .3.: n 8.# x i.h R.$X(.^ z x x N V l l l L ! n I / u.p.p.y.K.L.~.L.P.P.:.K ^ 9 K =X/.%X^ m 3.%.F.i.x m v N K L P l "
};
