/* XPM */
static char *_f841ebde53a4236b7470c52f78ff9a6j2Gx4MPg48S0YsSS[] = {
/* columns rows colors chars-per-pixel */
"64 64 256 2 ",
"   c #030206",
".  c #090106",
"X  c #04030B",
"o  c #0B030B",
"O  c #0A080D",
"+  c #13030D",
"@  c #1A020E",
"#  c #130107",
"$  c #050412",
"%  c #0B0513",
"&  c #0B0916",
"*  c #04051A",
"=  c #0B061A",
"-  c #06081B",
";  c #0B091B",
":  c #060A15",
">  c #140512",
",  c #1B0312",
"<  c #1A0A14",
"1  c #13051A",
"2  c #1C041A",
"3  c #14091A",
"4  c #1C0A1B",
"5  c #130914",
"6  c #19171A",
"7  c #22010D",
"8  c #2B010E",
"9  c #36000C",
"0  c #240313",
"q  c #2B0213",
"w  c #24041C",
"e  c #2A031D",
"r  c #280919",
"t  c #340214",
"y  c #3B0214",
"u  c #34031C",
"i  c #3C041A",
"p  c #340B1C",
"a  c #3C0A1C",
"s  c #370A17",
"d  c #35121F",
"f  c #020423",
"g  c #040C24",
"h  c #0A0C22",
"j  c #020B2B",
"k  c #0B0D2D",
"l  c #05052A",
"z  c #190825",
"x  c #071129",
"c  c #181228",
"v  c #040D32",
"b  c #0B0E34",
"n  c #030C3C",
"m  c #0C0C3C",
"M  c #010732",
"N  c #130E34",
"B  c #190C36",
"V  c #031235",
"C  c #0B1235",
"Z  c #04123C",
"A  c #0B133B",
"S  c #0F193D",
"D  c #11133D",
"F  c #1C133B",
"G  c #15163A",
"H  c #250423",
"J  c #2C0423",
"K  c #240A22",
"L  c #2C0A23",
"P  c #2C042B",
"I  c #240B2B",
"U  c #2B0B2B",
"Y  c #25032C",
"T  c #330324",
"R  c #3B0124",
"E  c #340A24",
"W  c #34032A",
"Q  c #3C022B",
"!  c #330C2B",
"~  c #3A0C2C",
"^  c #3C0B24",
"/  c #271926",
"(  c #3C132D",
")  c #381224",
"_  c #2A0733",
"`  c #340C33",
"'  c #3B0C33",
"]  c #380736",
"[  c #271439",
"{  c #3D1233",
"}  c #371638",
"|  c #353338",
" . c #430014",
".. c #42031A",
"X. c #4B041C",
"o. c #420B1C",
"O. c #4C0518",
"+. c #55021B",
"@. c #43101F",
"#. c #430C23",
"$. c #42022C",
"%. c #470926",
"&. c #560826",
"*. c #451223",
"=. c #47162B",
"-. c #52142C",
";. c #5A172E",
":. c #430B34",
">. c #480734",
",. c #56073C",
"<. c #441535",
"1. c #4B1A3B",
"2. c #491637",
"3. c #511C3D",
"4. c #5C1D3B",
"5. c #571737",
"6. c #65142D",
"7. c #65183A",
"8. c #701534",
"9. c #4B2237",
"0. c #572338",
"q. c #68263C",
"w. c #76223C",
"e. c #050E41",
"r. c #0A0F47",
"t. c #0B1442",
"y. c #091847",
"u. c #121444",
"i. c #121A44",
"p. c #151C4B",
"a. c #1A1D4E",
"s. c #171747",
"d. c #0C1954",
"f. c #181C55",
"g. c #281846",
"h. c #371A43",
"j. c #251D53",
"k. c #370C41",
"l. c #1B224C",
"z. c #1D2253",
"x. c #1C245A",
"c. c #1A2758",
"v. c #102856",
"b. c #382349",
"n. c #242D5D",
"m. c #252858",
"M. c #25335B",
"N. c #33365E",
"B. c #362D4F",
"V. c #1B2865",
"C. c #1C3466",
"Z. c #262D66",
"A. c #24326A",
"S. c #293967",
"D. c #363968",
"F. c #283B73",
"G. c #343B75",
"H. c #580C44",
"J. c #481A46",
"K. c #551B43",
"L. c #5A1744",
"P. c #450A46",
"I. c #641B43",
"U. c #651B49",
"Y. c #681A48",
"T. c #671F51",
"R. c #5A2445",
"E. c #4A2656",
"W. c #4E2C4F",
"Q. c #692546",
"!. c #762B44",
"~. c #643849",
"^. c #78344B",
"/. c #6C2354",
"(. c #6C2B56",
"). c #732A5D",
"_. c #772857",
"`. c #693658",
"'. c #783857",
"]. c #4C3563",
"[. c #583868",
"{. c #58346A",
"}. c #752964",
"|. c #683164",
" X c #793968",
".X c #773E72",
"XX c #67326B",
"oX c #711E66",
"OX c #2C436E",
"+X c #37446A",
"@X c #384677",
"#X c #3D527B",
"$X c #2D4173",
"%X c #774356",
"&X c #6C4357",
"*X c #444B75",
"=X c #46537A",
"-X c #4A4471",
";X c #7B456D",
":X c #76436B",
">X c #6C4678",
",X c #7B4677",
"<X c #6C5078",
"1X c #464044",
"2X c #83334D",
"3X c #833B53",
"4X c #873859",
"5X c #8B3051",
"6X c #8D3A63",
"7X c #853868",
"8X c #953C67",
"9X c #863A74",
"0X c #983D78",
"qX c #852773",
"wX c #A13E5B",
"eX c #85455A",
"rX c #99435E",
"tX c #86456D",
"yX c #984565",
"uX c #824572",
"iX c #884879",
"pX c #974777",
"aX c #955474",
"sX c #A44765",
"dX c #A95475",
"fX c #AC4F74",
"gX c #3B4883",
"hX c #3C5C92",
"jX c #355588",
"kX c #396194",
"lX c #464C84",
"zX c #475686",
"xX c #4B5A99",
"cX c #56558C",
"vX c #655C94",
"bX c #6B5589",
"nX c #4E689D",
"mX c #54659C",
"MX c #55608D",
"NX c #75629B",
"BX c #6A6698",
"VX c #5869A6",
"CX c #4D65A5",
"ZX c #736EAA",
"AX c #913B86",
"SX c #A43F8F",
"DX c #984B84",
"FX c #8A5588",
"GX c #975488",
"HX c #9A5B93",
"JX c #89548D",
"KX c #A55487",
"LX c #AA5295",
"PX c #B05DA3",
"IX c #A36CA4",
"UX c #6481B8",
/* pixels */
"                    X $ X X X X               X X X                                                                             ",
"                  X X X X X                     X X                                                                             ",
"                X X X X X                       X X                                                                             ",
"                    X                           X X                   X                   . .   o o                             ",
"                                            X X X X                                     o o o o o o   o                         ",
"                        X   o   X X X X     X X X X X X X X                       X o o o o o o o     o o o o X                 ",
"                  X o o $ o o X X X X X X X X X X X X X X X X X X X X X         o o o o o o o o o o o o o o o o                 ",
"                X $ $ = $ $ o X $ $ $ $ X $ $ $ $ $ $ $ X X X X X X X X X X X X o o o o o o o o o o o o o o o o o X X           ",
"X         X X X $ $ ; $ = $ X = $ $ $ $ $ $ $ $ X X X X X X X X X X X X o o o o o o o o o o O O O o O o o +   O o X             ",
"X         X X $ X ; * h h * ; ; $ $ $ $ $ X X X X X X X X X X X X X   X o o o o o o o o o O O O o + o + > + + o o o X   o . . . ",
"          X $ $ ; h * h f g g h ; $ $ $ $ $ X X $ $ X X $ $ $ X X X X X o o o o o o o o o + + + @ @ # @ @ # , + + o o X o o o . ",
"        X X $ * h f k C C G j g ; & $ $ $ $ X X $ $ X X $ $ $ X X X X X o o o o o o o o + + + @ @ @ ) d E p 0 # + o o X o o o . ",
"    X X X $ $ - f l.*X*X=X*XN.C h ; & = = $ $ $ $ $ $ $ $ $ $ o X X o o o o o o o o + + + + + , 8 0.%X'.'.%X0.@ @ + o o X o o . ",
"    X $ $ $ - g f N.-Xi.p.c.=XS h ; ; & = = = $ $ $ $ $ $ $ $ $ X X o o o o o o o + + + + + > 0 i '.q. . .;.'.8 @ # o o X X o   ",
"    X $ $ $ - g f +X+XZ e.p.zXi.k h ; ; & & = = $ $ $ $ $ $ $ $ $ X o o o o o o o o + + + + > 0 ..yXw. .O.;.'.8 7 @ O o     X X ",
"    X $ $ * - g j N.+Xt.t.v.zXl.C x k h ; & = & = = $ $ $ $ $ $ o o o o o o o o o O + + + + < 0 ..rX2X6.6.w.3X9 7 + O o X X X X ",
"    X $ ; ; - h j +XD.Z Z y.hXv.i.C u.b h - : $ & = & & $ 1 % % > + + o O O o O o & o o < < @ r i 3XyX5X5XyXeX9 @ + O o O o o   ",
"    X $ ; ; * h * *X+Xn p.p.hXhX#X=XlXD.l h : & = = $ & % 1 % 1 > > + + + O O O o o > > > < 0 r s q.!. .O.+.3Xo., + o o o o o   ",
"  X X $ ; ; ; h k D.D.m D p.VXhXy.i.x.lXF c ; = 1 1 X % 1 1 % % % % % + + + + + + > > > > < r r t 4.~.i o.o.eXi , + o o o o o . ",
"  X X $ ; ; ; h f -X-Xm A y.UXgXy.l.d.lXF N c = 1 3 $ $ % % % o $ = % % > + @ @ + 2 , , r 0 7 8 y 0.~.t t @.eX9 0 + + O o o o . ",
"  o X $ ; ; & h j +X=Xc.M.C.UXjXy.Z d.lXs.N c c = h = $ $ $ O o $ $ $ % > > > > > , 0 0 r r p t y ;.!.y y X.eXo.0 > O O o o o . ",
"X o $ $ ; ; - h j M.zXlX#X#XkXjXS.n.@XlXg.F h h z 1 3 & % % O o $ % $ % % > > > w , w 0 q a *.*.&.q.!.y X.X.3Xi 0 > + O o o o . ",
"X $ $ $ ; ; & h j S.Z.e.t.y.C.nXzXMXmXvX>X>X<X>XW.H K 2 2 3 O O % 1 % % % > > 1 2 , w e 0.'.^.'.^.aX!.8 s p eXa 0 , + o O o o . ",
"X $ $ $ ; = & h j S.D.t.u.Z @X$XZ t.f.NXbXJ.J.E.,X] H 2 2 4 + 5 > > > % 5 > 3 3 2 L w q ^.3X .X.&.dXq.i t ) eXi 0 , @ @ o o o   ",
"X $ $ $ = = & h j D.S.r.u.n @X$XA i.f.IX{._ [ h..X] I I z 2 4 > 2 2 > 3 3 > 3 2 w e L p '.5X .X.&.dX!.9 i @.%Xo.0 , @ @ + O o   ",
"X $ $ $ = = & h j S.S.n t.n F.@Xv G j.ZXXX_ Y ` ,X] P z P H K 2 2 2 > 3 3 > 2 w w E e u ^.5X .y &.dX^.;.;.;.eXi 0 , @ @ @ O X   ",
"$ $ $ $ = = & x V C.gXA.S.M.jXS.A G j.NXJX,X,XFX9XH.J.J.J.{ L 2 2 3 3 3 3 2 w ! 2.R.R.R.6X2Xi o.%.2XdXfXfXfX4Xy 0 > @ @ @ + X   ",
"$ $ $ $ = = & x V S.mXzXzX#XnXOXV G j.NXJXiXiXiXLX9X.X,X.X X! 2 2 3 3 3 4 w L 2.aX X`.`.KX4Xu p i %.&.&.+.6.3Xy 0 > @ @ @ + X   ",
"$ $ $ $ = = ; h l @X@Xr.u.n S.S.C G a.NX{._ ` ] GX}.W ` ' :X` L 4 4 3 5 4 w T 3.tXR T T pX4Xq p p t s t y o.eXi 0 , @ @ + O o   ",
"$ $ $ $ = 1 ; h j lXlXd.a.m @X@XA D p.ZX{.P ` } HX XP U ' ;X! w w 4 4 5 4 w L K.iXQ <.T pX4Xe ) p 7 d r p *.eXi 0 , @ + O O o . ",
"$ $ $ $ % 1 ; h Z @X@Xy.t.n F.C.V Z p.ZX{._ _ ` GX}.` ` <.;X{ L L w 4 5 w w w K.uXT ` T pX8Xu r r r 7 8 9 y eX..0 , + O o o o . ",
"X $ $ $ % = & h j @XxXF.#XOXhXzX+X+X*XNX{._ I } HX}.P ! ' ;X! T E e L 2 K K w K.iXQ J T pX6Xp p p s =.0.;.q.3X .0 , + O O O o . ",
"  X $ $ ; ; & h j S.VXnXmXVXCXF.c.M.j.{.[.P I } HX}.J ! ' ,X XiXtXuX(.T K 4 L K.iXQ E E 7XI.p p X.2X3Xq.q.q.eX..0 , + + O o o   ",
"X X $ $ = & = h j @XS.d.y.c.VXC.t.F B E.[.U c ` HXoX] ` ] FXiXH.5.L.7X:.K 4 L K.uXT E E  X5.p i O.sXw.9 9 o.eXa 7 @ + + O o o   ",
"$ $ $ X $ & = h v +XOXy.V S.CXA.b F B ].[.z K } GX XT e ' FX XT Q Q uX<.4 c H J.iXT ! E '.-.p a +.rX^.y a *.^.o.0 @ + + O o o o ",
"$ $ $ $ $ = = h j =XS.y.V c.VXA.A s.B ].[.z I } GX}.Q 2.$.GX XT ` J ;X' w K J 1.;XJ ! E  X5...y O.rXq.9 9 a eX#.0 @ + + O O o o ",
"  X $ * ; ; = h j #XA.d.d.V.VXV.e.t.m D.[.Y ` ' LXqX,.L.H.DX XQ U U ;X:.L e R K.uXT E u 6X5X8.8.8.wXw.+.&.-.3Xt 0 @ @ @ + O X   ",
"  X $ * * ; = h j S.VXxXVXVXxXgXG.D.S.lX].P ` P.AXLXPXPXLXLX).T K [ :X:.E e R K.uXT E u pXfX8XsXwXsXrX2X2X^.3Xi 0 @ @ @ + O X   ",
"X X $ $ $ ; = h j +XlXA.Z.n.gXxXcXzXcXBX].Y U h..XP.J.1.L.GX7XR ! !  X:.L e T 1.;XT E u 6X6XX.X.+.sX!.O...%.eX..0 @ @ + O O o o ",
"$ $ $ $ $ = = h j =Xn.n A A @Xx.u.u.n.vX]._ I } XXk.H ! $.GX(.T U P ;X2.e L T 1.uXT E u yXyX..X.+.yX!.y i -.'...0 @ + + O O o o ",
"$ $ X X = = ; h j =XZ.y.A A gXx.u.m z.BXE._ ` h.>X_ ` ! $.GX`.e H U ;X:.! L W 1.uXT %.t 8X8X .X.O.yX!.....-.4X%.0 , + + O o o o ",
"X X X $ $ ; ; h v @XZ.e.Z t.@Xx.m m n.vX].P P ' XXP.] W >.pX`.! U J  X>.T ~ Q K.uXT E i 8XsX;.6.6.yX!.%...%.4X%.0 , + + O o o o ",
"    X $ * = ; h v @XgXgXlXgXxXV.s.m m.cX>XXX|.9XAXqX).).}.DX|.H L <.9X0X7X_.7X/.uXW ! u 6XdXyXaXsXsXfXyXdXKXyXt 0 , # + o o X   ",
"      $ * = ; h j =XgXV.A.gXCXd.u.N j.bXJXJXFXDXLXSX9XpX0XKX|.P P T pXKX8XpXpXGX.XJ J E 6X6X%.X.O.5X8XY.7.Y.pX%.0 @ + O o o o   ",
"X   X X $ $ ; h j =XS.V v n.mXf.N B m.bXJ.J W >.PX}.$.$.,.iX`.! ! J KX7XR $.>.DXiXQ Q R yX6Xy ..X.yX^.u Q $.pXR 0 > O o X X o o ",
"X   X X X $ = h j #XS.V Z M.mXc.s.N g.NXW.] ' 2.LX}.$.$.>.DX`.W ! W pX7X$.Q :.iXuXQ Q i 8X6Xt a  .4X'.u :.2.pX$.w > O   X X o o ",
"      X $ $ $ - j #XF.n n S.mXd.A b m.bXE.W J ] PXoXQ Q H.DX).T W Q 0X_.R Q Q iX9X$.R i 8X4Xi t y yX'.R $.>.pXR 0 + O .   X o o ",
"      X $ $ $ - f S.lXgX#XgXxXF.n.m.D.bX>X:X.X.XDX9X9X9X7XpXpX X X7XpX0X X). XiXiXT.)./.pX6XQ.Q.7.6XpX7XpXtX7Xu , + o .         ",
"          X $ * f t.S.G.G.A.V.Z.D.N.N.g.E.|.|.}.,.H./././.,.L.(.(.).,.Y.).).).H.,././.Q.7.&.4.4.7.&.5.Q.Q.I.%.q @ + o o         ",
"          X $ * f z.Z.x.x.Z.A.f.a.s.g.b.E.J.K.L.T.U.L.K.I.U.L.K.3.L.I.U.L.K.U.Y.Y.H.3.5.I.7.-.-.&.7.I.4.5.Q.R.e @ o o   .       ",
"    X X X X $ * l n.m.r.t.x.G.r.n l [ ].h.] ' >.).U.Q Q >.(.K.W W Q /.I.~ ~ >./.Y.$.T T Y.7.y t y Q.7.%.%.-.Q.e @ o o o         ",
"      X X X $ * b m.x.e.e.x.G.r.M l F ].h.P W :.(.L.T T $.(.3.e J T /.I.L L Q /.U.T w e Q.7.t t y Q.4.i i %.R.E @ o o           ",
"        X X $ * b z.x.r.t.x.S.u.M j F E.b.Y P :./.3.T T $.R.1.e w J Q.4.K K Q Q.L.R w w Q.;.p q i q.4.i i #.3.) @ o o           ",
"            $ * b l.m.e.e.x.Z.u.M b F b.b.Y P { R.2.L e :.R.2.e 2 J K.3.K 2 T K.3.Q 2 w 4.-.p q i 5.5.t i #.=.p @ o             ",
"          X $ * b l.x.e.t.z.m.u.v j [ b.b.U H { K.2.L w ~ 3.<.e 2 L 1.2.w 2 E 1.1.E w L 5.-.a q a 5.-.i i =.=.E @ o             ",
"          X $ * b l.a.e.u.p.x.p.A l [ b.} U H { 2.2.L e ( 0.{ L w L 1.( e w L 2.2.E e E =.=.p t a -.=.a i #.=.E @ o             ",
"            $ - C p.a.t.t.p.z.s.b b [ b.h._ U { 2.{ L L ~ 2.{ L w ! { ( e 0 E <.2.E e E <.=.a t o.=.=.a a a *.d @ .           X ",
"            $ - C i.p.t.A p.a.u.m b [ h.h._ U ` <.{ U L ~ <.( L w E { ( e 0 E { ( E E E =.*.a i o.*.*.s a *.*.p @ + o     o     ",
"            $ - b i.i.t.A i.p.u.A N F g.} _ U ` { ~ U L ~ { ~ L w E ( ! e 0 u ( ~ E e E *.*.a i a #.*.s p p a s # . . . .     X ",
"          X $ - k D u.A A i.i.t.G N F [ [ I U ! { ~ U L E ' ~ J e E ~ E e 0 e ^ ( E e E =.#.a s #.^ ) a a p a p < + .   o o     ",
"          X $ - k A t.A A S u.A C N B [ [ I I U ` ! U L E ~ ! L L L E E w w e E E E L E E R u p a a p t p p p q @ . .   o     X ",
"          X $ - k A A A A S S A b N B [ [ I I U ! ! K K E ~ E L e L E E w w e E ! L w L ~ ^ p p t ) =.p t p p 0 # . O   .       ",
"          X $ - k b A A C A A C C N B [ I I I I ! L K w E E E L H L L L w 2 w L L w w { ~.&X&X~.~.&X&X~.~.~.~.~.W.1X| 6 | B.| O ",
"            $ * k b m A C C C C C b B B B z I I U L w w E E L w w w L e w , w L L w w ! 9.9.<.=.9.( ) ( 9.=.=.) / 6 6 6 / 6 6 X "
};
