/* XPM */
static char *c04bb00bbcd146cf9dba982ecb1d68b9__1___1_1735923245[] = {
/* columns rows colors chars-per-pixel */
"50 50 256 2 ",
"   c #06121C",
".  c #0F241E",
"X  c #0B1D2C",
"o  c #081627",
"O  c #131D2B",
"+  c #141A27",
"@  c #0E1D34",
"#  c #061D37",
"$  c #141D34",
"%  c #1B1B32",
"&  c #161A39",
"*  c #120A25",
"=  c #0C222C",
"-  c #04262C",
";  c #12222C",
":  c #15262D",
">  c #032332",
",  c #0C2434",
"<  c #0D2A35",
"1  c #03233C",
"2  c #0B243A",
"3  c #052B3B",
"4  c #0C2B3C",
"5  c #042A33",
"6  c #132534",
"7  c #1B2432",
"8  c #132B35",
"9  c #1D2933",
"0  c #13243B",
"q  c #1A243C",
"w  c #132B3B",
"e  c #1A2B3C",
"r  c #0C333B",
"t  c #18323C",
"y  c #232A3B",
"u  c #273635",
"i  c #21182D",
"p  c #1D403A",
"a  c #0C2D42",
"s  c #0C2E4A",
"d  c #072943",
"f  c #142543",
"g  c #132C43",
"h  c #1A2D43",
"j  c #142A4A",
"k  c #0C334C",
"l  c #093747",
"z  c #133345",
"x  c #1B3344",
"c  c #1A3B46",
"v  c #14344B",
"b  c #1B344B",
"n  c #133C4C",
"m  c #1C3A4D",
"M  c #143B43",
"N  c #122D53",
"B  c #083B52",
"V  c #143C52",
"C  c #1C3C53",
"Z  c #153E5C",
"A  c #1C3D5A",
"S  c #193454",
"D  c #062F57",
"F  c #242A45",
"G  c #22334D",
"H  c #243B4D",
"J  c #273846",
"K  c #233D53",
"L  c #273B59",
"P  c #343957",
"I  c #2A324F",
"U  c #1C3D63",
"Y  c #212F51",
"T  c #16424B",
"R  c #0C485A",
"E  c #144353",
"W  c #1C4253",
"Q  c #1C435A",
"!  c #1C4B5C",
"~  c #174759",
"^  c #154C54",
"/  c #22414E",
"(  c #224354",
")  c #24445B",
"_  c #2B435C",
"`  c #224B5C",
"'  c #2B4A5C",
"]  c #2A4653",
"[  c #25515D",
"{  c #354957",
"}  c #0A4965",
"|  c #154B63",
" . c #1C4C65",
".. c #184766",
"X. c #1B536A",
"o. c #195668",
"O. c #1B5774",
"+. c #0A4C76",
"@. c #224664",
"#. c #234B64",
"$. c #2A4B64",
"%. c #254A6C",
"&. c #2B4C6B",
"*. c #2A4464",
"=. c #354B68",
"-. c #235364",
";. c #24536B",
":. c #2C546B",
">. c #235A6C",
",. c #2C5B6C",
"<. c #2B5665",
"1. c #35566A",
"2. c #2A4E75",
"3. c #245B73",
"4. c #2D5B74",
"5. c #245D7B",
"6. c #2C5B7A",
"7. c #285575",
"8. c #335C74",
"9. c #365B79",
"0. c #354E73",
"q. c #1B6577",
"w. c #146373",
"e. c #26636D",
"r. c #24647C",
"t. c #2B637C",
"y. c #296879",
"u. c #33647D",
"i. c #3A637B",
"p. c #33697D",
"a. c #366273",
"s. c #307078",
"d. c #44596B",
"f. c #43657B",
"g. c #49706F",
"h. c #606C6C",
"j. c #B16633",
"k. c #905B33",
"l. c #E76118",
"z. c #855757",
"x. c #2B5D84",
"c. c #375B82",
"v. c #1C6986",
"b. c #18758E",
"n. c #236483",
"m. c #2B6384",
"M. c #2C6B83",
"N. c #2C6C8C",
"B. c #276889",
"V. c #336482",
"C. c #336C84",
"Z. c #346B8B",
"A. c #3B6C8B",
"S. c #386687",
"D. c #29768A",
"F. c #33748C",
"G. c #3B738A",
"H. c #377787",
"J. c #386B92",
"K. c #297894",
"L. c #337492",
"P. c #3B7B93",
"I. c #3D7B9B",
"U. c #367996",
"Y. c #2F6B90",
"T. c #327DA2",
"R. c #446C88",
"E. c #596C83",
"W. c #45748B",
"Q. c #557288",
"!. c #476E94",
"~. c #427B95",
"^. c #437D9B",
"/. c #487796",
"(. c #527C9C",
"). c #526E9D",
"_. c #627993",
"`. c #477AA5",
"'. c #557DA0",
"]. c #465D87",
"[. c #2B878C",
"{. c #378489",
"}. c #2A8698",
"|. c #34859B",
" X c #3C859D",
".X c #378998",
"XX c #33939D",
"oX c #2B9798",
"OX c #1997AA",
"+X c #2B89A5",
"@X c #338CA4",
"#X c #3988A6",
"$X c #2896A9",
"%X c #3997A9",
"&X c #2A98B6",
"*X c #3798B6",
"=X c #3087B2",
"-X c #2AA7B6",
";X c #38A4B8",
":X c #2DB0B6",
">X c #169093",
",X c #46859B",
"<X c #588598",
"1X c #458893",
"2X c #4283A3",
"3X c #448CAC",
"4X c #4A87A6",
"5X c #5888A6",
"6X c #4795AA",
"7X c #5693AC",
"8X c #479AB9",
"9X c #5698B5",
"0X c #528DB6",
"qX c #6699B9",
"wX c #6C97AD",
"eX c #48A7BB",
"rX c #56A6BB",
"tX c #4BADB4",
"yX c #66A6B9",
"uX c #67A9B5",
"iX c #638C9E",
"pX c #3499C2",
"aX c #2DADC5",
"sX c #3AAAC4",
"dX c #37B6C5",
"fX c #2BB5CB",
"gX c #4798C3",
"hX c #48A8C6",
"jX c #58A9C6",
"kX c #48B5C8",
"lX c #48BAD3",
"zX c #55B3D5",
"xX c #67ACC7",
"cX c #6AB8D7",
"vX c #6EB1CC",
"bX c #52BEE4",
"nX c #35C7D0",
"mX c #39D3E8",
"MX c #37EDED",
"NX c #49C5D6",
"BX c #51D1D7",
"VX c #6AC4D3",
"CX c #55C5E1",
"ZX c #45D5E9",
"AX c #56DBE7",
"SX c #50D9F0",
"DX c #4AC9E2",
"FX c #6ED2E8",
"GX c #54E7EA",
"HX c #45F8FF",
"JX c #51ECF5",
"KX c #63F7FC",
"LX c #41E6DF",
"PX c #8898BA",
"IX c #94EEFF",
"UX c #9ED3EA",
/* pixels */
"9 z g 9 e s s y g v E g g 2 0 T 4X0X4X4X,X^.#X#X}.V 7 7 ,XdXsX8X;X;X}.R a K R.u.C.u.S.V.B.x.1.<  .R.",
"x O y _ ` [ e.o.-.w o _ u.P.y.m W.H.A.G.M.G.M.H.F.e.4 m ,X%X6X.X=X|.o.n > y.jXhXgXhX8X@X+XL.O.T u.!.",
";.e ' #X*X#X3XpX:XK.~ 6XhXhX8X%.~.G.S.Z.J.S.C.Z.t.q.v y b S S t x 1 V v m !  ...@.m ( W V v f G { ) ",
"J F G  . .*.&.&.o.d L 1.O.;.A z ) W ) K ) C ' C l B 1 o 0 v @ = ( G.6X3XI.^.G.6.<.c $ + G $.%.&.&.A ",
"` &.L 6 7 w h p c ( x % : p { J G h x w w 8 X   V %.M.#X%X*XXXR '.`.G.~.W.S.P.I.D.y.b e Q.p.y.V.V.6.",
"%X#X^.I.P.P.#X6XeXkX$X..P wX5X5X5X5X5X'.(./.z ` eXjX;X-X*X*X*X7.y.H./.R.!.p.e.t.v. .N L W.y.7.V.0.,.",
",.,.8.t.6.u.c.x.t.w.b.B =.wX,X7X5XiX4X,X<X,XC a.,X|.^. X#X2XK.| T a.%.U ..V z h $ $ 2 w b b L G ) Q ",
"0 0 $ 6 @ = + O % o y e T 1.<.H _ K W C v n f j / K V b v l 4 8 7 X H c 8 7 6 q =.i.,XW.' F + + + : ",
"L.V.a.t.;.;.! @ P y.@XtX%X..# T ^.D.b.K.[.>X[.z ; P P _ ] { ' 4 @ /.cX#XT.6.4 a.qX7X7X5XC.8.:.;.] c ",
"Z.J.L.K.L. XF.B T.hX+XL.v.x.j P.kXeX8X8X*X&X@X} ' 4X5X0X9X5X`.0.& ,X4Xm.S.2.l Q.5X)./.y.,.:.3.>.1.( ",
"j f z n ( S v q ' T S h l l 0 k k 3 1 j # # 4 4 6 r T M z 5 M M c c 3 0 6 8 - J G h f z h y e h b w ",
") n M t $ 7 ) ! ^ [ 3.v.[.[.%Xv.o e.[.{.|.%X%XtXsXkXtX- q s.*XsXdX;X%X6XL.B.y.f O ] t y t e 7 6 : 8 ",
"8X#XF.M.N %.rX%X%XhXgXsXkXhXnX}.& #XeXkXsXkXsXdXsX-XoXs wXFXjXhXhX8X%X@X#X+X[.T 2.9XI.J.J.N.B.S.=.v ",
"F.M.5.M.L C 8.6.8.X.1.4.} Z E 5 o 4 3 l l r n k S z z 3 /.5Xp.p.6.>.O. .Z k z o ' 9.| %.' E ! _ x t ",
"t z d l n c n v 4 4 + + k y.6.C.s.,.:.>.-.[ ` n 8 = * x #.~ o.[ ) > $ $ *.i.u.<.,.;.~ | c O + * Q i.",
"$ g M. X#X;XeXhXK.V = o qXAXAXGXGXAXKXJXGXGXLXLXB.Q Q kXGXZXNXdX-Xq.G 2 rXZXaXNXnXdX;X;XK.C o { 9X4X",
"L C.#XI.@XI.3X$X>Xw.8 d.xX;XkX:X:XnXnXCXSXmXMXMXOX} ~.NX:XfX*X+X}.b.! ..vXhX;X-X&X+X=X&XK.Q b <X/.~.",
"K L *.=.|  .%.@.Z R o x f.P.3X@X6X:XdXeXhXNXnXLXOXB  XeXK.U.K.K.r.w.E ) yX%X%X@X}.+XK.D.G.V &.<XA.A.",
"O 9 o ; + % T o.w.|.{.a.l < 8 8 t < 8 t 8 8 l T M   x - 4 3 a a w 2 3 n ) l m m z c 1 2 , > ' A x w ",
"7.*.C b $ 1.6XjXbXDXSXSX:XD.` 8 o : iX%XoX%X6X#XoXs., _.uX1XV.;.0 I vXyX#X{.g o e H H ] { <.a.a.J X ",
"y.i.f.' w a.1XV.L.H..XoXOXoX|.>.  iXIXHXJXSXmXmXmXOXK UXIXcXFX0Xk PXUXvXcXeXR R.xX7X7X,X4X^.,XP.$.v ",
"u.4.4.| b 8.C.P.U.G.H..X+XOX+Xq.< 7X%X+XT.b.b.+.D 1 O g.9.7.O.D > h.9.#._ b @ E.xXwX^.Z.Y.A.i.p.' ~ ",
"F 2 0 4 O x / ( &.9.t.n.O.O.| a 5 3 2 g 1 < X x s.H.{.{.{.s.> ] 1XH.D.q.^ ' 6 e.x.K G ] v J G c a z ",
"e 8.i.t.a.a.F 6 : : = ; + 8 w.tXkXzX4XM.o.= o uXKXJXHXHXHXnXO.vXSXNXCXDXnX:XdX-Xb.O.m - 1.d.' =.:.&.",
":.W.2X6X#XT.P.6.3.W 8 % L ,XkXzXCXNXNXdX%X, _.FXkXhXhX;X+X+X+.%XpXOXOX&X&X&X&XOX-X;Xn.E xX0X/.`.A.S.",
"P 1.7.t.m.m.m.m.m.4.h O K 8.5.5.r.y.y.y.E *.UXxX0XrX%X@X+XB.3 e ;.o.w.w...+.U ..} } l N 9.A L ( H m ",
"8 c c W W C Q A V n t t W C m c 4 < o   w Q $.b ~ @.X.Z l > : 9 o @ 8.M.n.5.O.} n B R #.' , . . = 6 ",
"_ P b h h b C V b & _ 5XjXxXjXjXkXeX! J FXVXrXH.! a # F ) a.1XH.C A vXkXsX&X&XsXgX&XpXpX|.! o x 9.9.",
"L.J.V.Z.~.I.U.K.q...:.I.3X0X3XeXeX*XZ S rXkXxXcX9XX.X ( a.@X@X@Xl _ 5X+.o.| R O.o.O.X.B B r o I ) ( ",
"6.8.6.7.6.V.B.b.D.R - + X 0 f z g Q >.o.>.v S s k l c r 9 + b Q E L *.N A V k g k 2 o  .|. X,X=X|.|.",
"e e x v v E R o.N v ' =.#.~ H o E uXAXAXAXAXBXnXNXNXlX:X[.4 9XFXlXNXkXkXsXdX;X%XK.T > ~.hX@XK.T.N.v.",
"b g 0 0 q % X , p.6XkXfXfX-X}.# S s.r.V.P.s.~.XX.X#XD.|.v.f (.3.O.q.O.a.r.O.3.-.+.n 8 4.+.s g r 4 0 ",
"J.A.M.B.u.w H W.6XU.U.K.b.v.l ( ] r 7 , o o = & = $ w > 6 P H t 2 , > = : % * O m.jX*X3X8X%X|.,X( b ",
"7.;.>.m.8.z c :.*.%.o.q.} d V.VXcXcX9X*X}.< + ' 7.q.q.7.1 6XcX6X9X5XR.R.f.a.t < u.u.C.N.m.t.O.| f 0 ",
"w e e w 0 q 0 @ a > 8 ; @ 9.xXhXhXbXbXkXkXX.% ;.%.X.o.b , a Q Z >.;.$.*.Q E X 8 = ; X 4 @ $ e t W ( ",
"y % & G ;.S.~.I.K.U.G.j 7.jXhXzXjXeXhXhX&X} Z NXjXsXeXeX;X@Xn.w.> F G.F.|.I./.!.=.@ Q.qX2X,XP.|. X2X",
"( , w 1.W.U.I./.2XK. XZ @.P.Y.`.I. X}.}.L.k b |.3X*XhXhX*XaX:XdXo.c u.B.B.m.Y.B.7.v wXI.K.F.V.B.5.m.",
"e 8 t c v Q ~ ( L ) m > X q 8 5 j j M k B d 4 f L ;.O.;.e.R B 4 & * g Z B Q E m d 1 R.6.7.%.*.&.) Q ",
"A.G.~.R.c.2.S 0 f G n y.1Xi.$.H F % i F x.tXtXJ.C g & % @ f. XI.[.P.y.#.C h o < ,.g.c , w = : % 7 O ",
"R.J.B.p.A.J..., _ /.<X4X6X7X4X/.G.` X 1.2X8X;XgX2Xp.a.c g xX*X*XaXaXaX:X;XA I yXvX3X!.].9.a.i.i.:.*.",
"c.6.6.6.r.r.3.n ' H.G.!.!.G./.`.6X<.8 G.8X#X@X+X*X`.3Xe.b /.r.m.v.m.x.v.n.v W.yX`.).`.<X^.`./.).W.6.",
"@.` ' ) ) ~ V 2 I 9.u.c.6.6.t.3.m.V q :.c.c.B.U.y.r.D.^ X z 2 F 6 x s 4 6 X d.E.S.S.R.C.f.S.c.u.:.) ",
"2 w 7 & & d v m v T v N k b , z f 4 ( ~ d 4 w @ 8 ~ X.X.4.t.! c % 8 m ) >.>.%.j & 7 j 9 y I u n F q ",
"h _ =.1.0.p.{.6X@X}.@X@X#XP.s <.W.,X8X8X8X Xp.3 L vXjXjXeXeXeXU.T =.(.(.7X6X3X2XC.1.*.x j & 8 u u J ",
"b =.1.9.u.u.6.m.R.x.S.n.q.7.f K :.u.m.S.^.^.S.a 0.,Xm.V.5.O.7.O.4 h d.7.p.4.1.8.y.2.;.J u b z.j.=.=.",
"% F h g v b C C n E S h a n H C C k z e 7 4 g S Y g f h x e 0 s W T z 0 & & $ = i e 4 F u k.l.j.J t ",
"H.u.;.V w O y F j z h % ) H.6XrXXX XN.r X C.3X;XP.o.W E n 8 8 ,.rX%X%X%X|.|.y.4 W H.f.H.g.l.j.h.J 6 ",
">.5.6.%.m q J $.' <.] 0 <.P.n.B.t.m.B.! 4 R./.D.}.^.Z.N.5.W z F.0X#X2X3X+X+XP.b [ S.4.d.j.k.x.0.=.g ",
"*.@. .%.U h K 0.;.2.#.h 8.Z.6.x.V.O.5.r.a :.Z.F.N.v.x.O.r.S J ^.U.J.Z.C.C.L.M.x m 5.<.=.=.1. .X.T z ",
"U A Q A S w m ) @...~ @ @.3.@. .%.~  .| @ m 3.3.v.O.x.X.| g e V.J.S.Z.C.C.Y.t.e q %.`  .o.' Q G x 6 "
};
