/* XPM */
static char *e3bcbe25ac854376d79b874400e471dfCs02OPlVKAZ7WwQZ[] = {
/* columns rows colors chars-per-pixel */
"50 50 208 2 ",
"   c #000100",
".  c #060801",
"X  c #0E0B06",
"o  c #0D0E08",
"O  c #110E04",
"+  c #140F09",
"@  c #141105",
"#  c #14140C",
"$  c #1A160D",
"%  c #17180C",
"&  c #1A190B",
"*  c #151611",
"=  c #1A1712",
"-  c #1B1B14",
";  c #1E1F19",
":  c #24170F",
">  c #241D0D",
",  c #2F1E0E",
"<  c #2B1C05",
"1  c #221D14",
"2  c #2B1E14",
"3  c #221E19",
"4  c #1F2115",
"5  c #1F201A",
"6  c #292000",
"7  c #2D220B",
"8  c #242216",
"9  c #2B2415",
"0  c #2E2814",
"q  c #24231B",
"w  c #2A251C",
"e  c #26281D",
"r  c #2B2A1D",
"t  c #312512",
"y  c #332914",
"u  c #3B2D13",
"i  c #322619",
"p  c #332C1C",
"a  c #3A2D1B",
"s  c #3E3417",
"d  c #36311B",
"f  c #3B331D",
"g  c #252621",
"h  c #2A2621",
"j  c #272822",
"k  c #2C2B22",
"l  c #2E2F29",
"z  c #332C23",
"x  c #392E23",
"c  c #3D2F2C",
"v  c #2F3125",
"b  c #2F312A",
"n  c #343124",
"m  c #3B3524",
"M  c #3D3923",
"N  c #34332B",
"B  c #39362B",
"V  c #36382D",
"C  c #3C392B",
"Z  c #363731",
"A  c #373932",
"S  c #3C3C33",
"D  c #3D3E38",
"F  c #43351C",
"G  c #433A1D",
"H  c #483919",
"J  c #423524",
"K  c #443A25",
"L  c #4A3C24",
"P  c #42362B",
"I  c #433C2C",
"U  c #4A3D2C",
"Y  c #503E2A",
"T  c #433631",
"R  c #433D34",
"E  c #4A3D33",
"W  c #463D3B",
"Q  c #3C402F",
"!  c #3F4135",
"~  c #3F4139",
"^  c #4A4125",
"/  c #44412C",
"(  c #4C432C",
")  c #4D482A",
"_  c #544627",
"`  c #52452C",
"'  c #534A2E",
"]  c #58492E",
"[  c #5A522E",
"{  c #444233",
"}  c #4B4534",
"|  c #4C4935",
" . c #43443A",
".. c #4B453C",
"X. c #46483E",
"o. c #4C4A3B",
"O. c #524633",
"+. c #534B35",
"@. c #5A4C35",
"#. c #524639",
"$. c #544C3B",
"%. c #5B4E3B",
"&. c #565135",
"*. c #5B5136",
"=. c #55513B",
"-. c #5C523C",
";. c #5F593F",
":. c #615231",
">. c #62553C",
",. c #635A3D",
"<. c #70623F",
"1. c #454640",
"2. c #494641",
"3. c #474842",
"4. c #4C4C42",
"5. c #4E4F49",
"6. c #524D43",
"7. c #584E42",
"8. c #524E4B",
"9. c #4F5146",
"0. c #515146",
"q. c #555243",
"w. c #5B5443",
"e. c #5D5944",
"r. c #515249",
"t. c #555249",
"y. c #525449",
"u. c #53554A",
"i. c #54564B",
"p. c #56544A",
"a. c #55544B",
"s. c #5A554C",
"d. c #57594E",
"f. c #585A4F",
"g. c #5D5A4B",
"h. c #555650",
"j. c #595552",
"k. c #575952",
"l. c #595A52",
"z. c #5C5950",
"x. c #5C5E53",
"c. c #5E5C53",
"v. c #5C5C52",
"b. c #5E5F59",
"n. c #625543",
"m. c #645B44",
"M. c #6A5C45",
"N. c #615748",
"B. c #645D4B",
"V. c #6A5E4C",
"C. c #625F56",
"Z. c #625E52",
"A. c #6A5E50",
"S. c #615E5A",
"D. c #5E6055",
"F. c #5E6055",
"G. c #5F6259",
"H. c #6C6246",
"J. c #65614D",
"K. c #6C634C",
"L. c #6B684D",
"P. c #72654D",
"I. c #73694C",
"U. c #7B6D4B",
"Y. c #716346",
"T. c #606257",
"R. c #656253",
"E. c #6B6453",
"W. c #676A57",
"Q. c #6D6954",
"!. c #616359",
"~. c #65665B",
"^. c #65675C",
"/. c #63635A",
"(. c #69675C",
"). c #66685D",
"_. c #6D6A5B",
"`. c #716652",
"'. c #786753",
"]. c #746A53",
"[. c #796D54",
"{. c #736B5A",
"}. c #7A6E5B",
"|. c #777056",
" X c #7B7055",
".X c #76705A",
"XX c #7B735B",
"oX c #696663",
"OX c #696B60",
"+X c #6C6B62",
"@X c #6F6B68",
"#X c #716E63",
"$X c #786E62",
"%X c #726E6B",
"&X c #6E7065",
"*X c #7D7561",
"=X c #79776A",
"-X c #7C7A6C",
";X c #747268",
":X c #797572",
">X c #81765C",
",X c #827765",
"<X c #847B62",
"1X c #887D67",
"2X c #847E68",
"3X c #8A8067",
"4X c #8C8269",
"5X c #978867",
/* pixels */
"o = ; ; - ; - # j Z N b D A e - V ! D !  .k % - v q q N v - = e n B k B $ S S V B B q O O q k r - * ",
"  # j N Z N e * D 3.D N A Z l N N D S V S k e S v e k V v - 4 B e N N R - N B B z N r $ $ r k q - * ",
". - k N N k - . e D  .D D N 5 ; r S X.3.X.l - r X.! !  .B - 4 B N S S R - k B S N N r $ $ r k r q ; ",
"- ; 5 ; ; q ; * ; N N l A N ; - v S !  . .v - q u. .S  .V q q N  .S B n - q B B B n q # # q k k q q ",
"5 ; = # ; N D D 1. .g = l ~  .3.4.! q - n V ! u.{ j q B ! V N D S r k k k k B r k r q - 3 q q q = - ",
"g e 5 ; j S  .D 5.3.l g  .k.k.v.T.4.e q S X.4.l.4.v e ! r.4.X.3.N 3 N R p.....k $ 3 k N B k - O = ; ",
"j j j g l S Z l A  .S D h.!.h.r.c.0.A A 4.9.X.9.v. .D u.F.p.4.0.S r  .6.^.0.s.R $ 3 z S S n 3 # q g ",
"j j g g N  . .S D 1.D S 5.v.l.b.d.4.N v  .4.u.OX4.S D p.F.p.r.v.X.z .. .p.R p...r r k N B z r q 5 g ",
"r n r 3 N S B R S R z k ..p.p.p.9.D q k p.^.c.c.f.k -  .F.f.d.+XA N X.!.^.G.k.X.# q b A ! S e # q q ",
"$ q 3 - k z q q N S z k S S k r v S D S S N v  .j e n ! S k l D S N  .u.X.! S k - e N V V V r = q q ",
"O k B R 4. .r -  .s.z.c.(.z.B q n p.+X&Xx.V r S 0.T.+X!.X.V B S { 4.~.F.k % e V S S n q 4 r n V = = ",
"# k n N { S k r 6.C.C.C.+X/. .B 9.c.T.^.!.X.V X.&XOX^.!.u. . .4.X.p.(.T.B 8 S 0.9.4.{ r 8 r B D - * ",
"z S N r N B n B C.(.z.6.s.s.....+XF.9.4.u.X.X.!.F.4.4.x.p.S { T.f.o.$.q.{ { q.w.| q.q.} C N n k k h ",
"r  .4.4.6. .k q p.(.+X(.+Xs.B k X.0.i.F.c.! V 9.v.9.c.&Xi.j N T.Z.Z._.Z.B r { w.w.w.o.C z n B B N l ",
"@ n R  ...B 3 $ B 6.s.s.z...r - k N S 9.9.l - n 0.X.X.4.A 4 e X.g.B.{.B.n > C $.q.} m 9 8 p C P r q ",
"S  .B q k B  .s.p.p.R k B  .4.z.^.X.e k  .S ! v.4.V q 8 v ! 3.0.q.p 9 M } w.=.C 0 p d m M M p > 8 3 ",
"I $.$.M m $.R.B.{.E.g.$.w.E._.E.=X=XS  .x.S.:X%XoXW - ..^.p.B.B.R.p 9 q._.E.E.R.p n I o.w.q.n O j j ",
"I $.$.M n o.w.w.E.R.w.$.q.B.E.B.q.c.C { s.i.%X%X@X8.N 4.6.C q.R.J.I I w.$.I { $.n C I I I I m r n l ",
"} q.$.m m $.B.B.E.B.$.} $.B.E.E.W.(.{ { s.a.v.j.@Xj.A 4.o.C q.E.=.m I w.$.I } $.M I { } } } I r l l ",
"{ } R p n o.B.E.B.q.} C { w.E.E.B.o.0 n T.;X+XoXS.2.q V o.} e.g.} 9 r o.q.q.q.o.m m I o.g.w.m @ 8 8 ",
"p m M n m } $.} $.o.} I } $.$.} o.{ m C s.!.6.6...D 8 N { C $.| } p m } } } } C m I I I } I p : 8 8 ",
"9 m } o.$.} I p $.w.B.B.B.w.{ p | e._.g.6.C & r R r.X.o.C p | =.} } w.w.I C } $.q.B.w.I 9 9 I 7.C C ",
"m { $.w.w.$.{ n B.E.{.{.Q.B.o.m d / R.e.w.q.r  . .T.s.e.{ M e.B.} $.E.B.} o.B.E.{.{.E.} r p { w.{ { ",
"{ } } } o.$.$.} E.E.B.w.g.g.q.} | / =./ q.g.n S { 0.{ | o.=.L.B.=.$.w.w.$.B.E.B.{.E.w.o.} } M 9 r r ",
"U #.%.@.-.>.*.^  X XH.M.].V.} U n.n.>.M.P.%.K K >.@.@.%.-.%.M.*XW.F.W.W.w.-.].XXH.<XQ.{ I { Q C n a ",
"i E w.m.m.>.) u >.m.*.@.n.#.m a O.V.}.XX`.( t a E.K.K.M.O.K +.{._.c.g.e./ / ;.K.-.m.=.( { C n V 9 9 ",
"I #.#.U K ` @.' *.>.' ( +.O.U } o.w.$.} } M M $.$.} } } I m } B.{ ! q.J.w.@.&.@.G ( +.B.E. .8 e k k ",
"w.N.O.a t L m.I.H.H.@.( +.w.B.{.#Xg.B r } c.(.-Xg.R n { g.^.(._.V n | E.E.V.-.K F @.e.Q.*Xg.n r D D ",
"#.N.N.O.( -.H.H.K.P.-.O.-.N.B.$XE.g.R C s.(.T.R.;X6.V o./.+X(.(.Z.R I $.w.m.>.L @.P.K.m.E.E.o.B  .X.",
"} w.N.@.@.m.H.H.H.P.,.-.V.B.w.B.} q.} I $.w.w.B.E.$.} $.q.q.g.E.q.m M #.n.M.>.L ` [.}.V.E.E.{ w } } ",
"#.%.O.K U >.I.I.I.I.>.-.K.E.N.B.w.n.O.K @.K.].,Xm.O.( @.m.M.`.*XM p I N.m.n.>.Y Y M.P.V.V.$.z 8 E R ",
"I } U m U >.H.m.[.K.' U n.E.E.}.O.L 7 < ` M.@.` -.u < a @.m.>.n.#.R } %.U U @.@.Y.V.@.U J p p o.m m ",
"2 U @.-.m.H.' 6 H [ ,.H.H.@.s f d +.e.m.J.=.m p M =.K.Q.M.U M -.XX X4X<X( y @.1X}.}.M.U a U w.B.N.g.",
"i U } ( @.M.*.s >.I. X>X>XH.^ f M -.M.M.J.=.f 0 +.w.m.K.].-.( -.m.>.].XXm.*.m.P.`.{.E.#.U #.N.N.7.6.",
"x E O.O.-.K.H.' ,.H.,.,.I.K.@.( =.J.M.w.m.e.O.+.+.-.m.K.Q.w.=.Q.m.m.[.>X].K.K.n.].XX{.n.#.w.N.w.$.o.",
"2 P $.w.M.K.,.) ,.I.K.K. X].-.@.e.E.J.m.J.M.@.+.| M.Q.K.-.M ( ].K.[.<X.X>.*.M.>.K.].E.@.} O.#.} I R ",
": x #.$.%.-.` G ) K. X[.XXM.K a | M.J.J.Q.w.m 0 m.Q.K.m.+.f M m.m.m.P.H.@.*.m.-.U @.%.} U U J i p p ",
"z T E E U ( ( ( ( ,.>.` O.O.U U =.e.@.} -.e.@.+.J.-./ +.K.J.e.K.*.^ ' H.[.<XXXn.t U -.w.w.%.J > w w ",
"T W #.E U U +.-.M.P.@.K O.V.{.,XM.m./ d } m.Q.*XM.} d } XX2X.XXXm.) *..X3X4X<XP.f O.B.V.B.N.U 9 p p ",
"c W ..E P U O.@.-.V.-.( m.{.E.B.w.m.+.( -.m.-.-.Q.w.( =.{..XE..X|.,.I.1X.XH.K.].O.w.m.w.%.#.U 0 0 w ",
"m { } I M U } O.m.@.O.+.>.>.@.` ) -.&.( @.-.-.B.m.@.( *.[.U.<.U.I.>.H. XP.M.K.K.d K J.J.m.=.0 & w 9 ",
"m C C d p C O.q.@.$.( ( @.M.M.>.L.,.f 7 K -.e.V.m.-.( ' Y.I.U.5XM.L K >.M.M.M.@.K K } m p U m / p w ",
"w n n p p C | $.I O.O.U ( -.@.K @.&.K f ( O.} } } O.@.*.>._ H :.>.] -.>.U F ( @.w.O.O.i > m C 7.m z ",
"& w B C I { { I 0 } w.O.} $.U > 0 +.M.w.@.I m P N.`.}.>X[._ H _ M.M.'.P.J 7 K n.-.$.N.U p M n R C m ",
"& r V S {  .{ B 9 o.B.w.w.B.@.p K B.E.w.O.I P #.A.}.}.].Y.@.] I.[.>.>.n.O.U O.#.I I #.m p m z C z z ",
"q k n N B S R C C o.q.o.$.w.O.f =.J.m.q.N.7.R I I O.#.%.%.K F @.M.O.@.%.U J U } $.I E 9 1 z w B w 1 ",
"- 5 e k v V V n B C C C I / n > I =.q.w.A.7.z 2 z P E %.n.L u F Y L #.%.J i J E o.P E z p B 8 q 3 3 ",
". # 5 k N V v 8 % & 8 N { { p > 0 } q.o.E x 2 2 z i 2 a U K F ] U , t U $.%.$.U : 1 T R ....1 + z h ",
"g 3 3 = X = j q N h q ; # e N h r w 3 $ 1 z R ....R 1 z 6.6.s.s...1 z R 6.Z.6...w z B T T B w $ w w ",
"h q q - X - k q N h q ; # e N h r w 3 = 1 z R ..6...1 z 6.6.t.7.6.w z R 6.s...R z z B T C z w $ w w "
};
