/* XPM */
static char *_c6dab252a1b4f639ad10ef410b133d2WfaLNb7F89gk1QnC[] = {
/* columns rows colors chars-per-pixel */
"64 64 184 2 ",
"   c #162D33",
".  c #1C3437",
"X  c #1B353A",
"o  c #20373D",
"O  c #233B3F",
"+  c #243D41",
"@  c #293E43",
"#  c #274347",
"$  c #294345",
"%  c #274649",
"&  c #2B454A",
"*  c #26484A",
"=  c #2D494D",
"-  c #334B4E",
";  c #2F4C50",
":  c #324E52",
">  c #384E54",
",  c #374D58",
"<  c #2E5156",
"1  c #2F5059",
"2  c #355254",
"3  c #395356",
"4  c #34555A",
"5  c #3A555A",
"6  c #3C595C",
"7  c #3A5A5A",
"8  c #3C5D62",
"9  c #3D6165",
"0  c #3E646A",
"q  c #405357",
"w  c #41565A",
"e  c #425B5E",
"r  c #495E5F",
"t  c #425D62",
"y  c #446265",
"u  c #496265",
"i  c #4E6867",
"p  c #44656A",
"a  c #4B666A",
"s  c #456A6E",
"d  c #4B6A6D",
"f  c #506966",
"g  c #526A6D",
"h  c #586B6F",
"j  c #55746F",
"k  c #456771",
"l  c #466C72",
"z  c #4C6D73",
"x  c #4E6F78",
"c  c #536D72",
"v  c #5A6F74",
"b  c #477074",
"n  c #4D7174",
"m  c #4D757A",
"M  c #4F787A",
"N  c #547274",
"B  c #5A7376",
"V  c #54757A",
"C  c #5B767A",
"Z  c #55797C",
"A  c #5C7A7D",
"S  c #62767B",
"D  c #627B7E",
"F  c #5D817F",
"G  c #567C82",
"H  c #5C7D82",
"J  c #637E82",
"K  c #6A7F82",
"L  c #5C8184",
"P  c #568188",
"I  c #5E848A",
"U  c #5F888D",
"Y  c #648285",
"T  c #6A8386",
"R  c #668887",
"E  c #688887",
"W  c #64858A",
"Q  c #69868A",
"!  c #64898D",
"~  c #6C8B8D",
"^  c #728C8E",
"/  c #658B91",
"(  c #6B8E92",
")  c #728E91",
"_  c #669395",
"`  c #6D9194",
"'  c #6D959A",
"]  c #749395",
"[  c #7A9496",
"{  c #7D9896",
"}  c #74969A",
"|  c #7A969A",
" . c #759A9C",
".. c #7B9B9D",
"X. c #7CA09F",
"o. c #6F9AA0",
"O. c #7995A0",
"+. c #759CA1",
"@. c #7B9DA2",
"#. c #75A1A3",
"$. c #7DA2A4",
"%. c #7DA3A9",
"&. c #7EABAA",
"*. c #829B9E",
"=. c #829EA1",
"-. c #8A9FA4",
";. c #83A3A5",
":. c #89A3A5",
">. c #84A9A7",
",. c #88AAA7",
"<. c #84A5AA",
"1. c #8AA6A9",
"2. c #85AAAB",
"3. c #8BABAD",
"4. c #92ABAD",
"5. c #93A6AA",
"6. c #89B0AF",
"7. c #91B0AF",
"8. c #86A6B1",
"9. c #88A6B0",
"0. c #86ACB1",
"q. c #8BADB2",
"w. c #8BAEB9",
"e. c #92AEB1",
"r. c #9BAEB2",
"t. c #87B0B4",
"y. c #8DB1B3",
"u. c #8EB8B7",
"i. c #8EB3B9",
"p. c #93B3B5",
"a. c #99B3B6",
"s. c #91B8B5",
"d. c #94B5BA",
"f. c #99B6B9",
"g. c #95BABC",
"h. c #9BBBBD",
"j. c #A1BBBE",
"k. c #A8BDBE",
"l. c #99C0BF",
"z. c #93B6C1",
"x. c #96BBC2",
"c. c #9DBEC1",
"v. c #A2BEC1",
"b. c #97C0C2",
"n. c #9DC1C3",
"m. c #A1C2C5",
"M. c #A2C4C6",
"N. c #A4C3C5",
"B. c #A9C3C6",
"V. c #AAC8C6",
"C. c #A4C3C8",
"Z. c #A2C6C8",
"A. c #A5C7C9",
"S. c #A6C5C9",
"D. c #A4C5C9",
"F. c #AAC6C9",
"G. c #A6C8CA",
"H. c #A5C9CA",
"J. c #A9C8CB",
"K. c #AACACD",
"L. c #ACCACE",
"P. c #ACCACC",
"I. c #B1CCCE",
"U. c #B1C6C9",
"Y. c #B0D0CF",
"T. c #AECED1",
"R. c #ADCDD0",
"E. c #B0CED1",
"W. c #B3CED1",
"Q. c #AFD1D4",
"!. c #B2D1D5",
"~. c #B4D2D4",
"^. c #BAD3D6",
"/. c #B4D5D9",
"(. c #BCD6D9",
"). c #BCD9DB",
"_. c #C3DBDD",
"`. c #C5DDE1",
"'. c #C9DEE3",
"]. c #C9E2E4",
"[. c #CFE7E9",
"{. c #C6E2E5",
"}. c #D3EBEC",
"|. c #D6F0F1",
/* pixels */
"! y.n.g.y.Z.b.g.Q.Z.A.m.F.P.E.h.;.Z.y.s.q.2.f.} <.R.A.R./.!.C.K.) ] h.y.Y $.g.c.s.s.H 2.' M `  .@. .I x } / / H Z p : z y H H p ",
"] y.!.h.h.M.A.Z.n.c.c.A.m.N.N.N.} c.2.<.$.s.n.` ;.K.A.K.R.!.K.P.] | h.2.A } g.n.q.f.H @.` b L !  .$./ p  .` +./ W V 4 Z a V H p ",
"E p.N.h.c.M.A.G.N.A.A.c.K.J.K.h.( q.$.y.2.g.m.( =.R.K.P.R.K.C.E.~ ..v.;.A h.Z.c.x.q.V @.#.L  .@.<.@.I 0 ' ' W Z ' I 1 p 8 x H k ",
"Y a.N.N.A.R.A.A.c.M.m.m.A.G.J.c.! ` 3.f.p.h.2...<.J.m.P.R.R.A.K.~ Q e.c.A e.c.h.m.c.A  ._  .2.$. .' / 9 G L m W } H 4 l 8 N G l ",
"Y [ v.p.h.A.J.m.R.!.!.!.R.E.!.A.Y y.h.s.p.h.c. .2.Q.K.R.R.!.A.K.) | ;.q.H h.h.c.n.h.C @.` I ' <.@.` ` 9 / ` ` ' } n 6 H t d d 8 ",
"~ a t N N H N V Q ( @.| ;.e.h.3.H ;.<.;.1.3.p.~ @.m.A.K.A.A.h.m.} ;.y.@.C h.g.g.<.2.A 2.@./ ' @.$. ./ s ' `  .` ` I 4 x 8 n x 9 ",
"L ~ 3...] c Y ~ ~ ( ~ J J ~ Q Y A d a N C C J T J J D J D D c d N ) ( Y d <.q.$.2.3.N <.( +... .@.%.! n ` ! ' } W I < p 8 Z Z p ",
"Y ` m.p.p.} p.c.J.N.f.;.v.).^.B.I.E.W.^.P.E.^.F.W.^.a.*.v.B.3.h.j.S.R.N.A =.@...e.q.C ..$.;.;...@.@.W l @.' } ] ` V 6 Q c V z 8 ",
"L X.2.2.2.! 2.p.N.f.c.] p.~.!.E.P.I.E.~.I.E.~.P.E.~.f.;.F.N.h.v.B.B.P.N.J e.1.e.d.1.z a y p a 3 t c y 6 t 2 : = = # X & + o o   ",
"Y $.y.2.y.H $.n.f.p.P.;.c.P.E.E.P.!.~.P.J.E.~.).~.~.1.e.R.A.N.N.I.B.f.v.T 4.1.3.q.<.c Q C ( J t ) ] J Y ..d d ~ Q Y J T C d T u ",
"Y @.n.p.v.~ f.A.h.c.P.3.y.G.!.!.L.E.L.N.E.~.W.~.~.(.;.p.E.N.v.N.j.h.p.F.J e.3.2.} } z Z ~ ..] t W / / ( @.k Q @.] ( H H Y R } a ",
"~ ;.N.f.N.~ N.m.h.h.J.p.;.M./.G.J.P.!.!.~.~.~.~.~.~.3.1.F.h.N.F.v.N.m.P.J 3.<.h.2.;.y A } } ] p +._ +.' <.V ! @.( H ( 0 V ( W 4 ",
"t d ~ } E A P.h.h.F.F.3.f.m.P.R.J.M.!.~.P.~.!.E.P.L.3.1.N.h.K.N.N.N.~.Y.Y =.$.g.g.Z.Z }  .;...8 %.' ' +.%.l } } ! Y L p R Y V = ",
"V Y ~ Q C C N.v.J.P.N.1.1.v.!.L.K.h.J.J.S.).I.N.J.(.1.1.F.h.N.F.F.P.!.P.T f.p.;.g.G.W } ..@.| a %.0.0.@.@.d ~ Q ~ A d Y ~ d A 2 ",
"3.3.h.h.3.A *...a.h.e.....f.P.N.v.f.v.B.F.^.F.I.I.(.e.1.v.j.B.I.U.B._._.S r.v.1.e.;.i B ~ =.T t q.z.0.@.@.a ) [ ) ~ ~ A Q ) ) 6 ",
"<.q.q.2.;.p d Y E Q ~ c u i C c c c i c D c c B c c g u c C D B g g c g q w - c B e u B C c i t 0.w.<.O.d.y = 5 : ; 2 2 & : : X ",
"2.0.p.2.1.C v.P.N.h.N.h.4.j.j.^ F.v.h.N.B.F.| j.W.B.F.F.F.I.~.~ ] ;.} ) ..;.Y ^.`.^.E.E.E.E.I.J <.0.d.9.w.a ) ;.~ A V A u - x z ",
"%.t.0.3.2.A h.p.7.h.3.a.h.J.j.^ P.L.E.~.E.E.=.E.).).P.F.J.E.~...=.p.2.2.2.p.A I.`.~.!.!.!.P.P.J $.%.8.2.0.a ] =.} ~ A C g 6 G Z ",
"#._ +.&. .N N.,.} ;.2.2.2.N.a.Y v.a.f.N.P.)...F._._.N.e.h.a.I.} ;.p.3.2.2.f.J (.`.(.~.~.!.P.P.W %.i.d.<.<.p ~ ..} ! H H d ; n M ",
"0._  .#...N h.3.s.s.y.} 2.G.7.~ N.v.N.N.N.~.| P.(.W.E.~.N.N.E.} <.p.2.2.3.e.A W.(.I.S.P.!.~.(.~ @.i.w.0.t.p Y  .@.I A ! z : Z Z ",
"#.' ` ..} A a.7.p.g.3.2.h.N.a.E L.J.L.N.v.I.[ F.`._.(._._.F.).| ..2...;.3.q.Y W.(.(.~.!.P.F.W.~ z.x.z.w.q.l ~ } @./ W ! d 4 I P ",
" .<. .$...A f.h.3.p.1.y.p.h.p.Q N.c.h.p.e.j.| ^.].]._.[.I.W.|.=...q...;...;.J ~.`._.(.~.~.E.^.~ d.x.x.z.x.z ] $.' } ( ! c 6 I U ",
"s.p.y.p...N h.p.h.N.p.3.h.N.:.~ J.n.h.h.F.F.*.W._.^.]._.].}.}.*...q.<.<...;.J W.(.(.~.(.~.P.^.) @.d.d.0.w.d ( } ` } ( ] J y / / ",
"} } } ..] B 3.<.e.3.1.3.N.N.1.Q !.N.f.v.~.E.:.W.^._._.[.[.^._.*...<.<.@.} ;.Y I.(.W.I.~.~.F.W.~ <.<.0.g.m.N ) ) ` ` ` } J y ( U ",
"a a A f e r g B B J N A ^ C t T L.h.h.v.F.!.:.W.].].].(.^.F._.p.=.2.<.$.} =.Y (.^.N.L.F.P.F.W.) $.@.<.d.m.z ( (  ._ / ] c t ` _ ",
"E.^.^.^.k.4.B.4.) f.v.h.v.B.=.) P.h.f.h.a.N.:.^.]._.].^.`._._.:...c.f.2...| A W.F.j.v.N.I.P.I.] w.0.d.f.h.d ] ..;.} } ;.B a } ` ",
"J.!.).I.P.I.S.4.] m.m.A.f.F.3.*.m.h.N.R.P.!.;.) =.[ Q Y D Y J g c C a a 6 5 e g g C d c C A N 3 u 3 , , 3 + $ : & = : 3 @ > ( ! ",
"c.).).~.W.I.~.h.~ n.h.Z.c.h.f.) N.p.N.c.F.L...1.j.j.a.1.4.p.4.f.h.f.h.f.a.Y e.4.*.T ) } ..A ~ :.^ :.K c T i B N Q V V N t 6 }  .",
").~.~.~.^.).(.P.Y p.n.A.h.F.3.~ L.N.N.N.F.J.=.a.S.3.4.e.*.;.:.3.4.p.e.S.p.A [ -.a.B ) ~ ( J =.3.;.h. .V ) J ..( #.! / } N y ( / ",
"P.E.^.`.].~.^.E.Y N.h.M.v.N.3...F.f.N.~.N.~.;.a.v.1.=.h.f.4...3.v.v.1.h.a.D 1.| e.c | ..) J Q ] } <.G p ` ~ ..(  .' / _ p z +.' ",
"(.`.(.^.`.W.^.E.) K.m.p.v.N.3.Q F.h.a.N.N.P.| a.N.3.;.h.J.h.1.p.j.I.4.f.4.D e.*.4.c :.:.p.R A W R R ! z  .} } } +. .` } A V $.o.",
").(.{.(.`.(.~.P...c.h.a...N.3.] ).P.P.f.a.J.] f.J.h.1.N.h.;...h.:.1.1.a.1.S :.[ 4.N ..| 1.E Y | ( ] C z | ..) }  ./ ! ` C z ;.} ",
"~.).).W._.^.P.N...l.2.s.3.y.4.) !.V.P.j.p.P.[ h.N.a.3.2.] 2.y.3.1.a.:.h.:.f ] [ 4.N ] | ;.Y A ) ) @.J g [ :.=...1...| ..A u [ ) ",
"S.).).I.^.I.~.I...y.y.y.s.<.*.] N.3.j.7.a.^.] p.j.p.3.;.p.p.p.p.e.B.4.p.4.D ;.;.4.g 1.e.f.Q : 6 5 : : 5 3 = 2 2 5 5 5 2 & + : - ",
"I.).]._.'.`.(.E...<.a.h.a.h.*.{ ~.h.S.N.j.v.K :.j.a.e.1.a.v.j.f.a.a.*.a.5.B 3.} | v :.<.=.J J | | ] } R H 6 A ~ A H R ~ ( ~ c & ",
"T E T J J Q J Y Y C A ~ A u c T ..[ ^ E T Y B C e u g u e g v S i y 5 u u e d 6 g c ;.3.3.N Y ] } $.} ` ` y a ~ } ! R ` ] =.} 2 ",
"C N ~ Y | a A ( } <.z =.<.3.e.1.p.a.h.p.e...p.e...Y p.h.v.f.h.) <.2.;.} ~ ..} } ..V y.p.y.N V W $.<.@.`  .9 p Z / ( I ` ( ` | 6 ",
"Y N p.2.2. . .;.<.q.c e.n.K.P.m.M.c.h.q.e.h.F.c.f.E A.M.L.N.).} <.y.2.;.....;.2.$.n 2.%.y.Z s ( %.0.<.$._ 9 p b H _ V I ( ~ ( y ",
"Q y @.y.y. .<. .2.2.H d.m.A.M.M.M.h.f.h.f.v.h.h.3.R h.s.A.G.Q.` ;.3.2.$.p.h.3.p.} a 2.;.;.Z V ` %.%.@. . .7 V ( Z R Z Z ! R H 6 ",
"~ p @. .2.u.t.<.y.c.W p.A.Z.n.h.b.g.p.c.K.n.c.g.3.` Z.P.G.M.m.` <.2.2.1.1.a.a.;.~ c 2.2.@.N V ..%.$. .` @.d W } l Z ( R W Q A 5 ",
"R n p. .#.g.2.%.q.h.Y d.A.n.n.n.n.g.g.Z.G.g.n.h.p.( A.!.R.A.P.) f.q.;.1.3.1.3.| ~ C } } ;.N z @.%.+. . .( 4 Y ~ n n / ( R Y A 2 ",
"R V 2.X.#.&.0.0.q.p.H e.m.g.c.g.b.b.g.n.y.M.c.c.p.~ P.L.).P.E.~ ..;.3.q.3.1.;.1.~ y ) ~ ] J a | @.(  .~ Q 7 E A n d ~ ` ~ Q Y 2 ",
"y V 2.%.'  .<.$.3.h.C f.h.h.n.g.n.h.M.A.n.h.g.g.p.Y f.v.c.N.P.d p z y 6 y 3 3 e y y i t c a e t 6 y 5 6 5 $ > & 3 # # = : = & . ",
"~ E h.p.y.<.y.2.e.h.A N.E.!.A.A.A.G.v.P.F.h.h.h.c.! c.h.m.c.m.V ..2.;.;.;.1.C Q N.f.h.v.v.N.F.) V @.] ;.:.*.=.u C ] Q C c y t g ",
"| t B C E ~ Q A A D 3 c J D N d N g 5 c C i d N N N f.v.v.v.R.Y $.y.%.p.2.g.J ~ p.;.3.p.a.a.h...H $.~ $.3...;.9 I ..( ( W H V H ",
"=.c [ ..=.1.;.Q A A J B t c E | ) [ ] D =.*.| ..<.H 2.f.h.P.K.A +.2.#.0.2.;.Y Y 2.} ..p.p.p.M...G  ./ q.$. .@.s !  .! ' ! Z m H ",
"^ B Y.N.F.g.h.....h.h.!.} E e.h.3.p.p.R p.h.3.h.2.( 2.<.h.c.A.A !  .;.$.` $.C ] p...3.f.y.y.h.} V <. .;.@.} @.n Z ' / ( / Z x l ",
"Y a m.p.2.p.2.E ..p.2.h.Q [ ;.;.2.y.q.Z a.h.2.y.2.! g.n.h.p.h.Z I  .q.$. .2.Y ] v.N.h.2.2.p.N.;.R %.} @.` ! @.s G } ( / I b m n ",
"Q C M.%.@.2.f.=...d.q.p.Q Y ;.;.;.1.f.A p.g.y.<.<.W Z.Z.g.x.y.V / U 2.+.2.q.A } P.h.3.2.2.2.a.] A  . .' L _ $.p G G L I I x l n ",
") a  ._ $.;.f.=.W g.z.g.D T 1.@.( ..e.C p.p.%.y.2.( s.c.i.0.g.G ( +.%. . .y.Y ] J.p.2.$.2...f.} L $.` ! ! _  .p p x A Y V d V l ",
"^ y y.2.<.2.p.| ( n.z.2.A D ..} ......A a.g. .y.h.} h.y.g.x.n.V ! / $. .<.q.! ..J.h.p.y.s.2.h.;.N ~ ] ) Y ` ;.p J ( ) A R N V N ",
"C d y.2.q.;.3.] } c.i.q.J i Y } ..] ) d ..p.2.<.;.} p.y.y.g.d.V Y L .. .@.2.R ;.P.f.y.6.2.2.h.} % 2 2 2 : 2 y 2 6 6 6 : = % % * ",
"A N <.s.g.p.a.*.) p.@.s.D T | @.<.e...i ) ;.<.3.3.Q 3.p.p.a.f.A ..} ;.,.<.a.Q *.N.j.h.3.3.<.e...6 C N V C n Z ( Q d p V d p 9 < ",
"i 3 Q ] } Q ^ B ] c.x.q.C u A z C H C = y 5 d N c g d y y y t : u y u 6 7 3 2 2 6 e y d t t y 6 2 V V H Y H W H ! V x } } ! / I ",
"u N 6 y C ~ T B | c.w.h.D D ] } @.` ~ ..( q.2.~ N ;...} ..] ..C y ~ ~ ~ N g ) Q } N H ;.W } @.V y W H ! / I / / / x k +./ / I L ",
"1.p.{ B 3.p.a.{ ) m.c.A.D { p.<.g.s.w.s.g.Z.s.@.Y 3.<.} } ;.1.A F ......A d } ( ;.Z ! 2.@.q.y.Y 4 H I ! ! / / G U k M ' I U M P ",
"Y Y B D 3.:.4.[ ~ g.<.w.Y ) q.2.0.2.q.y.y.n.s.<.A p.;.$. ...<.N Y ;.] ~ A n } ` #.l ! <.+.<.0.~ 6 H L ! ! ! W U W s x ' G I U U ",
"N a t Y 3.:.h.<.!  .%.y.C ;.f.g.i.0.i.s.c.H.x.<.J p.@.$.%.%.q.A ! X.F ~ A V } ( @.b L } @.( @./ 8 Y I I ! I / I I p p L m L G L ",
"F F N ~ 1.=.3.] ( 2.t.0.C $.g.x.z.q.p.m.K.Z.Z.q.~ p...;.;.$.e.E E ..] ~ H N $.(  .n W 0.w.@.G V 9 G Z ! ` / I L I 0 l ` I ! I m ",
"! ` A Y p.<.3.` ! y.2.y.N ..g.g.g.i.d.c.K.R.A.;.V 3.3...3.;.p.N ~ ;.) Q J N q. .$.b / 0.2.@.} 8 8 W ! ! ! / I L U s 0 ! Z l b m ",
"&.l.E F 3.X.,.F _ 2.%.q.Z ;.p.y.0.<.p.h.c.M.c.q.c 1.;.....$.;.n Y ~ ~ ~ Y n .._ +.b ~ 2.@.} ;.Z 8 I I I I I G G / 0 z ( m G L G ",
"! 6.Y D 1.p.p.Y L 2.y.h.Y 1.e.s.i.g.x.h.P.P.R.1.C p.h.3.<.2.;.d F ....] Q J s.#.2.n ` q.3...<.L y ! H R W ( / H ! x W <. .} H H ",
"L R N B ;.:.{ j C ( R ..u ] ) E ! ~ Q ~ [ Q ) B 3 v A Y A A u - 7 e e u 3 C p.;.q.Y 2 a t 6 a 5 5 u : 2 2 y 5 3 e & t C i 2 : t ",
">...B > h e f 7 - 8 p a u g u 8 N y 6 5 u D D T T S K ^ 1.3.=.| B u g T S D p.<.2.~ N Q C 5 g Y B D Q e 2 6 5 3 - w w - & O $ . "
};
