/* XPM */
static char *_31067f2e0df4de7ab2db37658d830c1BugmJORhekdLwIXk[] = {
/* columns rows colors chars-per-pixel */
"50 50 190 2 ",
"   c gray12",
".  c gray13",
"X  c #222222",
"o  c gray16",
"O  c gray23",
"+  c #3C3C3C",
"@  c gray24",
"#  c #3E3E3E",
"$  c #3F3F3F",
"%  c #414141",
"&  c #434343",
"*  c #444444",
"=  c #464646",
"-  c gray28",
";  c #494949",
":  c gray29",
">  c #4B4B4B",
",  c #4C4C4C",
"<  c gray30",
"1  c #4E4E4E",
"2  c gray31",
"3  c #505050",
"4  c #515151",
"5  c gray32",
"6  c #535353",
"7  c gray33",
"8  c #555555",
"9  c #565656",
"0  c gray34",
"q  c #585858",
"w  c gray35",
"e  c #5B5B5B",
"r  c gray36",
"t  c #5D5D5D",
"y  c gray37",
"u  c gray38",
"i  c #626262",
"p  c gray39",
"a  c gray40",
"s  c #676767",
"d  c #686868",
"f  c DimGray",
"g  c #6A6A6A",
"h  c gray42",
"j  c #6D6D6D",
"k  c #6F6F6F",
"l  c gray44",
"z  c #717171",
"x  c #727272",
"c  c gray45",
"v  c #747474",
"b  c gray46",
"n  c #767676",
"m  c #777777",
"M  c gray47",
"N  c #797979",
"B  c gray48",
"V  c #7B7B7B",
"C  c #7C7C7C",
"Z  c gray49",
"A  c #7E7E7E",
"S  c gray50",
"D  c #808080",
"F  c #818181",
"G  c gray51",
"H  c #838383",
"J  c #848484",
"K  c gray52",
"L  c #868686",
"P  c gray53",
"I  c #888888",
"U  c #898989",
"Y  c gray54",
"T  c #8B8B8B",
"R  c gray55",
"E  c #8D8D8D",
"W  c #8E8E8E",
"Q  c gray56",
"!  c #909090",
"~  c gray57",
"^  c #929292",
"/  c #939393",
"(  c gray58",
")  c #959595",
"_  c gray59",
"`  c #979797",
"'  c #989898",
"]  c gray60",
"[  c #9A9A9A",
"{  c #9B9B9B",
"}  c gray61",
"|  c #9D9D9D",
" . c gray62",
".. c #9F9F9F",
"X. c #A0A0A0",
"o. c gray63",
"O. c #A2A2A2",
"+. c gray64",
"@. c #A4A4A4",
"#. c #A5A5A5",
"$. c gray65",
"%. c #A7A7A7",
"&. c gray66",
"*. c #A9A9A9",
"=. c #AAAAAA",
"-. c gray67",
";. c #ACACAC",
":. c gray68",
">. c #AEAEAE",
",. c #AFAFAF",
"<. c gray69",
"1. c #B1B1B1",
"2. c #B2B2B2",
"3. c gray70",
"4. c #B4B4B4",
"5. c gray71",
"6. c #B6B6B6",
"7. c #B7B7B7",
"8. c gray72",
"9. c #B9B9B9",
"0. c gray73",
"q. c #BBBBBB",
"w. c #BCBCBC",
"e. c gray74",
"r. c gray",
"t. c gray75",
"y. c #C0C0C0",
"u. c #C1C1C1",
"i. c gray76",
"p. c #C3C3C3",
"a. c gray77",
"s. c #C5C5C5",
"d. c #C6C6C6",
"f. c gray78",
"g. c #C8C8C8",
"h. c gray79",
"j. c #CACACA",
"k. c #CBCBCB",
"l. c gray80",
"z. c #CDCDCD",
"x. c #CECECE",
"c. c gray81",
"v. c #D0D0D0",
"b. c gray82",
"n. c #D2D2D2",
"m. c LightGray",
"M. c gray83",
"N. c #D5D5D5",
"B. c gray84",
"V. c #D7D7D7",
"C. c #D8D8D8",
"Z. c gray85",
"A. c #DADADA",
"S. c gray86",
"D. c gainsboro",
"F. c #DDDDDD",
"G. c gray87",
"H. c #DFDFDF",
"J. c gray88",
"K. c #E1E1E1",
"L. c #E2E2E2",
"P. c gray89",
"I. c #E4E4E4",
"U. c gray90",
"Y. c #E6E6E6",
"T. c #E7E7E7",
"R. c gray91",
"E. c #E9E9E9",
"W. c #EAEAEA",
"Q. c gray92",
"!. c #ECECEC",
"~. c gray93",
"^. c #EEEEEE",
"/. c #EFEFEF",
"(. c gray94",
"). c #F1F1F1",
"_. c gray95",
"`. c #F3F3F3",
"'. c #F4F4F4",
"]. c gray96",
"[. c #F6F6F6",
"{. c gray97",
"}. c #F8F8F8",
"|. c #F9F9F9",
" X c gray98",
".X c #FBFBFB",
"XX c gray99",
"oX c #FDFDFD",
"OX c #FEFEFE",
"+X c white",
/* pixels */
"G f.f.u.;.Y / @.0.0.u.t.0.u.u.f.u.f.j.f.j.j.j.m.@.) t.0.0.1.1.0.z.m.0.f.f.z.u.0.D.f.j.f.0.j.j.j.M.E ",
"M.+X+X~.E.j.j.E.+X+X+X+X+X+X+X+X+X+X+X+X[.Y.D.J.m.0.z.j.A.[.}.~.+X+XE.J.M.j.M.A._._.J.Y.J.M.J.Y.}.D.",
"m.+X+XY.~.f.j.E.+X+X+X+X+X+X+X+X+X+X+X_.J.E.Y.Y.M.t.m.m.j.+XE.~.E.E.~.j.M.4.t.0.Y.[.D.A.D.A.D.D.[.0.",
"m.+X_.D.D.[.j.Y.+X+X}.J.+X+XD.+X}.+X_.Y.D.E.~.~.A.4.z.M.m._._.~.Y.M.D.m.0.u.@.1.J.~._.A.A.A.+X[.z.t.",
"4.}.D.j.m.z.j.J.+XY.J.Y.J.A.+X+X+X[.D.J.Y.Y.+XE.m.=.j.m.M.A.D.A.A.m.z.1.) Y Y ' 0.M.z.m.D.Y.+X+XA.0.",
"u.~.A.;.@.z.j.E.E.m.m.D.J._.+X+X+XD.Y.A.Y.+X+XY.j.0.M.j.m.A.m.D.A.D.D.;.E / ) E 4.j.D.J.D.A.~.E.D. .",
"z.J.m.1.1.@.j.J.E.z.M.~.+X+X+X+X+X+XY.J.+X+X+XY.z.=.m.D.A.@.;.=.;.;.4.o./ / / / Y 0.u.1.u.Y.Y.D.1.j.",
"f.Y.M.' J =.4.j.~.Y._._.+X+X+X+X+X}.~.Y.+X+X+XY.f.;.m.m.A.t.4.0.4.'  .;.E / / E / ;.0.1.z.D.A.m.J.j.",
"f.Y.z.@.@.;.o.z.E.E.J.+X+X+X+X+X+XD.J.Y.+X+X+XE.m.=.z.z.z.0.1.4.o.Y ' 4.j.o./ E ) u.1.t.t.E.J.M.M.t.",
"u.~.z.0.o.j.@.D.}.E.D.Y.Y.E.J.+X+XD.E.E.+X+X+XY.m.z.~.[.z.Y.M.;.t.u.t.f.D.m.0.) f.4.D.1.j.A.D.A.A.j.",
"z.[.~.j.z.z.M.J.+X}.Y.E.Y.Y.J.J.J.Y.J.D.+X+X_.Y.m.f._.Y.z.m.A.;.;.o.@.0.z.z.0./ 4.A.M.=.f.D.M.M.f.1.",
"z.~.+Xu.~.j.j.[.+X+X+XY.E.Y.D.Y.D.~.D.E.+X~.Y.J.m.f.~.~.j.j.M.=. .E Y ;.1.t.1.' 0.j.D.t.t.D.m.A.;. .",
"% # # # % # # # O O < < r x x k x h < < < < < < < < < 6 < < e x x n n B x S B B n n n h 6 < < < 6 6 ",
"~.j.~.[.~.[.+X+XY.f.M.~.r ~.u.m.j.j.z.~.+X[.+X+X}.E.j.Y.Y.+X}.+X+XE.M.Y._.x +Xj.m.m.m.m.~.+X[.+X+X}.",
"D.}.E._.+X}.Y.Y.~.f.D.~.u Y.M.m.~.Y._.E.+X+X+X+XJ.m._.~.~.+X}.Y.[.[.M.D.~.n ~.A.z.~.E._.E.+X+X+X+XE.",
"~.z.Y.~.Y.~.j.m.m.j.M.~.r ~.j.~.Y.~.Y.D.+X+XA.J.Y.E.j.E._.E.[.j.A.M.j.D.+XB +Xj.+X~.~.~.Y.+X+XY.Y.J.",
"[.A.J.~.J.z.j.4.z.j.z.M.r m.f._.Y.J.A.[.+X+XJ.E._.~.D.D.~.A.z.j.4.A.A.J.D.x D.m.[.~.E.~.}.+X+XJ.E.Y.",
"j._.~.z.u.u.m.m.4.z.j.j.u f.u.~.E.+X+X+X+X+XD.E.~.j.~.}.z.t.u.z.D.4.D.m.z.n M.j.}.[.+X+X+X+X+XD.E.J.",
"_.J.m.m.=.u.M.z.z.A.z.E.u m.m.J.~.+X+X+X+X_.}.E.[.E.Y.j.j.;.u.M.m.M.D.m.}.n M.z.E.J.+X+X}.+X~.}.~.~.",
"_.z.A.A.;.u.M.z.z.j.A.}.9 j.f.Y.E.+X+X}.[.D.+XE.E.~.j.m.M.4.j.M.m.A.z.D.~.n z.j.E.[.+X+X}.[.J.+XE.~.",
"j.f.;.4.t.=.;.;.0.z.Y.~.< ~.j.~.+X+X+X+XY.Y.Y.E.+Xj.4.=.@.=.=.;.;.4.m.M.~.x ~.j.~.+X+X+X+XE.E.~.E.~.",
"M.1.;.' 4.0.;.@.M.m.j.z.< E.m.E.}.+X+X+XJ.E.J.E.E.m.;.;.o.1.4.=.1.A.J.M.M.n E.M.E.+X+X+X+XD.~.J.E._.",
"m.j.=.) @.;.1.=.z.j.@.@.< +XJ.~.J.+X+X+X~.Y.f.E.D.z.f.1. .f.4.=.;.M.z.1.4.B +XE.~.~.+X+X+XD.Y.z.~.D.",
"m.m.z.;.1.;.1.@./ ;.=.S < +X+XY.J.E.E.Y.M.A.E.m.m.m.z.z.=.=.;.1.4. .;.4.E n +X+XJ.~.[._._.M.D.~.M.j.",
". . . .   # * # # # < < < < > < < > # # % < < 6 9 6 6 x n n B n B n S S n n S n n n B n a 6 6 < 6 9 ",
"@.~.Y.~._.j.u.Y.~.Y.~.}.}.[.}.[.}._.J.~.Y.}.}.}.t.0.Y.Y.Y.Y.~._.+X}.~.D.A.A.D.~._._.A.M.m.t.j.E._.u.",
"f.+X+XY.[.m.m.Y.+X+X+X+X+X+X+X+X+X+X+X+XD.E.D.E.M.1.z.m.z.[.[.~.+X+X[.Y.A.1.1.j.}.~.m.A.A.m.z.m.}.f.",
"f.+X+X~.~.D.j.Y.+X+X+X+X+X+X+X+X+X+X+XJ.Y.Y.Y.E.m.1.m.A.m.+X~.~.~._.M.z.4.;.=.4.D.}.~.D.M.z.A.~.m.u.",
"f.+XY.m.f.Y.j.E.+X+XY.Y.}.+XD.+X+X+XJ.Y.Y.E.E.~.A.=.m.D.A.}.~.[.m.m.j.f.;.t.Y @.u.E.[.M.M.m.~.[.z.1.",
"1.J.~.j.m.j.M.~.+XY.E.Y.Y.D.+X_.+XA.E.M.A._.+XJ.m.=.z.m.f.f.J.m.D.j.M.1.) /  .E 4.z.j.j.A.j.~.~.m.;.",
"4.E.m.1.@.t.m.~.Y.z.m.Y.E.+X+X+X+X_.Y.E.E.+X+XJ.z.1.j.m.M.j.u.0.0.j.t.;.Y E Y E @.;.f.u.D.D.A.A.M.u.",
"4.J.m.' @.=.j.D._.M.m.A.+X+X+X+X+X+XE.E.+X+X+XY.m.1.m.m.m.=.1.0.4.;.z.o.) ) /  .Y =.t.=.j.m.m.D.u.f.",
"u.Y.M. .o.o.=.j.E.E.J.+X+X+X+X+X+XY.~.J.+X+X+XJ.j.4.z.M.M.;.0.1.o.) Y t.;.E E / Y o.0.4.j.A.A.A.M.j.",
"t._.m.1.;.;.=.M.~.~.~.[.[.[.}.+X+XJ.E.J.+X+X+XY.M.f.M.m.z.M.t.4.=.) 4.1.0.4.' '  .4.0.0.f.M.m.M.A.f.",
"1.~._.z.1.m.=.J.+XE.E.Y.Y.Y.D.+X+XY.E.J.+X+X+XJ.m.m.~._.z.D.A.=.0.t.;.u.D.J.4./ 0.z.E.1.0.z.m.A.m.u.",
";.~.~.t.D.M.f._.+X+XY.E.Y.E.Y.E.J.Y.Y.Y.+X+XD.E.M.f.~._.m.z.z.@.@.E o.4.t.1.0./ 4.m.J.;.t.m.M.m.u.' ",
"G ~.z.f.f.m.m.}.+X_.+XY.~.Y.Y.Y.~.Y.D.+X+X_.Y.~.o.o.~.M.m.m.f.=.4.' Y 4.1.0.4.1.;.J.m.z.j.A.z.;.1.B ",
"S k J Y Y Y / E Y G Y  .*  .E Y E Y Y ' @.@.@.4.0.;.' 4.4.0.0.0.0.0.@.;.t.S 0.@.@.;.o.' o.@.=.@.=.@.",
"E.[.~.E._.+XJ.E.J.j.M.~.> ~.A.j.E.~.~.J.+X+X+X+X[.~.~.~.~.+X+XD.Y.Y.M.E.~.x ~.E.E.Y.~._.[.+X+X+X+X[.",
"E.[.}.~.~.Y.E.M.Y.z.M.E.> D.D.J.J._.E.E.+X+X+X}.D.D.~.~.~.[.E.~.J.E.M.E.[.n ~.J.Y.[.~.E.~.+X+X+X+XY.",
"_.j.j.[.~.~.m.f.z.j.A.~.* ~.f.~.E.~.Y.Y.+X+XD.J.~.~.f.j.[.~.~.m.M.m.M.J.+Xn ~.M._.~.~._.Y.+X+XY.Y.J.",
"D._.~.A.M.z.M.4.0.M.z.z.* u.j.E.J.[.[.+X+X+XY.Y.~.A.E.}.A.j.m.M.0.u.m.z.M.n m.m.}.E.[.[.+X+X+XY.~.~.",
"M.}._.M.=.f.m.m.t.M.m.j.* j.j._.E.+X+X+X+X+XY.E.E.M.~.Y.j.;.f.D.M.t.A.A.m.B M.j.Y.[.+X+X+X+X+XY.~.Y.",
"~.M.j.D.;.f.~.M.M.m.A.~.> j.m.+XE.+X+X+X+X[.+XY.~.E.z.z.m.@.j.[.D.A.A.D.}.n z.z.~.Y.+X+X}.+X~.+XJ.E.",
"Y.j.z.u.t.u.A.A.f.m.A.+X< J.m.Y.}.+X_.+XD.Y.[.~._.J.m.u.j.@.t.D.M.f.j.D.~.n A.z.~.}.+X[.[.M.Y.[.Y.~.",
"D.1.=.1.1.t.4.;.4.A.A.~.< ~.m.D.+X+X+X+XD.~.~.[._.M.=.1.;.1.;.0.4.4.D.m.~.n _.z.~.+X+X+X+XD.J.~.~.E.",
"A.t.t.E 4.4.1.u.M.M.j.0.6 [.A.E.~.+X+X+XY.E.u.~.E.M.t.4.Y t.1.4.t.D.A.D.u.B _.A.~.~.+X+X+XD.E.j.~.Y.",
"M.M.f.u.f.0.u.1.u.z.1.1.< +XE._.~.E.+X~.D.Y.J.E.f.j.M.=.1.=.4.1.1.t.j.1.0.n +X_.~._.E.+X_.~.Y.~.~.f.",
"a h h x k n r e 6 9 h a < E @. . .Y G J S Y Y S S G J J x n n n B x G Y S S =.o. .E Y Y Y G G Y B S ",
". . . > * * o . . . # r 9 6 x S B h e < < < 9 9 6 < 9 e e e 9 e 9 r e u n n n n n < 6 9 6 6 6 < 6 9 "
};
