/* XPM */
static char *_d4f735fe7754555e68b60754ed32dcalQiVrp2eC0UNkhUg[] = {
/* columns rows colors chars-per-pixel */
"50 50 137 2 ",
"   c #1D231E",
".  c #1F2421",
"X  c #222624",
"o  c #242926",
"O  c #2A2C27",
"+  c #242629",
"@  c #252A2A",
"#  c #292C2C",
"$  c #2C322E",
"%  c #30362F",
"&  c #2B2E31",
"*  c #302E31",
"=  c #2E3232",
"-  c #2E3931",
";  c #323534",
":  c #333A35",
">  c #383E37",
",  c #343639",
"<  c #383639",
"1  c #363B3A",
"2  c #393D3C",
"3  c #364037",
"4  c #384237",
"5  c #36413A",
"6  c #3C433D",
"7  c #40443F",
"8  c #363940",
"9  c #3C3E41",
"0  c #403F44",
"q  c #3E4342",
"w  c #3F4841",
"e  c #424244",
"r  c #404145",
"t  c #414544",
"y  c #414745",
"u  c #404447",
"i  c #414747",
"p  c #434746",
"a  c #454744",
"s  c #444547",
"d  c gray28",
"f  c #424544",
"g  c #414841",
"h  c #424941",
"j  c #404A41",
"k  c #434842",
"l  c #444943",
"z  c #424844",
"x  c #434844",
"c  c #414A45",
"v  c #424846",
"b  c #444945",
"n  c #444847",
"m  c #464847",
"M  c #444A46",
"N  c #454B47",
"B  c #474C46",
"V  c #474E46",
"C  c #474E47",
"Z  c #444945",
"A  c #494D47",
"S  c #444348",
"D  c #414548",
"F  c #434748",
"G  c #43474A",
"H  c #464749",
"J  c #47464B",
"K  c #444649",
"L  c #48474C",
"P  c #454948",
"I  c #444849",
"U  c #474948",
"Y  c #45494A",
"T  c #474C48",
"R  c #444D4A",
"E  c #474D4B",
"W  c #464949",
"Q  c #484A49",
"!  c #4A4A48",
"~  c #48494B",
"^  c #494B4A",
"/  c gray29",
"(  c #484D49",
")  c #4B4D48",
"_  c #4A4C49",
"`  c #4A4C4B",
"'  c #494E4A",
"]  c #484C4D",
"[  c #4B4C4E",
"{  c #4A4E4F",
"}  c #4C4E4D",
"|  c #4C4D4F",
" . c #4D4D4F",
".. c #4A4C4B",
"X. c #504E4F",
"o. c #465141",
"O. c #4A5246",
"+. c #4B5348",
"@. c #4B524A",
"#. c #4B504C",
"$. c #4D544C",
"%. c #4F544D",
"&. c #4C524C",
"*. c #505348",
"=. c #53564D",
"-. c #50554F",
";. c #51534F",
":. c #53594F",
">. c #4D4E50",
",. c #4D4E52",
"<. c #4B4D51",
"1. c #514F54",
"2. c #4F5052",
"3. c #4E5151",
"4. c #535552",
"5. c #555553",
"6. c #545456",
"7. c #535452",
"8. c #595556",
"9. c #535851",
"0. c #555851",
"q. c #545953",
"w. c #565953",
"e. c #565953",
"r. c #595A55",
"t. c #595C55",
"y. c #5A5D56",
"u. c #595B56",
"i. c #595758",
"p. c #555958",
"a. c #595B58",
"s. c #5B5C59",
"d. c #5D615B",
"f. c #606257",
"g. c #61625D",
"h. c #646361",
"j. c #686963",
/* pixels */
"= @ @ : : 1 q 2 2 z p e # & K s U -.= & ~ x 2 ; X X # : o.g 6 $ @ ~ p p X 2 r.K 0 ;   o g 6 ; ; ; ; ",
"p # @ X V q q q : # = # @ S  .F t.# &  ._ 6 q @ + 1 o $ ; : - # 2 m m U X 1 ; 1 1 & X w.s U p z z 6 ",
"U & @ = o X o o X o o o 1 z ~ ~ X @ w.E q q 6 @ @ 6 $.# o X ; x z = [ s.= & # 1 e F o $._ 1 p m z x ",
"5.& + & 2 2 1 = z z ; o 2 q z ; @ 6 q _ q 6 = + 6 6 g $ : o ; m z p ; # 1 ; & & + + # q 4.>. .p >.5.",
"; @ # 9 >.2.~ p q g @.@ 1 : # @ @ q x z p 2 @ X z o -.7 q : o 1 p m 2 X , w.2 , , , ; @ , 2 e ~ 1 ; ",
"o @ , m [ [ U e ~ V 1 o @ 2 X @ & q x z w 6 o X 2 x q q z 7 6 1 w._ 1 # 1 x E #.0 F ; = @ # + # ; # ",
". @ 1 [ _ = z s _ 9.X = # $ o @ @ #  .E *.% . $ V q z m x m 2 ; t.s 1 = @.~ l z 6 7 w.; + 9 2 # + + ",
"+ o 1 p o U q z s.# $ 7 : X ; &.@ = ; = - X ; x 6 q x z g m 1 ; #.; # ; _ _ _ p q 6 q : X F >.[ ; + ",
"@.= # q p q q w.; = 6 6 ; $ z ~ ; o , e e X = q 6 x q x U 7 1 ; 4.: # 1 U U _ U p e z ; @ 2  .1.7.&.",
"U 6 $ ; [ p z = $ q 2 : @ = U 6 $ # 2 q ~ 1 ; ; V 6 6 $.@ @ X # ; 6 X ; z q ~ p q p 2 @ = # 5.5.J [ ",
"U U ; ; q x = . : 6 : X $ = 2 q # $ 6 6 q [ o & @ $ @ . X ; 2 ;.q = $ X : l x 6 q 1 @ #.L X s.s.1.p ",
"_ x $ + = o X @ X . # : : $ 6 -   # : 6 z 2 @ 5.[ o z X = @.z g q 4 6 = o @ 1 1 ; ; U q p X d._ ~ [ ",
"m _ $ . X # # 2 o ; X = O $ - = o O : $.$.$ r.m U 6 X # - z z 6 6 3 6 : # # 6 = $ ~ m p z # w.m E q ",
"z ; ; X ; q q p q ; @ , A , # o : 6 # ; - O m m : : o o 4 6 6 z 6 6 6 6 = $ ; % x ~ q p : = #.m m q ",
"6 1 = @ g.s p q 4.; 1 , 9 8 p ; : 6 6 x # q x ~ q o o : $ : ; q 6 3 6 4 = O + g z z F U m = : m x 6 ",
"X o X ; m K q U 1 X 1 8 q } 9 6 X : : : @ z 6 @.1 . @ 2 6 6 z z 6 2 6 4 $ > # 6 g _ ~ } 6 ; = 1 ; $ ",
"; 6 ; $ 5.z z 2 ; @ 1 9 2 1 q z # @ O $ @ 2 q q @ X $ 6 z 1 x m g 6 6 : X 4 # q q _ &._ 2 O O o @ @ ",
"6 6 ; X 1 U U 3.; @ 9 q , p U q ; U m p 1 X 2 U X + ; _ x U U ~ q 4 ; O X X o ; p [ s. .= $ - @ 6 1 ",
"5 @.p ; ; ~ U e # : p ~ <.[ U q ;  .1 q m o ; ; X X ; ; 1 _ z : ; # X = 6 w = = & 9 5.: ; 2 : o 6 2 ",
"6 6 @.: X : 1 = + : 1 # 1 ; = o : _ F I m # z 2 o - O X # # o X o X & z q 5 V : # @ & 1 @ # @ X @ 6 ",
"q 6 q 6 # o o # s z U 1 @ e m # U ~  ._ s.$ + 1 x z A 1 1 X ; 2 # = p U z z q q 2 , q ; ; m U @ X $ ",
"@ q x V o ; # : w q q p # 2 : # e r.[ <.&.; # r.z z 4 q 6 q X @ ; ~ U U 2 w 6 z , , 1 , q q 6 @ X X ",
"o : : : X @ = x x q U _ + # 7., # 2 9 g.F # & m 6 6 2 6 p q & O [ q U ; z q U w.1 # 2 e s q q @ @   ",
"$ $ $ = o @ p z z m x 2 @ p ~ U s.s ; ; 2 & = 7 A w q 6 m q @ 1 s q ~ ~ q ~ 7., # 2 , + F K 2.# # $ ",
"1 6 6 V X ; x x U m $.& ; w.p 1 ~ p q & , 9 # p 6 g 6 g m # X # 2 z U q [ 7., # * & # U >.[ _ 6 = $ ",
"A 6 q A X 6 g z [ m ; o &.p m z [ F _ # 9 s @ ~ z z g z : # ; F 1 X 2 >. ., # @ @ m U U [ _ # p = $ ",
": [ x m X : x E m s , 1 x z p s ~ z ; @ 1 5.& ; 1 6 : # ; ~ p e e : o 9 , & 9 o f.~ [ #.2.e.9 &.: = ",
"X X @ X X X ; ; ; = X # : x z ; 6 ; # = 2 p 1 @ # - = 1 p p m 1 p U ; X X p m + s.U  .&.p.: U V ; . ",
"; q _ : # p ; # @ ; : - $ - z 1 X 2 &.6 ; 4.; $ : : O , <.} ; F ~ F F @ 1 # ; o d._ _ x , U _ 2 X # ",
"z z U K , s s 2 # q q 6 1 $ 2 O @ w p ~ # 2 ; ; [ U 1 X 2 2.q U K s # [ z : o # 6 p U ; ~ X.U = # r.",
"e U &.i.; 1 # O X z e 6 6 X @ # # U m U # 2 1 , s [ m 1 : X m s <.2 1 [ p q = o ; 1 9 #.g.9 X X ; [ ",
"e  .7.9 & , & 1 , @ ; _ p . + @ & 6 I # : U [ 2 # 2 2 = @ # F U U & &.[  .m 2 X # ; , 1 , $.2.= ; U ",
"1.[ s.& 2 h.m F ~ 1 @ 7 X & ; A 1 # e + : U U E o 1 p 2 X ; U ~ # : U E _ ~ 2 X 5.5.U _ z z q U # ; ",
", 9 2 1 [ 7.[ U p  .; ; ; V m U p = & + # 9 4.1 $ z w 1 X ; e _ X ; z U U _ 2 ; z 6 s m x 2 z ; : + ",
"= @ # _  .&.[ U q -.& + [ [ s [ p p # o + = : o = 6 O.7 X @ + @ o - g p L s 1 : z V m $._ 6 # _ 5.X ",
"# 1 m 6 z U q m s 9 # 1 U 7.<.U U U 6 : @ X : V O.1 - ; 1 9 m 1 o & 2 p ; X 1 1 # X O # + 1 U z : ; ",
"; # : 6 w U [  .& @ o m U <.2 <., p 6 U ; @ q q 6 z x 2 ; w.q q o p e # ; 4.p p + 2 m 1 2 ; [ t.@ m ",
"z 1 o $ % = & & # O $ 1 U p U [ = U [ _ , + 1 m 2 m -.= ; $.2 q = q 6 $ e U L q q U U ~ 2 1 1 O m q ",
"U m q 6 = X = ; ; t.1 2 U <.[ L e U  .[ & X 2 s.s.2 ; # X 1 U U 2 U # -.U ~ ~ m z w 2 x 2 ; X : U p ",
"7.[ &.x = @ 1 2 1 o 2 + ; ; ; 2 g.s.q & @ # & X # 1 7.r.4.- : 1 , # ; 6 6 ~ <.1 m 1 q w & # ; $ [ r.",
"@ # X 1 & + 2 _ ~ 9 9 X # 2 2 ; # @ @ # < [ p # & s r.; p &.1 @ $ O : 6 6 m E [ s _ _ ; X p 1 # ; # ",
"1 2 1 ; X o # 2.~ U q 9 ; q [ [ q # & } F e 2 # , z :.U m m #.% $ X +.3 : 6 x 6 _ U m & # s p o ; 1 ",
"p s.# ; p ; e ; 2 q 2 2 o e >.7.& 7.# 1 e 8., @ &.6 @.F ~ E 6 6 $ . - 3 1 6 6 q V ;.& @ o # ; o ; z ",
"; : # 2 q $ & o = , , 2 X ; m #  .K ; , [ [ ; @ 6 6 g 5.1 1 ; : 2 . o 6 6 w q q p # @ = $.; 2 1 = # ",
"+ # ; p q X @ &.} 5.2.[ 2 X 1 p s K 1 ,  .U ; @ 1 6 ; @ = x 2 @ $ o O O : : ; & # O X $ q m  ._ : ; ",
"@ X : q # + 2 e a ~ p K 2 ; U  .1 ; # @ ; , @ & , # & 1 [ _ 6 x = @ l o X . o 1 6 6 $ : @.A _ U $ z ",
"= & p ; . = 6 z e z ~ F o = 1 # & ;.L , 1 s q q @ ; 4.[ 2.x x q : X 6 X : : O : q 6 $ . 6 w x F 1 4.",
"& ; ; X @ 6 6 6 q 6 p o 9 = ; 1 U x p 1 q p U [ # L ~ _ ~ U U q z X 6 o : 6 3 O : 6 -   : 6 m 2 U 1 ",
"X # # o 6 2 : > 6 ; z q 1 O ; [ m p U ; = s d.t.# q q z p q w p 1 X 9 $ 1 j.[ q o $ 6   - 6 - ; d.; ",
"X X ; 1 # : - . 6 q U x = # ~ L ; K e # & 2 6 1 . # 6 4 6 6 q p # # I p # 2 ~ U z 1     X O $ & # X "
};
